<svg id="Capa_1" data-name="Capa 1" xmlns="http://www.w3.org/2000/svg" viewBox="0 0 400 400"><defs><style>.cls-1{fill:#a68f61;}</style></defs><title>iconos valores</title><path class="cls-1" d="M251.1,203.71c-20.19,0-39.31,0-58.44,0-1.49,0-2.17.39-2,2a22,22,0,0,1,0,3.54c-.33,4.76.28,8.14,5.2,11.46,11.3,7.64,9.63,24.4-2.45,31a4.58,4.58,0,0,0-2.8,4.8c.15,9.18,0,18.37.11,27.55.05,3-.57,5.58-3,7.26-8.48,5.78-10.56,13.75-9.8,23.65.81,10.44.23,21,.15,31.48,0,2.14.38,3.42,2.55,4.55a18.44,18.44,0,0,1,9.67,20.8,19,19,0,0,1-37,0c-2-8.06,1.85-16.6,9.7-20.8,1.87-1,2.58-2,2.56-4.15q-.16-21.64,0-43.3a5.63,5.63,0,0,0-1.88-4.43c-6.82-6.72-13.52-13.57-20.38-20.26a9.35,9.35,0,0,1-3-7.28c.09-21.39,0-42.78.12-64.17,0-2.84-.52-3.81-3.58-3.68-6.41.28-12.85.15-19.28,0-1.84,0-2.57.42-2.44,2.37a55.87,55.87,0,0,1,0,7.87c-.46,5.59.31,9.64,5.8,13.56,10.8,7.69,8.77,24-3,30.47-2.2,1.2-2.89,2.41-2.8,4.8.19,5,.07,10,0,14.95,0,5.91-2,7.89-8.08,7.9-13.38,0-26.76,0-40.15,0-2.17,0-3.41.45-4.53,2.59a18.43,18.43,0,0,1-20.82,9.62,18.93,18.93,0,1,1,20.9-27.24,4,4,0,0,0,4.16,2.53q16.33-.18,32.68,0c2.39,0,3.76-.36,3.27-3.11a10.34,10.34,0,0,1,0-2.36c.24-4.7.75-9.35-5.29-11.33-2-.66-3.66-2.79-4.4-4.86-1.23-3.43-3.57-3.7-6.68-3.64-8.92.17-17.84,0-26.76.1a8.14,8.14,0,0,1-6.28-2.6c-4.78-4.87-9.66-9.64-14.42-14.52a5.53,5.53,0,0,0-4.44-1.87c-5.77.13-11.55,0-17.32.09-2,.05-2.61-.47-2.66-2.58-.22-10.06-.29-10.06,9.7-10.06,4.86,0,9.72.09,14.57,0a8,8,0,0,1,6.29,2.57c4.68,4.77,9.5,9.42,14.15,14.23A6.3,6.3,0,0,0,64,235.25c7.87-.13,15.74-.11,23.62,0,2.14,0,3.57-.28,4.55-2.55a15.1,15.1,0,0,1,7.91-7.87c2.09-.93,2.46-2.21,2.41-4.23-.13-4.59-.22-9.2,0-13.78.14-2.69-.82-3.17-3.28-3.16-27.56.09-55.11.06-82.67,0-6.82,0-8.75-1.78-8.58-8.54C9.48,135.55,33.58,86.92,79.68,49.37,106,27.91,136.44,15.2,170,10.22,259.9-3.15,347.2,50.9,376.36,137.87a179.76,179.76,0,0,1,9.55,58.22c0,5.47-2.12,7.57-7.57,7.61-.26,0-.53,0-.79,0-11.67,0-11.59,0-10.61,11.93.17,2,1.42,2.25,2.6,2.91a18.93,18.93,0,0,1,10,19.33c-.9,7.41-6.76,13.8-14.51,15.79a18.42,18.42,0,0,1-20.83-9.59c-1.12-2.13-2.33-2.65-4.51-2.62q-11.82.18-23.62,0a6.37,6.37,0,0,0-5.13,2.1c-4.45,4.64-9.13,9-13.58,13.7a9.52,9.52,0,0,1-7.61,3.2c-9.18-.16-18.37,0-27.56-.09-2.12,0-3.58.23-4.56,2.52a15.15,15.15,0,0,1-7.91,7.88c-2.06.93-2.47,2.19-2.42,4.23.13,5.24-.06,10.5.08,15.74.08,2.71-.59,5.06-2.76,6.57-8.61,6-11.27,14.13-10,24.34.74,6.08.21,12.32.09,18.49,0,2.18.46,3.4,2.61,4.52a18.36,18.36,0,0,1,9.47,21.19c-2.47,9-9.82,14.42-19.19,14.22-8.42-.17-15.93-6.54-17.81-15.08a18.77,18.77,0,0,1,9.9-20.41,4,4,0,0,0,2.52-4.17c-.11-11.29,0-22.57-.11-33.86,0-3.24.54-6.07,3.27-7.93,8.51-5.83,10.86-13.94,9.48-23.76-.28-2-.68-3.14-2.56-4.16-6.5-3.49-10.07-9-10.11-16.49,0-7.67,3.61-13.27,10.27-16.8,1.8-1,2.66-1.93,2.3-3.86-1.93-10.29,2.18-17.93,10.25-24C247,208.09,248.58,206.15,251.1,203.71Zm29.09,88.18c-5.51,0-7.63,2.1-7.65,7.52,0,9.45-.06,18.89,0,28.34a4,4,0,0,1-2.47,4.2c-8,4.26-11.89,12.89-9.69,21.12a18.74,18.74,0,0,0,18.68,14.4c8.69-.05,15.91-5.82,18.18-14.54,2.13-8.21-1.78-16.81-9.88-21.06a3.67,3.67,0,0,1-2.32-3.89c.11-6.82.14-13.64,0-20.46-.05-2.31.38-3.16,2.95-3.1,8.92.18,17.84.15,26.76,0,2.16,0,3.15.69,4.15,2.56,4.28,8,13,11.79,21.17,9.56a18.75,18.75,0,0,0,14.31-18.74c-.07-8.64-5.95-15.91-14.64-18.11a18.47,18.47,0,0,0-20.8,9.66c-1.13,2.15-2.38,2.61-4.54,2.57-5.77-.12-11.55,0-17.32,0S285.84,291.87,280.19,291.89ZM77.27,341.33c7.6,2.66,16.85.61,20.87-6.47,3-5.33,6.76-5.44,11.47-5.19a14.86,14.86,0,0,0,2.75,0c2.62-.33,4,.6,5.37,3.12a18.55,18.55,0,0,0,20.36,9.14c8-2,14.14-8.8,14.73-16.43.7-9-4.12-16.86-12.21-19.89-7.68-2.88-17.13-.87-21.22,6.29-3,5.3-6.73,5.48-11.46,5.2a15.68,15.68,0,0,0-3.14,0c-2.4.36-3.62-.59-4.78-2.79A18.47,18.47,0,0,0,79.08,305c-8.7,2.32-14.37,9.51-14.4,18.26A19,19,0,0,0,77.27,341.33ZM237.93,191.09c1.44,0,3.19.65,3.07-2.1-.58-13.63-.82-27.26-1.93-40.87-.22-2.72-1.37-2.7-3.45-2.54a485.84,485.84,0,0,1-77.43,0c-2.27-.19-3.16.12-3.37,2.66-1.1,13.47-1.32,27-1.94,40.48-.14,2.91,1.53,2.4,3.18,2.4H197Q217.46,191.11,237.93,191.09Zm-2.37-58.15c2.27-.16,1.94-1,1.77-2.63a423.12,423.12,0,0,0-7.13-44.5c-.47-2.21-1.2-2.78-3.28-2.65-5.76.36-11.52.7-17.28.78-14,.19-28.06.33-42.06-.77-2.59-.21-3.42.55-4,3.21a446.51,446.51,0,0,0-7.3,46.27A508.22,508.22,0,0,0,235.56,132.94Zm36.24,70.72a6,6,0,0,0-4.79,1.93c-4.65,4.81-9.14,9.82-14.23,14.12-4.56,3.85-6.28,8.23-5.5,14,.22,1.67.37,2.75,2.18,3.56a16.27,16.27,0,0,1,8.42,8.43c.81,1.82,1.86,2.15,3.58,2.13,8.13-.06,16.25-.1,24.38,0a6.3,6.3,0,0,0,5.07-2.21c4.55-4.72,9.28-9.25,13.84-13.95a8.85,8.85,0,0,1,7-2.84c8.78.13,17.56-.06,26.34.11,3.09.06,5.42-.2,6.67-3.63a8.54,8.54,0,0,1,4.7-5.1c5.26-1.89,5.49-5.8,5-10.28a12.14,12.14,0,0,1,0-3.13c.42-2.67-.75-3.19-3.23-3.17-13.1.12-26.21.06-39.31.06C298.54,203.71,285.17,203.75,271.8,203.66Zm41.73-12.56c1.51,0,3,.48,2.91-2.21a275.69,275.69,0,0,0-6.95-51.24c-.48-2-1.14-2.57-3.46-2.05a416.12,416.12,0,0,1-51.44,8.28c-2.19.2-3.05.75-2.87,3.35,1,13.46,2,26.93,1.8,40.44,0,3.17,1.06,3.55,3.77,3.5,9.18-.16,18.36-.06,27.53-.06ZM137,191.18c2.87.07,3.4-.84,3.37-3.49-.16-13.38.82-26.72,1.79-40.06.21-2.88-.6-3.56-3.21-3.8a397.46,397.46,0,0,1-50.29-8.1c-3-.67-3.73-.11-4.4,2.68a274.48,274.48,0,0,0-6.8,50.08c-.13,2.59,1,2.66,2.91,2.65,9.44-.07,18.88,0,28.32,0S127.55,191,137,191.18Zm-75.09,0c2.14,0,2.84-.48,2.91-2.76a252.17,252.17,0,0,1,7.3-53.58c.61-2.45.12-3.11-2.19-3.73a239.53,239.53,0,0,1-28.62-9.43c-2.43-1-3.25-.42-4.29,1.83a177.83,177.83,0,0,0-16.18,65.05c-.13,2.19.5,2.63,2.49,2.6,6.43-.09,12.86,0,19.29,0S55.46,191,61.89,191.16Zm308.86,0c1.78,0,2.45-.28,2.33-2.37a178.13,178.13,0,0,0-16.19-65.32c-1.05-2.28-1.91-2.75-4.29-1.77A242.06,242.06,0,0,1,324.42,131c-2.58.7-3.26,1.26-2.55,4.14a250.29,250.29,0,0,1,7.21,53.11c.08,2.56.9,3,3.16,2.91,6.29-.15,12.58,0,18.86,0C357.65,191.11,364.2,191.06,370.75,191.14Zm-226.66-63A384.89,384.89,0,0,1,151,84.41c.48-2.15,0-2.62-2.16-2.83a309.21,309.21,0,0,1-35.69-5.27A3.39,3.39,0,0,0,109,78.1a203.44,203.44,0,0,0-19.56,42.2c-.63,1.89-.25,2.63,1.57,3a482,482,0,0,0,50.16,8C143.65,131.39,143.76,131.39,144.09,128.17Zm159-4.9c1.62-.35,2.05-1.06,1.47-2.77A202.45,202.45,0,0,0,284.79,78c-.85-1.38-1.73-2.14-3.46-1.77a305.66,305.66,0,0,1-36.87,5.43c-1.57.14-2.06.65-1.72,2.19a391.27,391.27,0,0,1,7.14,44.92c.21,2,.93,3.27,2.73,2.65A498.91,498.91,0,0,0,303.07,123.27Zm-79.5-52.66c1.43,0,3.06.22,2.3-2.24-4-13-8.2-25.9-15.86-37.32a36.67,36.67,0,0,0-4.48-5.46c-5.89-5.88-11-5.9-17-.17a40.65,40.65,0,0,0-6.65,8.73c-6.33,10.63-10.21,22.24-13.79,34-.65,2.15.23,2.47,2,2.47,8.91,0,17.82,0,26.73,0S214.66,70.62,223.57,70.61ZM152.85,267.67c0,1.44,0,2.7,1.25,3.88,5.45,5.3,10.76,10.73,16.15,16.09.51.51.91,1.31,1.92,1,1.63-.48,5.88-6.29,5.88-8.2,0-8-.08-16,.06-24,0-2.34-.52-3.61-2.76-4.82-12.22-6.64-13.72-23.47-2.28-31.23,4.49-3.05,5.48-6.13,5-10.72a12,12,0,0,1,0-2.75c.31-2.38-.3-3.43-3.07-3.33-6.41.24-12.84.22-19.26,0-2.58-.08-3,.82-2.93,3.11.12,10.09.05,20.18.05,30.27S152.86,257.45,152.85,267.67ZM348.54,107.59a179.26,179.26,0,0,0-31.69-39.27,2.83,2.83,0,0,0-3.2-.55q-7.45,2.31-15,4.47c-1.7.48-2,1.06-1.06,2.7a206,206,0,0,1,19.23,42.68c.35,1.09.62,2.18,2.39,1.66,9.5-2.81,19-5.64,28.22-9.23.72-.28,1.5-.44,1.62-1.44C348.91,108.28,348.74,107.92,348.54,107.59ZM95.14,72.24c-4.87-1.45-9.77-2.8-14.58-4.42-1.82-.61-2.9-.07-4.15,1.11a183.94,183.94,0,0,0-30.55,37.71c-1.33,2.18-1,2.9,1.4,3.75,8.58,3.09,17.25,5.86,26,8.47,2.87.86,3.42-.09,4.19-2.44A209.5,209.5,0,0,1,95.69,75.87c.39-.68.81-1.34,1.3-2.15C96.92,72.64,96,72.5,95.14,72.24Zm126.1-47.46c8.44,13.17,13.28,27.08,17.2,41.33.74,2.7,1.86,3.3,4.31,3,5.06-.64,10.18-.95,15.21-1.77,5.62-.93,11.35-1.31,17.23-3C260.78,46.12,243.87,32.13,221.24,24.78Zm-102,39.84c11,2,22,3.46,33.06,4.52,1.58.15,2.43-.33,2.84-1.88C159,52.83,164,38.9,171.81,26,160,25.59,125.61,50.88,119.26,64.62Zm5.86-27.95A157.6,157.6,0,0,0,89.89,57.6c4.6,1.27,8.46,2.35,12.33,3.41,1.56.42,2.92.61,4.11-1.08,5.74-8.18,12.67-15.33,19.8-22.28C126.28,36.81,126.08,36.34,125.12,36.67Zm142.65,1c7.12,7,14,14.12,19.82,22.29.75,1.06,1.58,1.67,2.94,1.3,4.29-1.17,8.59-2.3,13.61-3.64C292.59,49,281.29,41.83,268.78,36.67,267.81,36.35,267.62,36.82,267.77,37.65ZM184.42,228.93a6.27,6.27,0,1,0,6.19,6.33A6.61,6.61,0,0,0,184.42,228.93Zm176.39,0a6.26,6.26,0,1,0,6.17,6.35A6.59,6.59,0,0,0,360.81,228.94Zm-258.3,12.43a6.26,6.26,0,1,0,6.39-6.14A6.58,6.58,0,0,0,102.51,241.37ZM247.3,253.91a6.26,6.26,0,1,0-6.07,6.45A6.61,6.61,0,0,0,247.3,253.91ZM52,279.48A6.6,6.6,0,0,0,46,273a6.26,6.26,0,0,0-.39,12.52A6.62,6.62,0,0,0,52,279.48Zm170.14,81.85a6.26,6.26,0,1,0,6.1-6.42A6.62,6.62,0,0,0,222.18,361.33Zm-44.17,6a6.26,6.26,0,1,0-6.1,6.42A6.6,6.6,0,0,0,178,367.32ZM127.47,35.93c-.51-.67-1.7,0-2.35.74l1,1C126.83,37.23,128.12,36.8,127.47,35.93Zm138.93,0c-.63.85.65,1.3,1.37,1.71l1-1C268.12,35.88,266.91,35.26,266.4,35.94Zm69.14,256a6.27,6.27,0,1,0,6.24,6.28A6.59,6.59,0,0,0,335.54,291.92Zm-50.45,56.81a6.26,6.26,0,1,0-6.41,6.11A6.61,6.61,0,0,0,285.09,348.73ZM77.31,323.57a6.26,6.26,0,1,0,6.07-6.45A6.59,6.59,0,0,0,77.31,323.57Zm56.59-6.45a6.26,6.26,0,1,0,6.32,6.2A6.6,6.6,0,0,0,133.9,317.12Z"/></svg>