<svg id="Capa_1" data-name="Capa 1" xmlns="http://www.w3.org/2000/svg" viewBox="0 0 400 400"><defs><style>.cls-1{fill:#a68f61;}</style></defs><title>iconos valores</title><path class="cls-1" d="M200.65,8c15.41,6.48,30.81,13,46.25,19.44Q297,48.19,347.08,68.89c9.08,3.76,11.82,7.92,11.81,17.71,0,24.87.42,49.75-.09,74.61C357.32,233,330.22,293.6,278,342.86c-21.42,20.21-46,35.62-73.13,47.12a18.73,18.73,0,0,1-15.8,0Q92.6,348.2,52.65,251A237.48,237.48,0,0,1,35,162.12c-.19-25.74,0-51.49-.08-77.23,0-7.38,3.35-12.39,10-15.15Q118.4,39.17,192,8.7A8.34,8.34,0,0,0,193.15,8ZM329,97.15c0-2.4-.78-3.46-2.94-4.35Q262.78,66.64,199.6,40.3a6.29,6.29,0,0,0-5.3,0Q131,66.66,67.64,92.87c-2.32,1-2.8,2.16-2.79,4.42.08,20.12,0,40.24.06,60.36.06,16.52,1.5,32.95,5.43,49Q96.22,312.15,194.22,359.33a5.38,5.38,0,0,0,5.18.18c46.24-21.62,81.32-54.91,104.88-100.22a219.23,219.23,0,0,0,23.81-83.06c1.28-14.83.75-29.72.81-44.59C328.9,120.14,328.82,108.64,329,97.15Z"/><path class="cls-1" d="M126,251.2c-.21-9.72-.33-19.38,3.69-28.62,7.32-16.85,24.7-28.65,42.52-28.68a8,8,0,0,1,6.22,2.53c5.53,5.62,11.18,11.11,16.66,16.77,1.48,1.52,2.3,1.48,3.75,0,4.78-5,10-9.52,14.5-14.74,3.62-4.2,7.81-5,12.83-4.34a47.49,47.49,0,0,1,41.73,47.55c0,7.88-.07,15.77,0,23.64a7.39,7.39,0,0,1-3.31,6.54q-35.57,26.49-79.66,22c-20.54-2.06-38.91-9.55-55.46-21.78a7.79,7.79,0,0,1-3.56-7.16C126.16,260.32,126,255.76,126,251.2Z"/><path class="cls-1" d="M196.87,105.25a41.39,41.39,0,1,0,41.49,41.36A41.27,41.27,0,0,0,196.87,105.25Z"/></svg>