<svg id="Capa_1" data-name="Capa 1" xmlns="http://www.w3.org/2000/svg" viewBox="0 0 400 400"><defs><style>.cls-1{fill:#a68f61;}</style></defs><title>iconos valores</title><path class="cls-1" d="M180.07,7.83a63,63,0,0,1,13.28,3.06,23.06,23.06,0,0,0,15.38-.14,79.33,79.33,0,0,1,11.84-2.92h13.5c1.39,1.26,3.26.88,4.88,1.32,9,2.43,16.56,7,22.35,14.19a32.78,32.78,0,0,0,21.79,12.39c17.09,2.56,32.21,17.62,34.82,34.74A33.55,33.55,0,0,0,330.24,92.3a42.74,42.74,0,0,1,12.89,48.4,33,33,0,0,0,0,24.35,42.26,42.26,0,0,1-11.92,47.35c-7.49,6.43-12.09,13.77-13.55,23.62-1.28,8.56-5.65,16-11.93,22-2,1.91-2.22,3.16-.81,5.57q22.94,39.4,45.63,78.95a15,15,0,0,1,1.89,4c1.37,6.09-3.68,10.56-10,8.88-12.62-3.33-25.27-6.59-37.81-10.22-3.24-.94-3.91.1-4.61,2.83-3.15,12.28-6.52,24.51-9.73,36.78-1,3.68-2.76,6.46-6.78,7s-6.44-1.7-8.35-5q-24.76-43.06-49.62-86.09a6.11,6.11,0,0,0-5.15-3.52,40.18,40.18,0,0,1-8.94-2.53,29.52,29.52,0,0,0-21.18,0c-3.26,1.23-6.54,2.47-10.05,2.69-2.07.13-2.58,1.67-3.37,3.05l-49.35,85.44c-.25.43-.52.85-.75,1.29-1.73,3.28-4.3,5.19-8.15,4.71s-5.76-3.11-6.7-6.62c-3.28-12.25-6.64-24.48-9.74-36.77-.77-3.07-1.53-4.17-5-3.15-12.3,3.57-24.73,6.66-37.07,10.06-3.62,1-6.76.65-9.09-2.4s-1.89-6.17,0-9.4C66.3,317,81.55,290.42,97,263.94c1.48-2.54,1.25-3.82-.88-5.82a41.89,41.89,0,0,1-12.69-24.81c-1.16-7.62-4.51-14-10.64-18.69A44,44,0,0,1,59.1,163.16c2.83-6.81,2.5-13.86,0-20.83-7.26-20.23-2.49-37.72,14.08-51.61A28.67,28.67,0,0,0,83.35,72.55c3-19.45,17.1-33.76,36.47-37a30.6,30.6,0,0,0,19.63-11.21c7-8.68,15.93-14.19,27.07-15.9m83.25,264.07a46.47,46.47,0,0,1,29.94-17.38c12.65-2,21.31-11.14,23.43-23.89A46.34,46.34,0,0,1,320,202.19c10.15-8.4,13.32-20,8.78-32.27a47.52,47.52,0,0,1,.05-34.28c4.47-12,1.25-24-8.62-32a46.26,46.26,0,0,1-17.14-30.07C301.34,62.22,292,52.42,280.69,50.71a48,48,0,0,1-31.26-17.92,27.08,27.08,0,0,0-30.86-8.17c-11.89,4.52-23.5,4.71-35.32,0A25.18,25.18,0,0,0,170,23.16a28.6,28.6,0,0,0-18.69,10.62,45.05,45.05,0,0,1-29.09,16.75,28,28,0,0,0-23.85,24A45.17,45.17,0,0,1,82.16,103c-10.94,9.25-13.85,20.43-8.9,33.91,3.87,10.5,4.22,21.05.06,31.41a29.46,29.46,0,0,0,9.35,34.86c8.93,7,13.91,16.42,15.65,27.61,2,13,11.34,22.47,24.32,24.47a44.11,44.11,0,0,1,28,15.77c9.55,11.37,20.51,14.27,34.46,9.26,10.64-3.82,21.21-4,31.77.18a30.65,30.65,0,0,0,11.31,2.17C236.87,282.51,244.26,279.31,249.77,272.52Zm38.34,61.73c1.49-5.5,5-7.62,10.3-6.25,6.38,1.63,12.71,3.49,19.11,5,3.61.85,7.1,2.51,11.39,2.48-.9-1.64-1.52-2.83-2.19-4-11.38-19.74-22.86-39.43-34.07-59.26-1.84-3.25-3.43-4.62-7-2.81-1.38.69-3.15.64-4.74.91-7.15,1.23-13.23,4.36-17.82,10.07-5.52,6.85-12.16,12.16-20.58,15-1.86.62-1.9,1.26-1,2.81,3.82,6.43,7.52,12.92,11.25,19.4,8.9,15.41,17.8,30.82,27.19,47.1C282.85,353.86,285.46,344.05,288.11,334.25Zm-211.39.89q13.48-3.66,27-7.15c5.15-1.33,8.78.77,10.22,5.91,1.11,3.94,2.06,7.93,3.12,11.89,1.63,6,3.29,12,5.14,18.81,13.43-23.27,26.4-45.74,39.46-68.35a45.81,45.81,0,0,1-23.05-15.84c-4.35-5.5-10.22-8.61-17-10a43.1,43.1,0,0,1-6.56-1.35c-2.5-.93-3.56-.18-4.83,2.05q-18.42,32.21-37.1,64.33A7.23,7.23,0,0,0,76.72,335.14Zm111.69-98.38c-47.66-7-79.57-55.28-67.13-102,7-26.42,23.44-44.82,48.44-55.7,5.05-2.2,6.95-6.14,5.12-10.36s-6-5.63-11-3.64c-42.72,17.14-68.17,64.82-58.49,109.59,11.22,51.94,58.85,84.85,111.33,76.93,43.78-6.61,78.76-44.37,81.7-88.72,2-30.48-8-56.63-29.86-78.06a90.33,90.33,0,0,0-31.6-20.2,7.51,7.51,0,0,0-6.25,13.63,34.59,34.59,0,0,0,3.4,1.53c34,14.73,54.11,50.86,48.66,87.23a82.88,82.88,0,0,1-82.11,70.76C196.87,237.39,192.63,237.38,188.41,236.76ZM201,73a7.67,7.67,0,0,0,7.54-7.68,7.5,7.5,0,0,0-15-.09A7.69,7.69,0,0,0,201,73Zm-2.16,82.17c-4.51,4.5-8.31,4.44-12.88-.1-4.08-4-8.18-8.07-12.16-12.22-1.29-1.34-2.08-1.58-3.47-.08-2.88,3.12-5.85,6.17-9,9-1.86,1.65-1.4,2.56.12,4.06,8.37,8.23,16.64,16.57,25,24.86,2,1.94,3.84,5.19,6,5.36,2.49.18,4.23-3.39,6.23-5.38q21-20.86,41.86-41.88c.83-.84,3-1.49,1-3.45-3.81-3.76-7.49-7.64-11.28-11.54C219.53,134.47,209.22,144.83,198.86,155.15Z"/></svg>