<svg id="Capa_1" data-name="Capa 1" xmlns="http://www.w3.org/2000/svg" viewBox="0 0 400 400"><defs><style>.cls-1{fill:#a68f61;}</style></defs><title>iconos valores</title><path class="cls-1" d="M311.73,11c10.91,2.26,20.7,7.39,30.78,11.81,5.62,2.47,11.36,4.06,17.76,2.54,5.15-1.22,9,1.32,10.75,6.42,16.14,45.83,6.14,97.24-35.85,130.36-3.14,2.47-6.35,4.87-9.7,7-1.8,1.15-2.24,2.14-1.51,4.19a155.24,155.24,0,0,1-.53,104.43c-.79,2.19-.66,3.56,1.09,5.15,3.13,2.86,6.11,5.91,9,9,4.57,4.84,4.73,11,.06,15.74-10.84,11.07-21.85,22-32.84,32.91-2.78,2.76-6.28,2.76-8.59.28s-2.08-5.62.59-8.31q15.06-15.17,30.26-30.2c1.84-1.82,2.34-2.77.15-4.87-8.46-8.15-16.73-16.5-24.94-24.9-1.58-1.61-2.35-1.73-4-.06q-39.81,40-79.82,79.81c-1.67,1.67-1.57,2.47,0,4q12.7,12.48,25.18,25.19c1.83,1.88,2.73,1.48,4.35-.16,9.65-9.8,19.43-19.46,29.12-29.21,2.19-2.2,4.57-3,7.39-1.5,2.4,1.26,3.11,3.39,2.79,6-.2,1.63-1.27,2.68-2.32,3.73-10.24,10.27-20.45,20.56-30.76,30.75-5.49,5.41-11.56,5.3-17.11-.15-4.47-4.37-8.91-8.77-13.23-13.28a4.39,4.39,0,0,0-4.85-1.48,152.33,152.33,0,0,1-77.32,0,4.39,4.39,0,0,0-4.85,1.45c-4.31,4.53-8.76,8.92-13.22,13.29-5.54,5.43-11.73,5.58-17.14.19q-41.55-41.45-83-83c-5.26-5.28-5.14-11.47.12-16.84,2.71-2.76,5.39-5.57,8.25-8.17,1.8-1.63,2.18-3,1.33-5.48C.5,195.92,41.1,108.37,122.21,78c35.9-13.41,72.2-13,108.31,0,1.37.5,2.64,1.42,4.43,1.23a136.5,136.5,0,0,1,1.72-26.79A124,124,0,0,1,242,31.91c1.86-5.18,5.77-7.77,11.08-6.52,5.85,1.37,11.12.09,16.34-2.12,6.87-2.9,13.64-6.05,20.54-8.86,3.4-1.39,7-2.27,10.51-3.38ZM276.89,273.81c1.15-1.14.75-1.73-.2-2.63-2.09-2-4.16-4-6.08-6.11-1.23-1.36-2-1.32-3.25,0-2.56,2.74-5.22,5.39-7.95,7.95s-5.93,2.63-8.29.22-2.21-5.4.1-8.05c.74-.84,1.57-1.6,2.37-2.4,12.46-12.46,25-24.87,37.36-37.4,4.58-4.63,4.95-10.91,1.24-15.18s-9.76-4.65-15.07-.62a6.52,6.52,0,0,1-3.26,1.68c-2.45.26-4.49-.43-5.74-2.64-1.57-2.76-.72-5.14,1.14-7.52,3.78-4.86,3.56-10.25-.36-14.22s-9.6-4.09-14.28-.55c-3.62,2.73-6.26,2.87-8.65.45s-2.23-5,.48-8.67c3.49-4.69,3.24-10.53-.61-14.27s-9.52-3.89-14.27-.29c-3.28,2.49-6.06,2.63-8.38.42s-2.3-5.25.29-8.68c3.71-4.93,3.45-10.65-.68-14.5s-10.35-3.82-14.81.51c-5.37,5.22-10.57,10.64-16,15.86-1.4,1.36-1.52,2.14,0,3.51a98,98,0,0,1,7.38,7.46,21.67,21.67,0,0,1-11.14,35.54c-2.34.58-2.78,1.38-2.23,3.53.77,3,.11,6-.77,8.85-3.53,11.61-15.19,17.82-27.31,14.62-1.16-.31-2.14-1.54-3.1.8-5.55,13.61-16,18.34-29.68,13.6-1.53-.53-1.91-.35-2.57,1.23-5.18,12.51-16.81,17.57-29.29,12.72-1.75-.68-2.65-.47-3.86.77-3.91,4-7.83,8.07-12,11.89-1.82,1.69-1.38,2.53.15,4.06q26.87,26.69,53.55,53.55c1.71,1.73,2.59,1.77,4.31,0,8.92-9.11,18-18,27-27.1,11.28-11.41,25-16.74,40.9-15.62,10.42.72,20.39.21,29.77-5,2.83-1.57,5.85-.29,7.32,2.43a5.36,5.36,0,0,1-2.07,7.46,51.84,51.84,0,0,1-6.35,3.11c-9.57,4.27-19.7,3.85-29.82,3.44-5.24-.2-10.42,0-15,1.82L219,331.67C238,312.65,257.42,293.21,276.89,273.81Zm36.24-97.14c-3.6,2.13-7.07,3.21-10.81,1.2-2-1.06-3.95-2.12-5.9-3.24-30.86-17.81-52.11-42.92-59.34-78.53a5.68,5.68,0,0,0-3.85-4.75c-26.71-11.12-54.34-14.55-82.78-9.12-45.68,8.73-79.71,33.88-102,74.51-14.28,26-19.29,54-16.32,83.43a129.72,129.72,0,0,0,7.18,31.77c2.64-2.72,4.93-5.14,7.29-7.51,7.08-7.09,12.05-7.28,19.24-.5,1.49,1.41,2.21,1.23,3.49-.1,3.72-3.88,7.5-7.71,11.41-11.39,1.52-1.44,1.6-2.28,0-3.77-4.58-4.43-9.23-8.82-13.45-13.59-10.11-11.42-5.53-29.66,8.81-34.76,2.94-1,2.93-2.12,2.31-4.59a21.41,21.41,0,0,1,18.51-26.46c2.6-.28,3.77-.94,4-3.88a21.21,21.21,0,0,1,20-19.24c2.17-.14,2.49-.79,2.66-2.77a21.61,21.61,0,0,1,23.83-20,5.34,5.34,0,0,0,3.55-.66,14.77,14.77,0,0,1,7.91-1.85q13.5-.06,27,0c6.67,0,12.55,2.14,17,7.26,1.4,1.63,2.33,1,3.75.42,14.26-6.15,29.59,3,30.74,18.5.15,2,.85,2.35,2.59,2.58,11.88,1.56,18.71,8.14,20.28,19.87.34,2.47,1.21,2.79,3.37,3,9.18.89,17.09,7.22,18.71,16.24.9,5,2.73,6.39,7.6,7.57,16.21,3.89,21.62,23.65,10.2,36C295,237.81,289.37,243,284,248.48c-2.25,2.29-6.37,4.4-6.18,7s4.1,4.63,6.2,7.08c1.46,1.72,2.33,1.73,4.07.13,5.46-5,11.28-4.8,16.56.42,2.81,2.79,5.42,5.78,8.68,9.29C324.05,239.61,323.9,208.22,313.13,176.67ZM361.85,39.93c-.61-2.09-1.42-3-3.84-2.72-5.15.68-10.12-.33-15-2-8.26-2.82-15.87-7.1-24-10.24-8.31-3.21-16.5-3.42-24.7,0-5.74,2.4-11.39,5-17.07,7.49-7.24,3.21-14.63,5.78-22.73,4.75-2-.26-2.45.7-3,2.35a109.45,109.45,0,0,0-3.14,55.05c5.71,28.54,22,49.92,46.14,65.33,15,9.62,9.19,9.7,24.08,0,31-20.13,47.92-48.58,48.2-86.1A115,115,0,0,0,361.85,39.93ZM138.6,352.79q-40.27-40.26-80.5-80.55c-1.43-1.44-2.18-1.18-3.45.11Q41.89,285.28,29,298.05c-1.27,1.26-1.67,2-.14,3.51Q69,341.61,109.09,381.8c1.29,1.29,2.06,1.63,3.54.12,8.58-8.73,17.27-17.34,25.92-26,.51-.52.95-1.11,1.61-1.88A18.89,18.89,0,0,1,138.6,352.79Zm68.57,12.38c-8.6-9.46-8.64-13.21.57-22.1,2.56-2.47,2-3.62-.18-5.74-9.64-9.44-19.24-18.93-28.59-28.65-2.56-2.67-4.07-2.84-6.64-.2-8.29,8.49-16.78,16.79-25.18,25.17-5.74,5.72-5.74,5.73-.17,11.38.44.44.89.88,1.3,1.35,4.6,5.15,4.53,11-.1,16.1-1.12,1.22-2.71,2.1-3.3,3.88,28.22,4.48,44.65,4.42,62.82-.25A4.49,4.49,0,0,0,207.17,365.17Zm-36.81-164.3q-19.5-19.45-39-38.94a20.36,20.36,0,0,0-3.11-2.68,10.43,10.43,0,0,0-15.84,6c-1.15,4.55.66,8.19,3.91,11.42,13.13,13,26.17,26.12,39.25,39.19a21.18,21.18,0,0,0,2.83,2.44,9.82,9.82,0,0,0,10.92.55c3.56-2,5.39-5.07,5.32-9.64C174.86,205.91,172.81,203.31,170.36,200.87Zm-80.24-14.3c-2,4.46-1,8.59,2.4,12q16.74,16.88,33.63,33.61c4.45,4.39,11,4.45,15.12.45,4.34-4.25,4.32-10.57-.38-15.33-11-11.2-22.2-22.27-33.34-33.37a10.37,10.37,0,0,0-8-3.48A9.94,9.94,0,0,0,90.12,186.57Zm48.71-33.34c11.77,11.91,23.66,23.7,35.52,35.53a15.09,15.09,0,0,0,2.56,2.17c3.8,2.4,7.83,2.72,11.67.4s5.29-6.17,4.66-10.64c-.46-3.31-3-5.28-4.9-7.75-5-6.6-11.18-8.93-19.58-8.43-11.44.68-21.11-7.33-24.4-18.36-1.08-3.63-1-7.38-1.3-11.11C134.34,137.61,132.24,146.55,138.83,153.23ZM74.27,216.38c-2,4.1-1.25,8.38,2.26,12q8.75,9,17.72,17.72c4.65,4.51,10.76,4.57,15,.38s4.26-10.49-.13-15c-5.87-6.11-11.94-12-18-18a9.24,9.24,0,0,0-6.75-3C79.36,210.38,76.19,212.48,74.27,216.38ZM184.15,149c2.81-3.15,5.95-6,8.95-9s2.9-3.76-.66-6a7.92,7.92,0,0,0-4.14-1.5q-15.13,0-30.28-.06c-1.55,0-2.81.62-3,2.19-1.1,7.9,1.29,16,11.09,18.28,2.45.58,4.95.48,8.35.47C178.23,154.73,181.25,152.23,184.15,149Zm78.4-54.43c4.88,25.19,27,40.8,52.31,36.36,15.6-2.74,26.46-12.1,32.83-26.58a5.6,5.6,0,0,0-2.89-7.77c-3-1.25-5.75-.12-7.45,3.08-.41.76-.7,1.6-1.09,2.38a33.33,33.33,0,0,1-36.63,17.67c-15.49-3.3-26.35-17.13-26.19-33.34.15-15,11.5-28.7,26.34-31.73A33.27,33.27,0,0,1,337.25,74.5,22.16,22.16,0,0,0,339,78.61,5.22,5.22,0,0,0,345.14,81a5.3,5.3,0,0,0,4.16-5.48,12,12,0,0,0-1.24-4.65,44.56,44.56,0,0,0-50.14-27.48C277.4,47.18,262.05,65.87,262,88.16A49.58,49.58,0,0,0,262.55,94.54Zm29.57-15.6c-2.69-2.58-6-2.53-8.32-.17a5.63,5.63,0,0,0,.14,8.06c5.2,5.38,10.51,10.67,15.87,15.9,2.36,2.3,5.31,2.72,7.73.39q11.18-10.78,22-22a5.39,5.39,0,0,0-.24-7.75c-2.15-2.12-5.21-2.22-7.78-.17a31.29,31.29,0,0,0-2.42,2.33L304,90.78C299.89,86.69,296.08,82.74,292.12,78.94Z"/></svg>