<svg id="Capa_1" data-name="Capa 1" xmlns="http://www.w3.org/2000/svg" viewBox="0 0 400 400"><defs><style>.cls-1{fill:#a68f61;}</style></defs><title>iconos valores</title><path class="cls-1" d="M169.46,145.31a32.22,32.22,0,1,0,32.08-32.46A32.57,32.57,0,0,0,169.46,145.31Z"/><path class="cls-1" d="M162.26,345.84a145.41,145.41,0,0,1-66.64-39.26C77.43,288,65.23,266,58.36,241c-1.24-4.52-4.55-6.52-8.33-5.45s-5.31,4.63-4.12,9.08c9.12,34,27.42,62,54.66,84.11a156.65,156.65,0,0,0,59.69,30.2c5.12,1.35,9.06-1.17,9.17-5.82C169.52,349.31,167.47,347.26,162.26,345.84Z"/><path class="cls-1" d="M344.45,242.43a144.71,144.71,0,0,1-32.55,59.69c-19.6,21.78-43.65,36.37-71.89,44.14-4.87,1.34-7,4.48-6,8.38s4.63,5.43,9.38,4.15c33.81-9.11,61.7-27.4,83.77-54.49a157.79,157.79,0,0,0,30.39-60.06c1.31-5-1.52-8.94-6.22-8.88C347.77,235.4,345.83,237.36,344.45,242.43Z"/><path class="cls-1" d="M58.93,163.76c8.75-31.66,26.16-57.54,52-77.75a142.1,142.1,0,0,1,51.71-25.72c5.32-1.4,7.75-4.68,6.65-8.76s-4.71-5.46-10.19-3.93a159.75,159.75,0,0,0-83.74,55.28A157.89,157.89,0,0,0,45.76,162c-1.3,4.94,1.57,8.94,7.51,8.84C56.59,170.7,57.92,167.41,58.93,163.76Z"/><path class="cls-1" d="M357.44,161.62c-9.13-34-27.46-62-54.68-84.13a157.86,157.86,0,0,0-60.09-30.33c-5.21-1.37-9.49,2.19-8.7,7.21.67,4.26,4.14,5.06,7.56,6.07q66.71,19.73,95.73,83a162.09,162.09,0,0,1,7.93,22.65c1,3.6,3.68,5.18,7.37,4.76,3.12-.36,5.46-3.24,5.45-7C357.91,163.41,357.68,162.51,357.44,161.62Z"/><path class="cls-1" d="M221,28.83a19.33,19.33,0,0,0-38.66,0q-.09,19.51,0,39a19.33,19.33,0,0,0,38.66,0c.06-6.44,0-12.88,0-19.32S221.07,35.4,221,28.83Z"/><path class="cls-1" d="M66.9,222.43a19.33,19.33,0,0,0-.12-38.64q-19.92-.14-39.84,0a19.33,19.33,0,0,0,.11,38.64c6.58.08,13.15,0,19.73,0S60.19,222.52,66.9,222.43Z"/><path class="cls-1" d="M376.14,222.44a19.33,19.33,0,0,0,0-38.65q-19.73-.12-39.45,0a19.33,19.33,0,0,0,0,38.65c6.57.07,13.15,0,19.72,0S369.57,222.51,376.14,222.44Z"/><path class="cls-1" d="M221,338.37a19.33,19.33,0,0,0-38.66-.06q-.09,19.53,0,39.05a19.33,19.33,0,0,0,38.66.06c.06-6.44,0-12.88,0-19.32S221.07,345,221,338.37Z"/><path class="cls-1" d="M124.3,259.12c-.23-10.6-.35-21.14,4-31.21,8-18.38,26.94-31.25,46.37-31.29a8.87,8.87,0,0,1,6.79,2.76c6,6.13,12.19,12.12,18.17,18.29,1.61,1.67,2.5,1.62,4.08,0,5.21-5.42,10.92-10.39,15.81-16.08,3.95-4.59,8.53-5.47,14-4.74C260,200.37,279,222,279.06,248.69c0,8.6-.08,17.19,0,25.79a8.05,8.05,0,0,1-3.61,7.13q-38.79,28.89-86.88,24c-22.4-2.24-42.43-10.42-60.47-23.76a8.48,8.48,0,0,1-3.89-7.8C124.45,269.07,124.3,264.09,124.3,259.12Z"/><path class="cls-1" d="M201.56,99.94a45.14,45.14,0,1,0,45.25,45.12A45,45,0,0,0,201.56,99.94Z"/><path class="cls-1" d="M137.13,268.84c-.2,2.66.84,4.06,3,5.48a107.66,107.66,0,0,0,52.74,18.54c26.11,2.06,49.86-4.47,71.43-19.22a3.76,3.76,0,0,0,2-3.55c-.13-7.25.17-14.51-.13-21.75-.82-20.35-14.28-35.55-33.42-38.3a4.65,4.65,0,0,0-4.54,1.55q-10.31,10.47-20.76,20.82c-4.14,4.1-7.27,4.09-11.39,0Q185.53,222,175.2,211.6a4.54,4.54,0,0,0-4.53-1.57c-15.35,2.62-25.71,11.15-31.19,25.69-2.73,7.23-2.28,14.76-2.28,22.25C137.2,261.6,137.4,265.24,137.13,268.84Z"/><path class="cls-1" d="M208.11,30.11c-.05-4.41-2.59-7.37-6.23-7.51s-6.6,3-6.63,7.51q-.09,18.14,0,36.27c0,4.65,2.66,7.72,6.43,7.72s6.39-3.07,6.43-7.72c.06-6,0-12.09,0-18.13S208.18,36.16,208.11,30.11Z"/><path class="cls-1" d="M65.2,209.54c4.38-.06,7.36-2.64,7.47-6.28s-3-6.56-7.56-6.58q-18.13-.08-36.27,0c-4.64,0-7.71,2.7-7.67,6.47s3.09,6.35,7.76,6.4c6,0,12.09,0,18.14,0S59.16,209.62,65.2,209.54Z"/><path class="cls-1" d="M338.32,196.68c-4.63,0-7.69,2.73-7.63,6.51s3,6.32,7.39,6.35q18.35.09,36.68,0c4.36,0,7.34-2.68,7.43-6.31s-3-6.5-7.6-6.55c-6-.07-12.09,0-18.14,0S344.36,196.62,338.32,196.68Z"/><path class="cls-1" d="M195.24,375.6c0,4.95,2.64,8.1,6.54,8s6.32-3.14,6.33-7.82q.07-17.94,0-35.87c0-4.68-2.58-7.74-6.33-7.82-3.91-.07-6.5,3.07-6.54,8,0,5.77,0,11.55,0,17.33C195.23,363.51,195.2,369.56,195.24,375.6Z"/></svg>