<svg id="Capa_1" data-name="Capa 1" xmlns="http://www.w3.org/2000/svg" viewBox="0 0 400 400"><defs><style>.cls-1{fill:#a68f61;}</style></defs><title>iconos valores</title><path class="cls-1" d="M11.42,219c2.3-2.72,5.3-3.91,8.77-4.48,4.73-.78,9.37-2.07,14.09-2.85,2.76-.46,2.13-1.41,1-3-3.13-4.43-6.18-8.91-9.22-13.4s-2.93-6.89.86-10.73q8.34-8.41,16.76-16.75c3.57-3.53,6-3.77,10.13-1,5.3,3.57,10.54,7.23,16.21,11.13,1.25-5.73,2.54-11.07,3.56-16.47.89-4.68,1.73-9.19,8-9.12,1.41,0,.92-1.2,1-1.94a115.29,115.29,0,0,1,9.15-38.18c14.48-33,38.81-55.53,73-67.16a105.26,105.26,0,0,1,44-5.44A11.35,11.35,0,0,0,217.81,37c4.43-3.73,9.2-7,13.87-10.47s7.6-2.92,11,1.56q6.6,8.69,13.11,17.45c1.83,2.47,4,4,7.2,3.29s4.45-3.1,4.86-6.18c.92-6.83,2-13.64,2.92-20.47,1-7,3.51-8.84,10.42-7.81,11,1.64,21.94,3.14,32.91,4.65,5.32.73,7.46,3,6.9,8.39-.68,6.49-1.85,12.92-2.66,19.39-.46,3.71-1.75,7.86,2.49,10.33,4,2.34,7-.42,9.94-2.65,5.22-3.93,10.42-7.89,15.7-11.73,4.29-3.12,7.3-2.78,10.49,1.4q10.78,14.1,21.31,28.39c3.2,4.32,2.66,7.35-1.72,10.7Q368,89.74,359.39,96.07c-2.73,2-4.43,4.38-3.5,7.84s3.71,4.29,6.79,4.71q10.8,1.48,21.58,3c4.53.66,6.92,3.33,6.34,7.87q-2.4,18.5-5.27,36.93c-.58,3.76-3.74,5.88-7.61,5.37q-11.34-1.5-22.65-3.31c-3.1-.5-5.71-.06-7.42,2.73s-1,5.37.83,7.86q6.6,8.68,13.1,17.44c3.6,4.85,3.16,7.9-1.71,11.56q-13.44,10.13-26.93,20.18c-5.2,3.87-8.13,3.37-12.07-1.87-4.08-5.42-8.19-10.81-12.23-16.26-1.94-2.61-4.09-4.75-7.67-3.84-3.76,1-4.59,4.1-5.06,7.4-1,6.94-2,13.89-3,20.83-.8,5.4-3.42,7.22-9,6.44q-16.83-2.37-33.66-4.67c-6-.82-8-3.56-7.13-9.61,1-6.94,2-13.89,3-20.83.46-3.15,0-6-2.9-7.78s-5.38-.77-7.83,1.09c-5.7,4.32-11.43,8.58-17.17,12.85-4.9,3.64-7.94,3.27-11.61-1.57Q196.25,186.73,186,172.93c-3.35-4.49-2.9-7.63,1.59-11.06,5.48-4.19,11-8.3,16.58-12.41,2.69-2,5.14-4.2,4.19-7.91s-3.9-4.59-7.35-5c-6.72-.79-13.41-1.92-20.11-2.83-5.75-.78-7.93-3.12-7.21-8.89q2.15-17.22,4.79-34.38c.92-6,3.7-7.77,9.89-6.86,7.07,1,14.15,2,21.2,3.07,3,.46,5.42-.26,7-2.88s.94-5.17-.83-7.53q-6.57-8.72-13.07-17.47c-.87-1.18-2.17-2.55-2.12-3.78.12-3.21-1.49-3.1-3.84-2.93-45.85,3.27-78.38,26.05-95.13,68.58C87.45,156.52,93.19,191,115.79,222.37c7.59,10.54,17.22,18.95,28,26s17.52,16.69,19.78,29.43a51.34,51.34,0,0,1,.49,8.48c.07,7.4-.06,14.81,0,22.22.13,8.54,5.13,13.52,13.64,13.55q24.07.07,48.15,0c8.74,0,13.64-5,13.66-13.83,0-7.65-.1-15.31,0-23,.26-14.76,6.33-26.59,18.26-35.35,4.57-3.36,9.39-6.38,13.58-10.23,1.42-1.32,2.41-1.17,3.42.37a12.17,12.17,0,0,0,1.2,1.4c1.75,2,5.05,4.21,4.89,6.1-.21,2.63-3.93,4-6.19,5.89-2.76,2.26-5.78,4.2-8.72,6.23-9.25,6.37-13.59,15.35-13.81,26.39-.15,7.9,0,15.8-.05,23.7A24,24,0,0,1,241.78,330a4.56,4.56,0,0,0-2.18,4.23c.09,10.37-.2,20.75.1,31.11.4,13.43-10.15,24.82-21.22,25.7-.14,0-.26.36-.39.56h-3a185.47,185.47,0,0,0-26.67,0H184c-13.36-2-21.34-15.14-21-26.51.26-9.62,0-19.24.1-28.86a7.59,7.59,0,0,0-3.15-6.6c-6.19-5-9.16-11.8-9.45-19.7-.19-4.87,0-9.76-.11-15.37-2.59,2.34-4.41,4.32-6.35,6.19-4.55,4.41-7.65,4.75-12.74,1.18-3.54-2.48-7.15-4.84-10.72-7.28-3.31-2.26-3.32-2.25-4.33,1.8s-1.62,8-2.51,11.95C112.2,315.16,109.93,317,103,317s-13.56,0-20.34,0c-5.7,0-8-1.74-9.51-7.3-1.1-4.05-1.64-8.22-2.6-12.3-1.25-5.31-1.24-5.3-5.53-2.2-3.5,2.53-7.11,4.9-10.74,7.23-4.38,2.81-7.3,2.6-11-.95Q34.55,293,26.06,284.21c-3.6-3.71-3.87-6.63-1.1-10.95,2.67-4.15,5.32-8.31,8.32-12.23,1.56-2,1.41-3.21-1.36-3.7-4.49-.81-8.92-1.9-13.38-2.85-3.07-.66-6-1.74-7.12-5.13Zm203.71,172.6c-.6-.81-1.48-.74-2.33-.74h-22c-.86,0-1.73-.07-2.34.74Zm-100.81-223c2.13,19,9.79,35.39,22.48,49.56,9.92,11.07,22.41,18.16,35.83,24.15,11.71,5.23,18.67,14.74,21.89,27.19.75,2.89-.88,7.06,1.86,8.43,2.58,1.28,6.28.32,9.49.34.37,0,.74,0,1.11,0,1.21,0,1.3-.62,1.24-1.65-.8-13.95-5.87-26-15.79-35.95-6.5-6.53-14.81-9.92-22.85-13.94-27.61-13.81-42.23-36.53-43-67.16-.61-24,9.27-43.92,27.77-59.48,2.31-2,6.82-2.81,6.54-6-.26-3-3.29-5.61-4.91-8.5-.92-1.63-1.69-1.17-2.84-.37-25.68,17.74-38.4,42.44-39.51,73.36A94.49,94.49,0,0,0,114.32,168.57ZM77.51,76.42c-11.3-8.1-22.6-16.21-34-24.22-2.64-1.86-5.34-5.75-8.06-4.86-2.57.84-4,5-6,7.63-1.05,1.36-1,2.09.5,3.17C43.51,67.73,57,77.44,70.53,87.08c.63.44,1.47,1.53,2.2.6,2.36-3,4.52-6.14,6.73-9.18C79.39,77.18,78.25,77,77.51,76.42ZM20.14,130.66c.35,2.46,1.39,2.65,3.46,2.12,12.85-3.27,25.73-6.43,38.58-9.7,10.17-2.58,10.16-2.62,6.49-12.77a1.61,1.61,0,0,1-.1-.36c-.1-1.44-1-1.44-2.08-1.17q-23.4,5.88-46.8,11.71c-1.13.28-1.87.64-1.62,2A76.45,76.45,0,0,1,20.14,130.66Zm86.53-70.81c-3.27-12.73-6.52-25.45-9.84-38.16C96,18.63,96.37,14.11,94,13S88.05,14,85,14.61c-2.44.45-2.71,1.62-2.11,3.85,3.37,12.7,6.58,25.43,9.88,38.15,2.69,10.34,2.7,10.32,12.79,6.71,1-.37,1.87-.71,1.69-1.3C106.9,60.8,106.8,60.32,106.67,59.85Zm248,249.33q-14-11.73-28.06-23.42c-2.44-2-5.2-5.66-7.42-5.39s-4.11,4.49-6.36,6.75c-1.85,1.85-1.24,2.85.51,4.28,9.42,7.72,18.75,15.55,28.14,23.31,2.43,2,4.89,5.85,7.4,5.41s4.27-4.38,6.35-6.79c.55-.65,1-1.34,1.67-2.13C356.09,310.48,355.4,309.8,354.66,309.18Zm1-49.64c3.16-.08,7.3,1.38,9.23-.59s.26-6.1.62-9.25c.3-2.74-.85-3.19-3.32-3.16-10.47.13-20.93.06-31.4.06-9.76,0-9.69,0-9.62,9.87,0,2.37.59,3.22,3.09,3.15,6.4-.17,12.81-.06,19.21-.06C347.57,259.56,351.64,259.64,355.7,259.54Zm-72.15,72c.09,3.16-1.43,7.48.67,9.15s6.13.3,9.3.58c2.58.23,3-.84,3-3.13-.1-10.46,0-20.93,0-31.39,0-10.05,0-9.94-10-9.86-2.62,0-3,1-3,3.26.12,6.28,0,12.56,0,18.84C283.52,323.15,283.43,327.34,283.55,331.52Zm-77.83-21.58c2.15-.07,2.73-.76,2.67-2.81a122.75,122.75,0,0,1,0-12.58c.24-3.17-.8-4.14-3.85-3.76-2.9.37-6.73-1.2-8.55.59s-.33,5.63-.57,8C195.45,310.34,195.45,310.28,205.72,309.94ZM217.05,53.37c-1.7,1.23-1,2.05-.14,3.23,3.46,4.64,7.12,9.16,10.26,14,4.36,6.74,4.2,13.81-.17,20.48-4.49,6.87-11.19,9.31-19.2,8.3-4.88-.61-9.79-1.16-14.61-2.12-2.44-.48-3,.38-3.23,2.43-.87,6.59-1.77,13.18-2.8,19.75-.29,1.8.19,2.34,2,2.55,5,.6,10,1.44,15,2.14,8.57,1.18,14.45,5.87,16.55,14.17,2.06,8.11-.63,15.06-7.4,20.22-3.92,3-7.82,6-11.85,8.85-1.73,1.22-2.26,2.07-.75,4Q206.76,179,212.43,187c1.4,2,2.36,1.76,4,.46,4.38-3.41,8.75-6.85,13.37-9.91a17.83,17.83,0,0,1,19.9-.52c6.43,3.77,9.79,9.68,9.15,17.29-.47,5.52-1.44,11-2.07,16.49-.15,1.35-1.32,3.3,1.45,3.68q10.25,1.41,20.47,2.95c1.61.24,2.45,0,2.66-1.92.54-4.76,1.36-9.5,1.94-14.27,1.07-8.75,6.26-15.08,14.35-17.35,7.49-2.1,15.16.75,20.46,7.67q4.62,6,9.08,12.14c1,1.31,1.57,1.76,3.12.54,5.42-4.26,11-8.39,16.56-12.44,1.45-1,1.54-1.69.45-3.09-3.47-4.48-7-9-10.13-13.66-4.31-6.36-4.72-13.18-.9-19.86,3.72-6.49,9.48-9.85,17.11-9.58a122.77,122.77,0,0,1,16.1,2.14c2.76.46,4.45.25,4.75-3.26.54-6.13,1.46-12.23,2.5-18.29.39-2.26,0-2.82-2.33-3.09-5.61-.66-11.2-1.58-16.75-2.65-7.51-1.46-12.27-6.28-14.24-13.43-2.07-7.52,0-14.2,6.08-19.26,4.35-3.64,8.94-7,13.52-10.32,1.52-1.11,1.82-1.8.56-3.41q-6.27-8-12.2-16.28c-1.2-1.66-2-1.47-3.46-.36-4.59,3.52-9.14,7.15-14,10.28-6.6,4.26-13.59,4.23-20.17,0S304.24,57,305.24,49c.67-5.37,1.49-10.73,2.3-16.09.18-1.23.33-2-1.39-2.19-6.84-.86-13.66-1.89-20.47-2.92-1.94-.29-3,.11-3.17,2.32-.37,4.05-1,8.06-1.54,12.09-1.31,10.34-6.17,16.75-14.41,19-8.44,2.26-15.41-.69-21.86-9.24l-9.27-12.29C229.28,44.26,223.23,48.89,217.05,53.37ZM82.66,179.84c-2.76,10.52-11.66,14-20.69,8-3.39-2.25-6.77-4.52-10-6.92-1.42-1-2.33-1.24-3.65.21-2.58,2.83-5.3,5.53-8.12,8.11-1.43,1.31-1.32,2.24-.26,3.68,2.48,3.38,4.84,6.84,7.14,10.34,5.69,8.65,2.14,17.77-7.87,20.28-1.31.33-2.66.52-3.95.9-3.63,1.07-8.91.22-10.61,2.94S24.08,235,24,238.92c0,.25,0,.5,0,.74-.16,1.51.43,2.1,2,2.38,4.35.78,8.67,1.76,13,2.79,10.23,2.46,13.8,11.66,8,20.46-2.25,3.39-4.52,6.76-6.93,10-1.13,1.53-1.34,2.55.25,4a103.82,103.82,0,0,1,7.85,7.85c1.41,1.56,2.4,1.41,4,.26,3.57-2.62,7.2-5.18,11-7.52,7.91-4.95,17.13-1.21,19.46,7.81.76,3,1.32,6,2,9,1.51,6.76,1.52,6.76,8.4,6.76,7.57,0,7.58,0,9.21-7.21.43-1.92.85-3.84,1.22-5.77,2.44-12.56,11.75-16.38,22.33-9.15,3.55,2.43,7.2,6.87,10.65,6.72,3.76-.16,6.45-5.51,9.63-8.58,4.6-4.45,4.55-4.5,1.1-10-.19-.32-.4-.63-.59-.94-4.58-7.45-12.63-10.84-19-16.18-1.35-1.14-1.55.63-1.9,1.24-9,15.59-29.82,23-47.6,15.34-22.88-9.82-30.24-40.52-13.66-59.13a39.43,39.43,0,0,1,24.19-13.17,122,122,0,0,1-4.7-20.13C83.25,178,82.91,178.91,82.66,179.84Zm4.24,78.43c11.68,2.81,23.19-2.35,28.43-12.59,1.08-2.12,1.26-3.46-.61-5.37a101.25,101.25,0,0,1-19.4-27.73c-1.6-3.39-3.71-3.68-6.68-3.06-12.16,2.54-20.11,12.17-20.32,24.62A24.65,24.65,0,0,0,86.9,258.27Zm92.69,102c-1.18,0-2.63-.64-2.94,1.64-1.39,10.18,4.45,17,14.81,17.05,6.65,0,13.31,0,20,0,11,0,15.64-4.79,15.65-15.8,0-2.53-.81-3-3.12-3-7.26.14-14.54.05-21.81.05C194.62,360.22,187.11,360.2,179.59,360.25Zm38.45-13c2.91-.06,6.88,1.34,8.43-.6s.32-5.66.57-8.58c.2-2.37-.52-3.1-3-3.07-12.71.13-25.42.06-38.12.06-9.44,0-9.35,0-9.29,9.4,0,2.31.66,2.91,2.91,2.87,7.4-.13,14.8,0,22.2,0C207.18,347.29,212.61,347.37,218,347.26Zm64.22-275a50.39,50.39,0,1,0,50.13,50.4A50.52,50.52,0,0,0,282.26,72.24Zm-.16,88.08c20.79-.09,37.69-17.42,37.53-38.48-.16-20.18-17.44-37-37.85-36.95a37.87,37.87,0,0,0-37.34,37.84C244.61,143.38,261.67,160.4,282.1,160.32Z"/></svg>