<svg id="Capa_1" data-name="Capa 1" xmlns="http://www.w3.org/2000/svg" viewBox="0 0 400 400"><defs><style>.cls-1{fill:#a68f61;}</style></defs><title>iconos valores</title><path class="cls-1" d="M278.16,203.41c-22.31,0-44.62.06-66.93-.08-2.85,0-3.53.67-3.52,3.52q.15,66.74.07,133.47c0,4.64-1.74,7.18-5.17,7.63a6,6,0,0,1-7-5.72c-.08-1.14,0-2.3,0-3.44q0-65.78.09-131.56c0-3.18-.75-3.91-3.92-3.9q-66.54.16-133.09.07c-5.16,0-7.75-2.16-7.64-6.31a5.84,5.84,0,0,1,5.36-5.88,32.84,32.84,0,0,1,3.44,0q66,0,131.93.08c3.18,0,3.92-.73,3.91-3.91q-.17-66.54-.07-133.09c0-4.83,1.85-7.36,5.53-7.64a5.93,5.93,0,0,1,6.68,5.73c.08,1.14,0,2.29,0,3.44q0,65.77-.08,131.55c0,3.17.72,3.93,3.91,3.92,44.36-.12,88.72-.06,133.08-.12,3.55,0,6.39.83,7.49,4.45,1.31,4.26-1.78,7.8-6.72,7.81-14.53,0-29.06,0-43.59,0Z"/><path class="cls-1" d="M375.59,166.83c1.46-3.11,2.6-5.77,3.94-8.34,1.84-3.54,5.05-4.74,8.25-3.24s4.52,4.82,2.94,8.35c-4.37,9.72-8.77,19.42-13.39,29-2.18,4.54-6.82,5.16-10.37,1.48-6.54-6.78-13-13.69-19.33-20.64-2.89-3.16-2.79-6.62-.1-9.14s6.3-2.12,9.16.74c2,2,3.87,4,5.81,6,.05.05.24,0,.68-.1-.24-5.81-1.74-11.43-3.41-16.92C342.07,96,304.46,57.64,246.33,39.63c-1.68-.52-3.49-.83-4.82-2.15-2.13-2.14-2.7-4.71-1.27-7.31,1.66-3,4.3-4,7.78-3a164.94,164.94,0,0,1,37.69,15.1c47.78,27,77.57,67.24,88.93,121C374.85,164.26,375.16,165.23,375.59,166.83Z"/><path class="cls-1" d="M171.45,23.45c-3.14-1.44-5.67-2.55-8.15-3.76-3.82-1.88-5.2-5.07-3.72-8.4,1.57-3.53,5-4.68,9-2.85,9.22,4.2,18.44,8.42,27.59,12.78,5.48,2.61,6.22,7.07,1.89,11.2Q188.24,41.8,178.24,51c-3.51,3.23-7.12,3.26-9.71.29-2.36-2.7-1.85-6.31,1.35-9.41,1.88-1.82,3.8-3.61,6.36-6-6.61.09-12.08,1.64-17.42,3.26C100.6,56.68,62.11,94.32,44,152.56c-.23.73-.45,1.46-.7,2.17-1.34,3.72-4.23,5.37-7.68,4.39s-5.16-4.2-4.1-8.13a163.82,163.82,0,0,1,15.78-39c26.51-46.36,66-75.33,117.94-87.3C167.08,24.24,168.93,23.94,171.45,23.45Z"/><path class="cls-1" d="M27.81,227.59c-1.49,3.19-2.64,5.85-4,8.42-1.84,3.57-5,4.79-8.21,3.34s-4.6-4.9-2.91-8.66c4.29-9.47,8.61-18.93,13.07-28.32,2.38-5,7-5.69,10.8-1.69,6.35,6.62,12.6,13.34,18.82,20.1,3.11,3.38,3.17,6.81.42,9.44s-6.47,2.12-9.69-1.22a52.53,52.53,0,0,0-6.4-6c13.63,66.26,51.63,111,116.68,131.81.73.23,1.46.42,2.18.66,4.26,1.42,6,4.39,4.85,8-1.12,3.42-4.3,4.94-8.32,3.75C96.32,349.88,56.38,312.26,35,254.86,31.78,246.22,29.78,237.22,27.81,227.59Z"/><path class="cls-1" d="M232.09,371.19c3.06,1.44,5.72,2.58,8.29,3.91,3.58,1.87,4.79,5,3.35,8.21s-4.87,4.62-8.64,2.92c-9.6-4.33-19.17-8.69-28.67-13.23-4.54-2.17-5.28-6.82-1.64-10.34,6.87-6.64,13.87-13.15,20.93-19.59,3-2.72,6.37-2.55,8.86,0s2.21,6.28-.61,9.16c-1.07,1.09-2.23,2.09-3.34,3.14a13.72,13.72,0,0,0-2.71,3.19c28.7-4.29,54.14-15.86,77.22-34.12-1.39-1.21-2.71-2.22-3.87-3.37-4.64-4.64-5.21-8.73-1.68-14.3.93-1.47.65-2.15-.42-3.14-2.33-2.16-4.69-4.32-6.85-6.65-1.39-1.52-2.39-1.11-3.87-.17-27,17.28-60.53,3.42-67.2-27.71-5.06-23.6,12.5-47.71,36.29-51.33,25.69-3.91,53.4,17.33,49.6,49.1a37.92,37.92,0,0,1-5.1,15c-.86,1.43-.95,2.39.46,3.53a32.65,32.65,0,0,1,4.39,4.25c2.53,2.93,4.71,4.53,9.06,2.24s8.44.18,11.47,3.71c2.21,2.58,3.49,2.71,5.71-.32a166.72,166.72,0,0,0,26.11-53c.24-.86.47-1.72.78-2.55,1.35-3.71,4.27-5.36,7.69-4.35s5.13,4.2,4.07,8.15A174.18,174.18,0,0,1,354.11,286a149.06,149.06,0,0,1-12.82,18.93c-1.6,2-1.38,3,.4,4.6,3.05,2.7,5.93,5.59,8.78,8.51,4.65,4.76,4.72,10.4.18,15.25-3.4,3.63-6.85,7.21-10.41,10.67-4.8,4.66-10.38,4.69-15.29.15q-4.9-4.54-9.62-9.3c-1.06-1.07-1.73-1.31-3.05-.26-23,18.47-49.12,30.3-78,36.15C233.71,370.79,233.14,370.94,232.09,371.19Zm.85-109.81a31.06,31.06,0,1,0,30.87-31.54A31.2,31.2,0,0,0,232.94,261.38ZM334,332.56c1.69-1.73,3.29-3.56,5.09-5.18,1.46-1.32,1.06-2.15-.19-3.34-4.62-4.38-9.14-8.87-13.71-13.31-6.8-6.59-6.75-6.53-13.1.56-1.31,1.46-1,2.16.21,3.33,6.17,5.89,12.26,11.87,18.39,17.81.53.51,1.12,1,1.79,1.52C333.13,333.39,333.61,333,334,332.56Z"/><path class="cls-1" d="M98.37,128.57q0-22.15,0-44.32c0-6.42,2.92-9.32,9.32-9.33,14,0,28,.07,42-.06A10.36,10.36,0,0,1,157.57,78q11.88,11.9,23.78,23.77a10.5,10.5,0,0,1,3.19,7.87c0,21.14,0,42.28,0,63.42,0,6.86-3,9.73-9.79,9.73q-33.42,0-66.86,0c-6.74,0-9.47-2.75-9.48-9.52Q98.34,150.92,98.37,128.57Zm12.2,38.9c0,2.51.66,3.13,3.14,3.12q27.51-.17,55,0c2.75,0,3.29-.8,3.27-3.39-.12-16.56-.16-33.12,0-49.68,0-3.2-1-3.75-3.86-3.62-4.57.21-9.17.09-13.75,0-5.87-.06-9.14-3.3-9.24-9.23-.09-4.71-.16-9.43,0-14.14.11-2.52-.38-3.52-3.23-3.46-9.42.19-18.85.16-28.27,0-2.51,0-3.17.66-3.14,3.15.12,12.86.06,25.73.06,38.59S110.71,154.6,110.57,167.47Zm51.78-66.09L158,96.52C157.13,102.24,157.32,102.42,162.35,101.38Zm-38.24,15c-4.57,0-7.21,2.22-7.36,6-.17,4,2.39,6.55,7.12,6.59q17.56.15,35.14,0c4.43,0,7.15-2.68,7.1-6.33s-2.89-6.14-7.25-6.19c-5.73-.07-11.45,0-17.18,0S130,116.3,124.11,116.34Zm34.57,31.1c4.45,0,7.24-2.35,7.41-6s-2.49-6.44-6.91-6.49q-17.75-.21-35.51,0c-4.54.05-7,2.56-6.93,6.39s2.71,6.08,7.19,6.13c5.73.05,11.46,0,17.18,0S152.83,147.49,158.68,147.44Zm-35.39,6.19c-4.25.06-6.62,2.43-6.54,6.24s2.57,6,6.8,6q17.74.06,35.5,0c4.28,0,7.12-2.62,7-6.29s-2.74-5.94-6.93-6c-5.85-.07-11.7,0-17.56,0C135.51,153.6,129.4,153.53,123.29,153.63Z"/><path class="cls-1" d="M134.94,316.72a54,54,0,1,1,.89-107.92c29.38.13,53.74,24.94,53.46,54.45A54.08,54.08,0,0,1,134.94,316.72Zm.41-95.55C112.63,221,93.8,239.7,93.71,262.56a41.49,41.49,0,1,0,41.64-41.39ZM108.8,261.81a5.82,5.82,0,0,0,1.44,6.64c3.91,4,7.83,8,11.88,11.87,2.9,2.77,6,2.72,9.16-.12q14.17-12.76,28.24-25.66a6.24,6.24,0,0,0,2.35-3.79c.36-2.78-.44-5.06-2.9-6.53-2.81-1.68-5.38-1-7.67,1.07-5.86,5.27-11.67,10.61-17.55,15.87-2.25,2-4.22,5.61-6.86,5.59s-4.45-3.77-6.65-5.85c-1.69-1.61-3.38-3.08-6.17-3.12A6.43,6.43,0,0,0,108.8,261.81Z"/><path class="cls-1" d="M238.68,85.63a4.63,4.63,0,0,1,2.93.63c2.93,2,5.71,1.52,8.87.17,2.48-1.06,4-2.38,4.68-4.91,1-3.9,3.66-5.56,7.63-5.45,3.43.09,6.88.07,10.32,0,3.75-.07,6.17,1.45,7.53,5.11,2,5.49,7.52,7.68,12.9,5.3,3.46-1.53,6.35-1.07,9,1.73,2.34,2.51,4.79,4.94,7.29,7.3,2.74,2.59,3.39,5.39,1.8,8.92-2.45,5.42-.27,10.8,5.2,12.91,3.55,1.36,5.28,3.63,5.11,7.51-.16,3.56-.15,7.13,0,10.7s-1.56,5.92-4.91,7.26c-5.76,2.29-7.81,7.34-5.3,13.13,1.38,3.2,1,5.88-1.53,8.31s-5,4.74-7.27,7.32c-2.89,3.27-6.06,3.69-9.9,1.9a9.12,9.12,0,0,0-12.1,5c-1.9,4.73-3.4,5.74-8.64,5.75-3.19,0-6.37,0-9.56,0-3.8.07-6.14-1.7-7.48-5.24-2.1-5.55-7.35-7.7-12.9-5.29-3.48,1.52-6.34,1.06-9-1.74-2.34-2.51-4.79-4.93-7.29-7.3-2.73-2.59-3.35-5.36-1.72-8.91,2.49-5.45.28-10.68-5.24-12.84-3.65-1.43-5.44-3.85-5.21-7.88a91.37,91.37,0,0,0,0-9.93c-.21-4,1.62-6.4,5.3-7.8,5.33-2,7.68-7.45,5.27-12.51-1.73-3.64-1.25-6.54,1.63-9.26,2.6-2.45,5.06-5,7.59-7.55C235.06,86.59,236.55,85.42,238.68,85.63Zm59.44,70.75c-2-3.66-1.59-6.94.65-10.33a15.46,15.46,0,0,0,2.22-5.22c.83-3.94,2.61-6.84,6.76-7.81,1.53-.36,1.88-1.38,1.82-2.84s.08-2.53-1.62-2.91c-4.32-.94-6.16-4-7-8a16.19,16.19,0,0,0-2.24-5.22c-2.09-3.26-2.82-6.49-.6-9.94.84-1.31.57-2.24-.56-3.26s-1.94-1.89-3.58-.87c-3.41,2.12-6.67,1.46-10-.57a22.28,22.28,0,0,0-6-2.42c-3.6-.94-6.25-2.73-7.14-6.52-.36-1.5-1.24-2-2.74-1.87s-2.73,0-3.17,1.89c-.9,4-3.81,5.68-7.54,6.6a19,19,0,0,0-5.59,2.31c-3.3,2.1-6.57,2.66-10,.57-1.43-.88-2.3-.38-3.3.64s-1.82,1.84-.93,3.24c2.37,3.74,1.51,7.16-.73,10.64a15.26,15.26,0,0,0-2.15,5.25c-.76,3.89-2.68,6.49-6.61,7.48a2.36,2.36,0,0,0-2,2.73c.06,1.57.29,2.73,2,3.14,3.94,1,5.8,3.62,6.6,7.48a18.94,18.94,0,0,0,2.53,5.91c2,3.21,2.5,6.31.46,9.64a2.21,2.21,0,0,0,.51,3.27c1,.81,1.83,2,3.25,1.1,3.9-2.42,7.41-1.47,11,.8a16.82,16.82,0,0,0,5.63,2.22c3.52.69,5.82,2.59,6.66,6,.68,2.73,2.58,2.39,4.46,2.18,1.66-.19,1.5-1.85,2-2.92,2-4.5,16.78-10.78,21.36-9,.83.32,1.64.69,2.34,1C297,160.8,299.08,158.13,298.12,156.38ZM251.51,130.2a16.39,16.39,0,0,0,32.78-.22,16.39,16.39,0,0,0-32.78.22Z"/></svg>