<svg id="Capa_1" data-name="Capa 1" xmlns="http://www.w3.org/2000/svg" viewBox="0 0 400 400"><defs><style>.cls-1{fill:#a68f61;}</style></defs><title>iconos valores</title><path class="cls-1" d="M267.52,41.24c-2.73-1.12-5.48-2.31-8.27-3.38-3.91-1.51-6-.61-7.71,3.39-2.41,5.64-4.78,11.3-7.06,17-1.14,2.85-2.58,5.28-6,5.3-3.26,0-4.7-2.21-6-4.88A14.58,14.58,0,1,0,216,79.15a13.86,13.86,0,0,0,8.85-.73c2.68-1.08,5.19-1.08,7.26,1.18s1.71,4.52.66,7q-3.63,8.67-7.14,17.38c-1.8,4.48-.83,6.74,3.6,8.59,5.55,2.31,11.13,4.54,16.65,6.9,4,1.69,5.46,4.8,4,8-1.34,3-4.64,4-8.37,2.53-5.92-2.4-11.84-4.8-17.7-7.34-9.16-4-12.8-12.77-9.24-22,1.21-3.15,2.51-6.26,3.87-9.63a26.44,26.44,0,0,1-17.38-7.39,25.74,25.74,0,0,1-7.39-13.32,26.32,26.32,0,0,1,10.9-27.06c9.82-6.7,20.29-6,32.64,2.25,1.31-3.15,2.56-6.28,3.92-9.37C245,27.3,254,23.46,263,26.91c4.79,1.84,9.53,3.82,14.25,5.85,6.95,3,7.72,9.17,1.8,14-6.43,5.3-7.53,14-2.58,20.51a14.71,14.71,0,0,0,20.22,2.76c4.85-3.54,6.19-8.49,5.74-14.3-.47-6.15,3.38-10.26,8.65-8.67,7.16,2.16,14.37,4.64,20.63,8.86a15.5,15.5,0,0,1,5.49,18.48q-13.47,33.47-27.45,66.71a15.85,15.85,0,0,1-20.21,8.55c-8-2.94-15.81-6.34-23.64-9.68-3.42-1.46-4.59-4.64-3.22-7.71,1.27-2.83,4.34-4.12,7.63-2.81,7.1,2.81,14.11,5.84,21.18,8.73,4.5,1.85,6.75.94,8.61-3.55q12.84-31.07,25.63-62.16c1.92-4.68.95-6.91-3.73-8.87-2.42-1-5.16-3.13-7.23-2.62s-1.35,4.35-2.32,6.63c-4.37,10.25-12.15,16-23.09,16.7-10,.64-18.16-3.64-23.47-12.28-5.54-9-5.34-18.3-.1-27.48.55-1,1.17-1.9,1.75-2.86C267.57,41.65,267.52,41.49,267.52,41.24Z"/><path class="cls-1" d="M180.49,359.71c.12-4.21,1.59-6.28,4.82-6.78s5.65,1,6.36,4c1.87,7.79,3.42,15.65,4.94,23.51a5.2,5.2,0,0,1-4,6.39c-2.95.84-5.9-.11-6.71-3.25C183.82,375.37,182.13,367,180.49,359.71Z"/><path class="cls-1" d="M7.57,149c2-5.1,4.49-9.74,9.5-12.61a19.29,19.29,0,0,1,27.46,9.27c1.08,2.5,2,5.05,3.08,7.7,10.75-10.2,22-9.73,31.13,1.16,1,1.17,1.58,1,2.73.56,13.51-5.66,26.06,4.41,26.69,15.26.11,1.89.91,1.84,2.37,1.38a17.62,17.62,0,0,1,10.75-.15c1.81.55,2.38-.2,2.74-1.92,1.39-6.74,2.94-13.44,4.52-20.58-3.72.84-7.19,1.61-10.65,2.41-9.61,2.21-17.94-2.72-20.46-12.34-1.69-6.43-3.15-12.91-4.62-19.39-.83-3.68.77-6.36,4.1-7.24s6,.9,7,4.59c1.49,5.7,2.78,11.45,4.12,17.19,1.38,5.93,3,7,9,5.62q32.22-7.57,64.41-15.24c4.85-1.16,6.22-3.39,5.13-8.24-.57-2.56-.58-6-2.22-7.37s-4.24,1.43-6.6,2c-10.53,2.36-19.51-.36-26.55-8.45-6.89-7.92-8.25-17.22-4.32-26.77,4.06-9.88,11.85-15.34,22.66-16.12,1-.08,2,0,3.43,0-.81-3.54-1.36-6.94-2.39-10.2A4.83,4.83,0,0,0,164.42,46c-6.23,1.42-12.47,2.82-18.68,4.35-3,.73-5.79,1-7.87-1.74-1.94-2.62-1-5.1.39-7.71a14.59,14.59,0,1,0-21,4.89c2.54,1.79,4.57,3.58,3.85,7s-3.4,4.24-6.37,4.91C108.83,59,103,60.44,97.17,61.94c-4.4,1.13-5.57,3.11-4.56,7.39q2.58,11,5.16,22c.92,3.91-.63,7-3.85,7.78-3.47.83-6.15-.84-7.17-4.84-2-7.9-4.09-15.78-5.7-23.76-1.86-9.23,3.63-17.38,12.79-19.66,3.15-.79,6.32-1.54,9.77-2.37-6.57-12.33-6-23.93,4.19-33.72,7.83-7.53,17.52-9.25,27.61-5C147.24,14.62,152,24.28,151.78,37l9.91-2.19c9.51-2.1,18,3.12,20.34,12.64,1.18,4.74,2.18,9.53,3.3,14.29,1.81,7.69-2.58,12-10.21,10.06-9.76-2.52-18.74,4.12-18.69,13.9a13.78,13.78,0,0,0,8.39,13.21c5.46,2.56,10.75,1.84,15.54-2a21.59,21.59,0,0,1,3.57-2.74,7.14,7.14,0,0,1,10.19,4.65c1.66,6.17,3.16,12.41,4.34,18.68.83,4.4-1,8.37-3.53,12.34l24.92,5.61c10.12,2.28,15.42,10.78,13.13,21-.63,2.81-2.32,6.13-1.41,8.34,1,2.38,4.87.61,7.47,1.18,12.65,2.8,21.5,12.86,21.68,25a25.92,25.92,0,0,1-20.83,26.37,25.28,25.28,0,0,1-16.55-1.94c-1-.47-1.83-1.36-3.19-1.29-.62,2.92-1.22,5.86-1.88,8.78-2.34,10.27-10.39,15.64-20.74,13.69-4.92-.93-9.81-2.07-14.68-3.26-7.16-1.76-9-7.64-4.16-13.31,3.8-4.49,5.08-9.52,3-15.08-2-5.36-6-8.46-11.71-9.39-9.66-1.57-18.5,7.78-16.3,17.36.25,1.1.71,2.15,1,3.24a7.49,7.49,0,0,1-8.61,9c-2.34-.42-4.66-1-7-1.52-5-1.16-4.71-1.13-5.31,3.76-.65,5.28.79,8.36,6.08,10.46,7.09,2.81,13.75,6.71,20.59,10.14a30.89,30.89,0,0,1,12.49,10.67,209.87,209.87,0,0,1,14.86,27A30.12,30.12,0,0,1,189.33,307a65.83,65.83,0,0,0-2.69,25.32,6.21,6.21,0,0,1-.39,3.7c-1.26,2.32-3.18,3.68-5.83,3.31-2.91-.41-4.61-2.22-5.08-5.23a59.29,59.29,0,0,1,2-26.48c2.38-7.93,1.76-15.27-2.53-22.43-3.09-5.16-5.86-10.52-8.66-15.85a26.93,26.93,0,0,0-12.54-12c-9.47-4.59-18.86-9.33-28.29-14a81.8,81.8,0,0,1-21.94-15.78c-8.88-8.93-17.75-17.87-26.75-26.68a11.9,11.9,0,0,0-15.53-1.34,12.34,12.34,0,0,0-4.19,15.09,18.16,18.16,0,0,0,3.93,5c11.64,11.7,23.31,23.36,34.87,35.13A87.45,87.45,0,0,1,108,271a5.62,5.62,0,0,1-1.69,7.94,5.33,5.33,0,0,1-7.66-1.51c-11-17.33-27.15-30-41-44.72-1.9-2-3.92-3.91-5.86-5.89-8.91-9.09-9.92-21.27-2.53-31.52a3.66,3.66,0,0,0,.64-4C44.6,177.85,39.46,164.4,34.19,151c-2-5-6.1-6.89-10.46-5-3.75,1.61-5.47,5.32-4.21,9.68q10.41,35.91,20.92,71.78c1.62,5.54,3.39,11,4.83,16.6a26.57,26.57,0,0,0,8.67,13.78c21.37,18.6,42.6,37.35,64.08,55.82a18.2,18.2,0,0,1,6.81,12.68c2,17.59,4.56,35.14,7,52.69.61,4.44-1.07,7.52-4.65,8s-6.14-1.75-6.74-6c-1.13-8-2.13-15.94-3.17-23.91-1.32-10.1-2.65-20.19-3.89-30.29-.24-2-1.45-3.09-2.79-4.27-21.15-18.47-42.21-37-63.46-55.38a40.5,40.5,0,0,1-12.93-19.88Q21.31,202.9,8.3,158.55a5.77,5.77,0,0,0-.73-1.23Zm134.88,55.64a26.23,26.23,0,0,1,32-20c13.72,3.27,22.23,17.6,19,31.79-.53,2.34-3.2,4.94-1.7,6.69,1.31,1.55,4.61,1.43,7,2,5,1.16,7.23-.27,8.33-5.36,1.31-6,2.59-12,4-18,.59-2.56,1.74-4.71,4.69-5.27s4.86.64,6.38,2.92c.28.42.53.87.83,1.26a14.6,14.6,0,0,0,25.79-12.3c-2.32-9.76-12.78-14-22-8.86-2.41,1.35-4.71,1.88-7,.19s-2.81-3.88-2.15-6.66c1.47-6.21,2.72-12.48,4.08-18.73,1-4.56-.21-6.62-4.65-7.63q-19.43-4.44-38.86-8.77a6.17,6.17,0,0,0-2.6-.07c-10.85,2.55-21.68,5.16-32.52,7.75a2.78,2.78,0,0,0-2.48,2.35c-4,18.49-8.15,37-12.18,55.43-.85,3.92.53,6,4.33,6.91,3,.74,6.07,1.36,9.11,2A56.29,56.29,0,0,1,142.45,204.65ZM96.79,172.46A7.62,7.62,0,0,0,90.14,165c-3.7-.59-7.75,2.26-7.54,5.38.42,6.41.91,12.8,1.4,19.2.1,1.24.14,2.48,1.15,3.48,4,3.94,7.95,7.92,11.67,11.65C96.82,193.85,96.89,183.15,96.79,172.46ZM60,185.67a1.41,1.41,0,0,0,2.06,1c2.68-.94,5.45-.74,8.21-.67.91,0,2.06.45,1.89-1.34-.63-7-1-14-1.8-21-.41-3.49-3-5.44-6.46-5.83a7.38,7.38,0,0,0-8,4.43c-1,2-.68,4.18-.76,6.58C54.42,174.89,58.3,180,60,185.67Zm59.56,28.68c-3.25-3.32-3.75-8.07-2.66-12.78,1.21-5.25,2.2-10.55,3.48-15.78.44-1.75,0-2.41-1.61-3a7.22,7.22,0,0,0-9.88,6.92c.16,8.68.49,17.36.71,26.05a3.53,3.53,0,0,0,1,2.69c3.58,3.48,7.12,7,11.86,9.8C122.31,223.16,123.66,218.57,119.53,214.35Z"/><path class="cls-1" d="M354.5,153.28c1-2.5,1.95-4.93,3-7.33,4.09-9.73,14.47-14.49,24.2-11.1a19,19,0,0,1,12.11,23.35q-13.23,46.05-26.82,92c-2,6.7-6.17,11.94-11.42,16.5-21.19,18.42-42.29,36.94-63.47,55.36a9.65,9.65,0,0,0-3.5,6.69c-2.14,17.45-4.51,34.88-6.88,52.31-.58,4.26-3.26,6.48-6.77,6s-5.21-3.57-4.61-8q3.63-27.09,7.11-54.19a14.06,14.06,0,0,1,5-9.65c21.16-18.26,42.07-36.81,63.26-55a37.18,37.18,0,0,0,12.06-18.95c7.83-27.85,16.14-55.56,24.27-83.32.56-1.92,1.42-3.79,1.08-5.87a8,8,0,0,0-6.84-6.64c-3.62-.36-6.58,1.21-7.91,4.57-5.52,14-10.81,28-16.29,42-.53,1.35,0,2,.62,3,7.81,11.3,6.65,22.77-3.07,32.68-12.6,12.85-25.92,25-37.82,38.55a125,125,0,0,0-7.55,10.34c-2.44,3.41-5.47,4.31-8.37,2.45s-3.44-5.19-1.16-8.88A111,111,0,0,1,311,249.85c10.42-10.42,20.92-20.76,31.23-31.29,7.11-7.26,4.23-18.39-5.3-20.86-4.65-1.2-8.65.23-12,3.61-8,8-16.12,15.94-24,24.08A92.88,92.88,0,0,1,273.47,245c-8.71,4.12-17.26,8.57-25.91,12.84a24.52,24.52,0,0,0-11,10.47q-5.06,9.26-10.12,18.49c-3.32,6-4.24,12.33-2.1,18.89,4.94,15.1,2.79,30-.76,45-2.37,10-4.43,20.08-6.62,30.12-1,4.82-3.63,7-7.25,6.2s-5-4-4-8.84c3-14.35,6.18-28.68,9.11-43.05a48.61,48.61,0,0,0-1.25-24.62c-3.43-10.87-2-21,3.54-30.78,3.12-5.45,6.09-11,9.07-16.49a36.68,36.68,0,0,1,16.63-15.86c7.67-3.74,15.24-7.67,23-11.33a3.88,3.88,0,0,0,2.59-4.29c-.63-13.2-.74-26.44-1.75-39.61-1-13.57,11.34-24.44,24.92-20.39,1.49.44,2.08.33,2.41-1.46,2.53-13.52,13.5-19.68,26.74-15.11,1,.34,1.5.69,2.47-.37C333.22,143.65,343.22,143.15,354.5,153.28Zm-62.94,65.14a3.55,3.55,0,0,0,.95-2.71c.22-8.68.44-17.37.75-26.05.12-3.21-1.49-5.25-4.15-6.55-5.37-2.61-11.15,1.27-11,7.6.37,12.33,1,24.65,1.6,37.61A72.56,72.56,0,0,0,291.56,218.42ZM316.94,193a4.48,4.48,0,0,0,1.11-3.11c.49-6.52.92-13,1.48-19.57a3.73,3.73,0,0,0-1.68-3.53c-2.34-1.77-4.87-2.51-7.74-1.24s-4.78,3.38-4.81,6.57c-.09,10.82,0,21.64,0,32.55C309,200.92,313,196.94,316.94,193Zm13.28-12a7.57,7.57,0,0,1-.08,1.51c-.73,2.91.19,4,3.3,3.53a12.25,12.25,0,0,1,6.32.62,1.61,1.61,0,0,0,2.4-1c2.35-6.55,5.77-12.8,4.8-20.2-.57-4.31-3.26-7.45-7.33-7.72a7.31,7.31,0,0,0-8,6.76c-.71,5.48-1,11-1.49,16.51Z"/></svg>