<?xml version="1.0" encoding="utf-8"?>
<!-- Generator: Adobe Illustrator 23.0.5, SVG Export Plug-In . SVG Version: 6.00 Build 0)  -->
<svg version="1.1" id="Capa_1" xmlns="http://www.w3.org/2000/svg" xmlns:xlink="http://www.w3.org/1999/xlink" x="0px" y="0px"
	 viewBox="0 0 300 300" style="enable-background:new 0 0 300 300;" xml:space="preserve">
<style type="text/css">
	.st0{fill:#B19963;}
	.st1{fill:#001733;}
	.st2{fill:#FFFFFF;}
</style>
<g>
	<path class="st0" d="M153.71,222c4.79-0.32,5.43-18.53,39.62-27.16c34.18-8.63,43.45-37.06,42.17-45.05
		c-7.03,1.28-15.02,2.88-30.35,2.24c-15.34-0.64-30.35-13.42-30.35-29.07c0-8.09,4.79-19.49,17.25-19.49
		c15.02,0,21.88,9.56,15.8,29.68c-0.44,1.32-0.07,2.05,1.1,3.2c15.82,15.43,40.85,8.44,40.6-14.03
		c-0.64-58.15-78.91-65.46-95.84-65.46c-16.93,0-95.2,7.32-95.84,65.46c-0.25,22.48,24.78,29.47,40.6,14.03
		c1.18-1.15,1.54-1.87,1.1-3.2c-6.07-20.13,0.79-29.68,15.81-29.68c12.46,0,17.25,11.4,17.25,19.49c0,15.65-15.02,28.43-30.35,29.07
		c-15.33,0.64-23.32-0.96-30.35-2.24c-1.28,7.99,7.99,36.42,42.17,45.05C148.28,203.47,148.92,221.68,153.71,222"/>
	<path class="st1" d="M207.55,57.43c-1.35,0-2.7-0.43-3.84-1.33c-13.91-10.92-35.63-14.8-50-14.8c-14.37,0-36.09,3.88-50,14.8
		c-2.71,2.13-6.62,1.65-8.75-1.05c-2.12-2.71-1.65-6.62,1.05-8.75c16.39-12.87,40.55-17.46,57.69-17.46
		c17.14,0,41.3,4.59,57.69,17.46c2.71,2.13,3.18,6.04,1.05,8.75C211.23,56.62,209.4,57.43,207.55,57.43"/>
	<path class="st1" d="M232.82,48.75c-1.78,0-3.55-0.76-4.78-2.23c-14.85-17.77-50.14-28.76-74.33-28.76
		c-24.18,0-59.48,11-74.33,28.76c-2.21,2.64-6.13,2.99-8.78,0.78c-2.64-2.21-2.99-6.14-0.78-8.78c17.39-20.8,56.3-33.23,83.89-33.23
		c27.58,0,66.5,12.43,83.89,33.23c2.21,2.64,1.86,6.57-0.78,8.78C235.64,48.27,234.23,48.75,232.82,48.75"/>
	<path class="st1" d="M62.72,284.01l4.73-11.25c4.11,2.55,9.59,4.19,14.38,4.19c4.17,0,5.66-0.92,5.66-2.49
		c0-5.76-24.09-1.11-24.09-18.19c0-8.51,6.78-15.44,20.29-15.44c5.85,0,11.89,1.31,16.43,3.99l-4.42,11.19
		c-4.3-2.29-8.34-3.4-12.14-3.4c-4.29,0-5.66,1.31-5.66,2.88c0,5.5,24.09,0.92,24.09,17.8c0,8.38-6.78,15.44-20.29,15.44
		C74.42,288.72,67.08,286.82,62.72,284.01"/>
	<path class="st1" d="M141.6,267.26v20.41h-14.07v-17.86c0-4.45-1.62-6.15-4.17-6.15c-2.86,0-5.29,1.9-5.29,7.2v16.82H104v-35.79
		h13.38v3.53c2.68-2.81,6.29-4.19,10.27-4.19C135.5,251.23,141.6,256.01,141.6,267.26"/>
	<rect x="146.74" y="251.89" class="st1" width="14.07" height="35.79"/>
	<path class="st1" d="M184.14,253.85h7.41v10.8h-6.97v23.03h-14.07v-23.03h-4.67v-10.8h4.67v-0.2c0-9.23,5.48-15.18,15.19-15.18
		c2.99,0,6.29,0.59,8.34,1.77l-3.36,10.27c-0.93-0.46-2.05-0.85-3.17-0.85c-1.99,0-3.36,1.24-3.36,4.12V253.85z"/>
	<path class="st1" d="M212.57,253.85h7.41v10.8h-6.97v23.03h-14.06v-23.03h-4.67v-10.8h4.67v-0.2c0-9.23,5.48-15.18,15.19-15.18
		c2.99,0,6.29,0.59,8.34,1.77l-3.36,10.27c-0.93-0.46-2.05-0.85-3.17-0.85c-1.99,0-3.36,1.24-3.36,4.12V253.85z"/>
	<path class="st1" d="M220.83,284.8l3.86-9.75c3.24,2.03,7.84,3.21,11.89,3.21c3.42,0,4.36-0.65,4.36-1.7
		c0-3.66-19.61,1.24-19.61-13.09c0-6.74,5.98-12.24,17.43-12.24c4.98,0,10.27,0.98,13.88,2.94l-3.86,9.75
		c-3.49-2.03-6.97-2.62-9.84-2.62c-3.61,0-4.6,0.85-4.6,1.7c0,3.73,19.54-1.11,19.54,13.22c0,6.48-5.79,12.11-17.61,12.11
		C230.41,288.33,224.31,286.89,220.83,284.8"/>
	<path class="st1" d="M144,236.79c0-4.64,3.78-8.21,9.71-8.21c5.93,0,9.71,3.28,9.71,7.92c0,4.93-3.78,8.5-9.71,8.5
		C147.78,245,144,241.43,144,236.79"/>
</g>
</svg>
