<?xml version="1.0" encoding="utf-8"?>
<!-- Generator: Adobe Illustrator 23.0.5, SVG Export Plug-In . SVG Version: 6.00 Build 0)  -->
<svg version="1.1" id="Capa_1" xmlns="http://www.w3.org/2000/svg" xmlns:xlink="http://www.w3.org/1999/xlink" x="0px" y="0px"
	 viewBox="0 0 300 300" style="enable-background:new 0 0 300 300;" xml:space="preserve">
<style type="text/css">
	.st0{fill:#B19963;}
	.st1{fill:#001733;}
	.st2{fill:#FFFFFF;}
</style>
<g>
	<circle class="st0" cx="159.12" cy="152.21" r="108.57"/>
	<path class="st2" d="M162.3,85.06c-2.21,1.01-2.94,2.73-2.93,5.14c0.06,28.12,0.04,56.24,0.01,84.35c0,1.6-0.15,3.25-0.55,4.79
		c-1.9,7.47-9.48,12.23-17.13,10.87c-7.62-1.35-13.05-8.48-12.29-16.15c0.75-7.68,6.82-13.36,14.59-13.68
		c2.6-0.11,4.26-1.53,4.29-3.98c0.06-7,0.06-13.99,0-20.99c-0.02-2.43-1.73-4.05-4.14-3.93c-2.7,0.13-5.42,0.3-8.07,0.78
		c-24.96,4.59-40.94,30.18-34.17,54.62c6.31,22.77,28.7,36.36,51.88,31.48c19.49-4.1,34.23-21.81,34.49-41.7
		c0.16-12.59,0.05-25.19,0.06-37.78c0-0.5,0-1.01,0-1.68c0.58,0.26,0.97,0.43,1.35,0.62c7.35,3.67,15.16,5.51,23.36,5.68
		c3.3,0.07,4.85-1.46,4.85-4.75c0-6.43,0-12.86,0-19.28c0-3.44-1.33-4.81-4.81-4.96c-13.6-0.61-24.13-11.05-24.68-24.63
		c-0.1-2.32-0.88-3.92-3-4.84"/>
</g>
</svg>
