<?xml version="1.0" encoding="utf-8"?>
<!-- Generator: Adobe Illustrator 23.0.5, SVG Export Plug-In . SVG Version: 6.00 Build 0)  -->
<svg version="1.1" id="Capa_1" xmlns="http://www.w3.org/2000/svg" xmlns:xlink="http://www.w3.org/1999/xlink" x="0px" y="0px"
	 viewBox="0 0 300 300" style="enable-background:new 0 0 300 300;" xml:space="preserve">
<style type="text/css">
	.st0{fill:#B19963;}
	.st1{fill:#001733;}
	.st2{fill:#FFFFFF;}
</style>
<g>
	<path class="st0" d="M157.96,259.93c-0.84,0-1.68,0-2.52,0c-0.68-0.43-1.43-0.11-2.15-0.21c-0.82,0.11-1.68-0.23-2.48,0.21
		c-0.84,0-1.68,0-2.52,0c-0.81-0.44-1.68-0.1-2.52-0.21c-0.84,0.11-1.71-0.23-2.52,0.21c-0.84,0-1.68,0-2.52,0
		c-2.97-0.41-5.96-0.44-8.94-0.69c-6.89-0.57-13.42-2.62-19.85-5.01c-12.33-4.58-23.58-11.06-33.45-19.76
		c-9.94-8.77-18.33-18.83-24.54-30.63c-5.12-9.73-8.95-19.9-11.02-30.72c-0.59-3.06-0.73-6.16-0.88-9.25
		c-0.47-9.94-0.61-19.91,0.57-29.8c1.1-9.24,4.15-17.99,7.99-26.44c4.33-9.56,9.83-18.41,16.79-26.28
		c8.45-9.56,18.06-17.74,29.32-23.88c10.15-5.53,20.82-9.64,32.22-11.78c3.03-0.57,6.1-0.7,9.16-0.85
		c9.84-0.48,19.71-0.61,29.5,0.53c9.39,1.09,18.26,4.19,26.84,8.09c9.49,4.32,18.28,9.78,26.1,16.69
		c9.67,8.54,17.93,18.27,24.09,29.68c4.98,9.23,8.85,18.87,11.03,29.17c0.93,4.4,0.92,8.88,1.28,13.33
		c0.04,0.54-0.18,1.12,0.21,1.62c0,0.7,0,1.4,0,2.1c-0.44,0.81-0.1,1.68-0.21,2.52c0.11,0.84-0.23,1.71,0.21,2.52
		c0,0.84,0,1.68,0,2.52c-0.44,0.81-0.1,1.68-0.21,2.52c0.11,0.84-0.23,1.71,0.21,2.52c0,0.84,0,1.68,0,2.52
		c-0.48,2.97-0.47,5.98-0.71,8.97c-0.55,6.75-2.52,13.14-4.83,19.43c-4.62,12.53-11.18,23.97-20.04,33.97
		c-9.02,10.18-19.38,18.72-31.57,24.96c-8.64,4.42-17.6,7.89-27.1,9.94c-4.39,0.95-8.86,0.86-13.29,1.28
		C159.04,259.77,158.46,259.55,157.96,259.93z"/>
	<path class="st0" d="M256.76,148.54c0.06-0.84-0.34-1.74,0.37-2.49c0,0.84,0,1.68,0,2.52
		C256.97,148.87,256.85,148.85,256.76,148.54z"/>
	<path class="st0" d="M256.76,148.54c0.12,0.01,0.25,0.02,0.37,0.04c0,0.84,0,1.68,0,2.52C256.61,150.3,256.7,149.42,256.76,148.54z
		"/>
	<path class="st0" d="M256.76,156.18c-0.05-0.88-0.15-1.76,0.37-2.56c0,0.84,0,1.68,0,2.52
		C257.03,156.46,256.91,156.47,256.76,156.18z"/>
	<path class="st0" d="M256.76,156.18c0.12-0.01,0.25-0.02,0.37-0.04c0,0.84,0,1.68,0,2.52C256.42,157.92,256.8,157.02,256.76,156.18
		z"/>
	<path class="st0" d="M143.25,259.93c0.74-0.71,1.65-0.31,2.49-0.37c0.31,0.09,0.33,0.22,0.04,0.37
		C144.93,259.93,144.09,259.93,143.25,259.93z"/>
	<path class="st0" d="M145.77,259.93c-0.01-0.12-0.02-0.25-0.04-0.37c0.88-0.06,1.76-0.15,2.56,0.37
		C147.45,259.93,146.61,259.93,145.77,259.93z"/>
	<path class="st0" d="M150.81,259.93c0.79-0.52,1.68-0.42,2.56-0.37c0.29,0.15,0.28,0.27-0.03,0.37
		C152.49,259.93,151.65,259.93,150.81,259.93z"/>
	<path class="st0" d="M153.34,259.93c0.01-0.12,0.02-0.25,0.03-0.37c0.71,0.03,1.47-0.26,2.07,0.37
		C154.74,259.93,154.04,259.93,153.34,259.93z"/>
	<path class="st2" d="M160.96,138.33c2.83-3.22,5.52-6.3,9.14-8.44c15.8-9.33,36.61-1.09,41.68,16.47
		c1.45,5.02,2.02,10.14,2.04,15.33c0.04,13.86-0.02,27.72,0.05,41.59c0.01,1.67-0.46,2.09-2.09,2.07c-7.14-0.09-14.28-0.09-21.42,0
		c-1.71,0.02-2.23-0.37-2.22-2.16c0.08-12.74,0.04-25.48,0.04-38.23c0-3.23-0.34-6.4-1.2-9.54c-2.87-10.51-15.05-10.9-20.79-5.68
		c-2.91,2.65-4.69,5.83-5.04,9.81c-0.27,3.08-0.18,6.16-0.18,9.23c-0.02,11.48-0.04,22.96,0.03,34.45c0.01,1.6-0.35,2.14-2.06,2.12
		c-7.07-0.1-14.14-0.1-21.21,0c-1.86,0.03-2.47-0.39-2.45-2.38c0.16-15.54,0.24-31.08,0.26-46.63c0.01-8.75-0.09-17.5-0.23-26.25
		c-0.03-1.63,0.38-2.14,2.07-2.12c7.21,0.09,14.42,0.09,21.63,0c1.58-0.02,2.06,0.41,1.99,1.99
		C160.87,132.75,160.96,135.55,160.96,138.33z"/>
	<path class="st2" d="M121.03,166.86c0,12.11-0.04,24.22,0.04,36.33c0.01,1.78-0.5,2.19-2.22,2.17c-7.21-0.1-14.42-0.08-21.63-0.01
		c-1.5,0.02-1.86-0.45-1.86-1.9c0.04-24.5,0.05-49-0.01-73.5c0-1.6,0.47-1.99,2.02-1.97c7.21,0.08,14.42,0.09,21.63-0.01
		c1.72-0.02,2.06,0.55,2.05,2.13C121.01,142.36,121.03,154.61,121.03,166.86z"/>
	<path class="st2" d="M108.41,90.86c5.23,0.06,9.69,1.72,12.41,6.42c2.61,4.51,2.69,9.22-0.01,13.74
		c-2.78,4.67-7.34,6.26-12.46,6.42c-6.82,0.21-12.19-3.66-13.91-9.83c-2.21-7.91,3.31-15.9,11.49-16.6
		C106.76,90.93,107.6,90.9,108.41,90.86z"/>
</g>
</svg>
