<?xml version="1.0" encoding="utf-8"?>
<!-- Generator: Adobe Illustrator 23.0.5, SVG Export Plug-In . SVG Version: 6.00 Build 0)  -->
<svg version="1.1" id="Capa_1" xmlns="http://www.w3.org/2000/svg" xmlns:xlink="http://www.w3.org/1999/xlink" x="0px" y="0px"
	 viewBox="0 0 300 300" style="enable-background:new 0 0 300 300;" xml:space="preserve">
<style type="text/css">
	.st0{fill:#B19963;}
	.st1{fill:#001733;}
	.st2{fill:#FFFFFF;}
</style>
<g>
	<circle class="st0" cx="148.36" cy="153.64" r="108.57"/>
	<g>
		<g>
			<g>
				<path class="st2" d="M176.55,223.87h-56.38c-25.02,0-45.38-20.36-45.38-45.39V128.8c0-25.02,20.36-45.38,45.38-45.38h56.38
					c25.02,0,45.38,20.36,45.38,45.38v49.69C221.93,203.51,201.57,223.87,176.55,223.87z M120.16,93.5
					c-19.46,0-35.3,15.83-35.3,35.3v49.69c0,19.46,15.83,35.3,35.3,35.3h56.38c19.46,0,35.3-15.83,35.3-35.3V128.8
					c0-19.46-15.84-35.3-35.3-35.3H120.16z"/>
			</g>
			<g>
				<path class="st2" d="M148.36,194.04c-22.28,0-40.4-18.12-40.4-40.4c0-22.28,18.12-40.4,40.4-40.4c22.28,0,40.4,18.12,40.4,40.4
					C188.75,175.92,170.63,194.04,148.36,194.04z M148.36,123.33c-16.71,0-30.31,13.6-30.31,30.32c0,16.71,13.6,30.31,30.31,30.31
					c16.71,0,30.31-13.6,30.31-30.31C178.67,136.93,165.07,123.33,148.36,123.33z"/>
			</g>
			<g>
				<path class="st2" d="M196.52,114.49c0,4.63-3.75,8.38-8.38,8.38c-4.63,0-8.38-3.75-8.38-8.38c0-4.63,3.75-8.38,8.38-8.38
					C192.77,106.1,196.52,109.86,196.52,114.49z"/>
			</g>
		</g>
	</g>
</g>
</svg>
