<?xml version="1.0" encoding="utf-8"?>
<!-- Generator: Adobe Illustrator 23.0.5, SVG Export Plug-In . SVG Version: 6.00 Build 0)  -->
<svg version="1.1" id="Capa_1" xmlns="http://www.w3.org/2000/svg" xmlns:xlink="http://www.w3.org/1999/xlink" x="0px" y="0px"
	 viewBox="0 0 400 400" style="enable-background:new 0 0 400 400;" xml:space="preserve">
<style type="text/css">
	.st0{fill:#AF9760;}
	.st1{fill:none;stroke:#AB945E;stroke-width:7.2018;stroke-miterlimit:10;}
	.st2{font-family:'Montserrat-Black';}
	.st3{font-size:35.917px;}
	.st4{fill:none;stroke:#AB945E;stroke-width:7.132;stroke-miterlimit:10;}
</style>
<g>
	<g>
		<path class="st0" d="M196.05,149.95c2.79,0,5.59,0.01,8.38,0c1.94-0.01,2.35,0.42,2.5,2.32c0.15,1.88,0.12,3.75-0.04,5.62
			c-0.01,0.14-0.01,0.29-0.02,0.43c-0.2,2.33-1.21,3.3-3.56,3.55c-3.08,0.32-6.16,0.18-9.24,0.2c-2.75,0.02-5.49,0.02-8.24,0.02
			c-0.48,0-0.97,0.01-1.44-0.07c-1.05-0.19-1.42-0.54-1.56-1.6c-0.33-2.54-0.36-5.09,0.07-7.63c0.22-1.32,1.04-2.16,2.35-2.45
			c0.89-0.2,1.79-0.35,2.72-0.34c2.7,0.02,5.4,0.01,8.1,0.01C196.05,149.99,196.05,149.97,196.05,149.95z"/>
		<path class="st0" d="M320,215.37c0.29,9.4-8.18,18-17.88,18.02c-9.12,0.02-18.02-7.76-18.05-17.91
			c-0.03-9.94,8.56-18.16,18.01-18.1C312.11,197.44,320.31,206.2,320,215.37z"/>
		<path class="st0" d="M99.72,233.34c-8.85,0.23-17.95-7.25-18-17.9c-0.05-10.36,8.87-18.08,18.06-18.06
			c8.94,0.02,17.95,7.68,17.94,18.05C117.71,225.61,108.88,233.55,99.72,233.34z"/>
		<path class="st0" d="M22.37,249.95c0.01-2.87,1.8-4.94,4.65-5.35c1.09-0.16,2.19-0.26,3.31-0.26c11.42,0.02,22.85,0.01,34.27,0.01
			c0.48,0,0.97,0.01,1.44-0.06c1.08-0.16,1.3-0.62,0.76-1.59c-0.21-0.38-0.49-0.72-0.76-1.05c-3.43-4.21-5.73-9-7.27-14.18
			c-0.23-0.78-0.45-1.57-0.75-2.33c-0.52-1.32-1.5-2.07-2.91-2.29c-0.76-0.12-1.53-0.21-2.3-0.17c-6.6,0.3-13.2,0.17-19.8,0.09
			c-1.91-0.02-3.85,0.08-5.75-0.41c-3.17-0.8-4.89-2.96-4.89-6.25c0-12.05,0-24.1,0-36.15c0-0.48-0.06-0.99,0.07-1.44
			c1.21-4.45,2.04-9.02,3.92-13.28c2.92-6.63,6.73-12.68,11.85-17.84c7.18-7.25,15.9-11.74,25.75-14.15
			c4.03-0.99,8.14-1.47,12.24-2.04c4.53-0.62,9.05-1.26,13.58-1.9c3.81-0.53,7.62-1.06,11.44-1.59c2.14-0.3,4.29-0.58,6.43-0.91
			c1.41-0.22,2.62-0.92,3.76-1.75c3.62-2.63,7.29-5.21,11.03-7.67c14.19-9.34,29.21-17.01,45.34-22.41
			c9.09-3.04,18.35-5.46,27.79-7.19c5.07-0.93,10.16-1.66,15.28-2.19c3.16-0.33,6.33-0.53,9.51-0.71c4.29-0.24,8.57-0.27,12.86-0.22
			c5.78,0.07,11.54,0.49,17.29,1.08c10.17,1.06,20.19,2.92,30.06,5.56c15.43,4.14,30.09,10.17,44,18.01
			c1.93,1.09,3.82,2.24,5.75,3.33c3.21,1.81,6.64,3.1,10.19,4.02c6.9,1.79,13.69,3.95,20.53,5.92c4.3,1.24,8.61,2.46,12.91,3.68
			c0.98,0.28,1.92,0.63,2.79,1.16c1.24,0.75,1.93,1.87,2.19,3.25c0.19,0.99,0.28,2,0.28,3.02c-0.01,16.87-0.01,33.74,0.03,50.61
			c0.01,2.48-0.73,4.62-2.28,6.53c-6.71,8.27-13.39,16.56-19.95,24.94c-0.53,0.68-1.07,1.37-1.59,2.06
			c-1.96,2.62-4.61,3.86-7.85,3.88c-0.77,0-1.54-0.06-2.31-0.06c-1.63-0.01-2.11,0.34-2.55,1.95c-0.33,1.21-0.56,2.44-0.9,3.64
			c-1.72,6.15-4.86,11.5-9.07,16.27c-0.06,0.07-0.14,0.14-0.19,0.21c-0.21,0.3-0.73,0.51-0.57,0.92c0.2,0.49,0.74,0.55,1.23,0.55
			c0.67,0,1.35-0.03,2.02-0.03c11.81,0,23.62,0,35.43,0c1.35,0,2.7,0.03,4.03,0.3c2.57,0.52,3.87,1.98,4.31,4.58 M48.95,155.55
			c4.48,0.01,8.97,0.02,13.45,0c0.87,0,1.73,0.07,2.58,0.22c3.96,0.72,6.09,4.67,4.51,8.36c-0.36,0.85-0.86,1.61-1.41,2.35
			c-3.8,5.04-7.6,10.08-11.4,15.12c-1.74,2.31-3.48,4.61-5.18,6.95c-1.54,2.11-3.59,3.13-6.19,3.1c-0.53-0.01-1.06,0.02-1.59,0.02
			c-2.51,0-5.01,0-7.52,0.01c-1.31,0.01-1.74,0.37-1.92,1.64c-0.05,0.33-0.05,0.67-0.03,1.01c0.25,3.95,0.26,7.89,0.01,11.84
			c-0.04,0.67-0.06,1.34,0.14,2.01c0.2,0.68,0.63,1.07,1.33,1.13c0.34,0.03,0.67,0.05,1.01,0.05c6.36,0,12.72,0.01,19.09,0
			c1.99,0,2.48-0.39,3.02-2.38c0.55-2.04,1.13-4.08,1.9-6.06c3.45-8.8,9.03-15.89,17.05-20.91c9.28-5.81,19.36-7.64,30.08-5.41
			c11.62,2.41,20.61,8.76,27.04,18.72c2.53,3.92,4.18,8.23,5.33,12.74c0.67,2.62,1.59,3.31,4.29,3.33c2.07,0.02,4.14-0.02,6.22-0.02
			c20.29,0,40.58,0,60.87,0c1.4,0,2.8,0.05,4.19,0c1.98-0.07,2.58-0.68,2.65-2.62c0.04-1.11,0.02-2.22,0.02-3.33
			c0-19.23,0-38.46,0-57.69c0-1.69,0.03-3.38-0.05-5.06c-0.07-1.55-0.77-2.26-2.31-2.46c-0.57-0.07-1.15-0.05-1.73-0.05
			c-10.03,0.01-20.05,0.03-30.08,0.03c-23.09,0.01-46.17,0.02-69.26,0.03c-1.5,0-2.98,0.16-4.46,0.35
			c-3.15,0.41-6.29,0.88-9.43,1.32c-4.43,0.62-8.86,1.24-13.29,1.86c-4.48,0.63-8.95,1.31-13.44,1.87
			c-5.38,0.67-10.61,1.87-15.58,4.1c-4.17,1.87-7.9,4.39-11.32,7.62C48.1,155.68,48.54,155.55,48.95,155.55z M266.34,138.16
			c-10.89,0-21.78,0-32.68,0c-2.46,0-3.06,0.62-3.06,3.09c0,0.1,0.01,0.19,0.01,0.29c0.01,18.22,0.02,36.44,0.03,54.65
			c0,3.47-0.03,6.94-0.02,10.41c0,2.27,0.47,2.73,2.68,2.75c0.24,0,0.48,0,0.72,0c4.96-0.02,9.93-0.06,14.89-0.06
			c2.36,0,4.73-0.02,7.08,0.13c3.34,0.21,4.69-0.66,5.49-3.93c2.26-9.17,7.06-16.74,14.44-22.58c9.83-7.78,21.02-10.77,33.36-8.48
			c13.47,2.5,23.28,10.17,29.62,22.26c1.81,3.45,3.37,7.03,3.73,11c0.11,1.22,0.58,1.54,1.78,1.66c1.63,0.16,2.75-0.62,3.71-1.82
			c5.76-7.24,11.47-14.51,17.31-21.68c1.52-1.87,2.01-3.83,1.87-6.14c-0.26-4.38-0.23-8.76-0.03-13.15
			c0.05-1.05,0.17-2.11-0.09-3.17c-0.2-0.81-0.67-1.26-1.5-1.3c-0.38-0.02-0.77-0.04-1.16-0.04c-2.65,0.01-5.3,0.05-7.95,0.05
			c-2.84,0-5.69-0.11-8.52,0.27c-0.92,0.12-1.83-0.04-2.72-0.24c-1.03-0.23-1.68-0.86-2-1.87c-0.36-1.14-0.3-2.29-0.14-3.44
			c0.19-1.34,0.24-2.69,0.2-4.04c-0.07-2.48,0.27-2.83,2.8-2.83c0.05,0,0.1,0,0.14,0c6.02,0.02,12.05,0.01,18.07,0.07
			c1.84,0.02,3.13-0.25,2.9-3.17c-0.01-0.14-0.03-0.29-0.05-0.43c-0.24-2.21-0.27-4.42,0.02-6.63c0.29-2.23-0.23-3.09-2.44-3.7
			c-6.03-1.66-12.04-3.4-18.04-5.17c-6.64-1.96-13.5-3.18-19.78-6.3c-0.65-0.32-1.31-0.23-1.92,0.19c-0.6,0.41-1.19,0.82-1.81,1.19
			c-5.22,3.2-10.45,6.37-15.56,9.74c-1.42,0.93-2.94,1.65-4.59,2.06c-1.94,0.49-3.9,0.4-5.88,0.4c-10.31-0.03-20.63-0.01-30.94-0.01
			C266.34,138.19,266.34,138.18,266.34,138.16z M269.61,244.96c0.43,0,0.87,0.01,1.3-0.01c0.28-0.01,0.61,0.04,0.72-0.32
			c0.1-0.3-0.04-0.57-0.25-0.78c-0.33-0.35-0.71-0.66-1.01-1.03c-4.32-5.18-7.57-10.9-8.91-17.6c-0.61-3.02-1.47-3.68-4.52-3.72
			c-0.24,0-0.48,0-0.72,0c-2.94,0.01-5.88,0.08-8.82,0.1c-10.84,0.07-21.69,0.05-32.53,0.06c-24.1,0-48.2-0.01-72.3-0.01
			c-1.26,0-1.59,0.26-1.9,1.51c-0.18,0.75-0.3,1.51-0.49,2.26c-1.66,6.62-4.8,12.46-9.15,17.68c-0.41,0.49-1.26,0.96-0.96,1.61
			c0.25,0.55,1.14,0.24,1.74,0.24c22.99,0.01,45.98,0.01,68.98,0.01C223.72,244.96,246.67,244.96,269.61,244.96z M313.22,116.92
			c-0.37-0.22-0.75-0.44-1.13-0.63c-15.34-7.62-31.36-13.24-48.22-16.42c-10.05-1.89-20.18-2.93-30.4-3.1
			c-2.42-0.04-2.86,0.41-2.85,2.84c0,0.19,0.01,0.39,0.01,0.58c0.05,2.94,0.09,5.87,0.14,8.81c0.08,4.77-0.13,9.53-0.16,14.3
			c-0.02,2.51,0.44,3,2.89,2.99c11.76-0.01,23.51-0.03,35.27-0.03c9.59,0,19.18-0.01,28.76,0.03c1.7,0.01,3.2-0.36,4.62-1.32
			c2.12-1.42,4.32-2.73,6.48-4.08c1.71-1.07,3.41-2.15,5.4-3.4C313.61,117.19,313.42,117.04,313.22,116.92z M301.88,185.95
			c-16.68-0.03-29.5,13.03-29.56,29.43c-0.05,16.87,13.29,29.72,29.61,29.72c16.59,0,29.51-13.55,29.56-29.71
			C331.45,199.45,318.72,185.98,301.88,185.95z M99.69,245.1c16.42-0.03,29.57-13.01,29.55-29.63c-0.02-16.42-12.8-29.5-29.46-29.52
			c-16.81-0.02-29.63,13.36-29.72,29.5C70.18,231.71,83.22,245.13,99.69,245.1z M133.1,126.26c20.05,0.01,40.1,0.01,60.15,0.02
			c7.66,0,15.33,0.01,22.99,0c1.79,0,2.22-0.44,2.22-2.23c0.01-8.29,0.01-16.58,0-24.87c0-1.69-0.57-2.18-2.21-2
			c-2.97,0.32-5.93,0.62-8.89,0.99c-6.74,0.86-13.41,2.06-20.01,3.65c-19.7,4.76-38.05,12.68-55.1,23.62
			c-0.26,0.17-0.64,0.25-0.68,0.82C132.08,126.26,132.59,126.26,133.1,126.26z M41.03,167.98c-2.32,0.06-3.82,1.33-4.49,3.59
			c-0.64,2.17-0.97,4.41-1.45,6.61c-0.22,1.03,0.2,1.49,1.33,1.57c1.45,0.1,2.86-0.23,4.29-0.44c2.19-0.32,3.9-1.27,5-3.22
			c0.14-0.25,0.34-0.46,0.52-0.69c1.81-2.42,3.62-4.83,5.59-7.45C48.04,167.95,44.54,167.89,41.03,167.98z M307.6,215.45
			c0.02-3.13-2.3-5.56-5.36-5.62c-3.16-0.05-5.69,2.32-5.74,5.41c-0.06,3.16,2.33,5.64,5.46,5.68
			C305.15,220.96,307.58,218.6,307.6,215.45z M99.7,209.65c-3.22-0.08-5.65,2.4-5.68,5.65c-0.03,3.33,2.37,5.81,5.64,5.84
			c3.35,0.02,5.72-2.35,5.73-5.72C105.51,212.39,103.44,209.74,99.7,209.65z"/>
	</g>
	<path class="st1" d="M371.06,300.31H30.53c-5.07,0-9.18-4.11-9.18-9.18v-37.15c0-5.07,4.11-9.18,9.18-9.18h340.54
		c5.07,0,9.18,4.11,9.18,9.18v37.15C380.25,296.2,376.13,300.31,371.06,300.31z"/>
	<text transform="matrix(1 0 0 1 113.337 288.2715)" class="st0 st2 st3">Plan - Sniffs</text>
</g>
</svg>
