<?xml version="1.0" encoding="utf-8"?>
<!-- Generator: Adobe Illustrator 23.0.5, SVG Export Plug-In . SVG Version: 6.00 Build 0)  -->
<svg version="1.1" id="Capa_1" xmlns="http://www.w3.org/2000/svg" xmlns:xlink="http://www.w3.org/1999/xlink" x="0px" y="0px"
	 viewBox="0 0 400 400" style="enable-background:new 0 0 400 400;" xml:space="preserve">
<style type="text/css">
	.st0{fill:#AF9760;}
	.st1{fill:none;stroke:#AB945E;stroke-width:7.2018;stroke-miterlimit:10;}
	.st2{fill:none;stroke:#AB945E;stroke-width:7.132;stroke-miterlimit:10;}
	.st3{fill:none;stroke:#AB945E;stroke-width:7.2564;stroke-miterlimit:10;}
	.st4{fill:#B49A61;}
	.st5{fill:none;stroke:#AB945E;stroke-width:7.0481;stroke-miterlimit:10;}
	.st6{fill:#B19963;}
	.st7{font-family:'Montserrat-Black';}
	.st8{font-size:36.4976px;}
</style>
<g>
	<path class="st5" d="M367.45,316.08H34.19c-4.96,0-8.99-4.02-8.99-8.99v-36.36c0-4.96,4.02-8.99,8.99-8.99h333.26
		c4.96,0,8.99,4.02,8.99,8.99v36.36C376.44,312.06,372.42,316.08,367.45,316.08z"/>
	<text transform="matrix(1 0 0 1 63.9912 304.8484)" class="st0 st7 st8">Plan - Mensual</text>
	<g>
		<path class="st6" d="M213.78,183.46c-4.4,0-8.81,0.06-13.21-0.01c-8.46-0.14-14.87-6.16-15.72-14.69
			c-0.75-7.52,4.91-14.92,12.85-16.4c8.24-1.53,15.14-5.3,21-11.25c5.56-5.64,12.94-7.15,19.8-4.31c6.8,2.82,11.01,9.25,10.95,17.05
			c-0.03,3.89,0.38,7.78-0.51,11.66c-2.32,10.18-11.2,17.64-21.65,17.92c-4.5,0.12-9.01,0.02-13.51,0.02
			C213.78,183.45,213.78,183.46,213.78,183.46z"/>
		<path class="st6" d="M300.51,107.5c0.09,1.71,0.08,3.38-1.16,4.77c-1.76,1.98-4.73,2.08-6.61,0.2c-1.91-1.9-1.9-8.09,0.01-9.98
			c1.89-1.87,4.86-1.76,6.61,0.23C300.59,104.12,300.6,105.79,300.51,107.5z"/>
		<path class="st6" d="M46.99,170.89c1.63-4.07,3.39-8.01,7.82-9.93c1.12-0.49,0.58-1.81,0.58-2.75
			c0.03-11.01,0.01-22.03,0.02-33.04c0.02-12.29,8.63-20.89,20.95-20.96c1.4-0.01,2.81-0.08,4.2,0.01
			c6.24,0.42,11.92-0.18,17.3-4.37c5.21-4.05,11.9-4.84,18.53-4.82c12.82,0.05,25.63,0.01,38.45,0.03c1.08,0,2.27,0.02,3.22,0.45
			c2.21,0.99,2.99,2.94,2.42,5.22c-0.58,2.32-2.29,3.41-4.67,3.41c-5.91,0.01-11.82,0.1-17.72-0.05c-2.13-0.06-3.54,0.64-4.84,2.25
			c-3.54,4.37-5.81,9.23-6.49,14.86c-0.41,3.4-0.41,6.8-0.32,10.2c0.12,4.33,1.89,7.78,6.08,9.48c4.1,1.67,7.83,0.83,11.07-2.16
			c2.28-2.11,4.56-4.22,6.78-6.38c4.24-4.12,9.28-5.99,15.19-5.92c8.51,0.1,17.02,0.09,25.53,0.01
			c10.29-0.1,16.79-11.14,12.04-20.23c-0.78-1.48-1.69-2.13-3.47-2.1c-7.01,0.12-14.02,0.06-21.03,0.05c-3.93,0-6.08-1.67-6.03-4.65
			c0.05-2.82,2.13-4.45,5.9-4.45c24.83-0.02,49.67-0.01,74.5-0.01c0.8,0,1.61,0.08,2.4-0.02c2.56-0.34,3.59-2.78,2.1-4.86
			c-3.62-5.05-5.65-10.78-6.73-16.81c-1.02-5.69,3.5-9.91,9.02-8.63c5.56,1.29,10.99,3.03,15.64,6.49c1.28,0.95,2.42,0.58,3.67,0.45
			c5.59-0.56,11.18-0.55,16.77-0.02c2.98,0.28,5.54,1.59,7.8,3.51c15.48,13.16,30.96,26.32,46.41,39.51
			c3.05,2.6,4.65,5.92,4.55,10.01c-0.07,2.6,0.01,5.21-0.02,7.81c-0.07,5.83-3.69,10.77-9.44,11.93
			c-11.73,2.38-23.52,4.47-35.31,6.55c-1.88,0.33-3.03,1.14-3.97,2.72c-1.9,3.17-3.9,6.28-5.93,9.36c-1.72,2.61-4.42,3.3-6.67,1.83
			c-2.15-1.4-2.66-4.04-1.09-6.6c2.29-3.75,4.69-7.43,7.08-11.12c1.92-2.96,4.78-4.45,8.16-5.06c3.53-0.64,7.07-1.28,10.61-1.85
			c1.51-0.24,2.11-0.62,1.88-2.47c-1.31-10.49,0.73-20.27,6.81-29.05c0.74-1.07,0.51-1.59-0.41-2.37
			c-9.4-7.95-18.77-15.94-28.13-23.93c-1.43-1.22-3.01-1.87-4.92-1.83c-2.9,0.06-5.8,0.02-8.71,0.02c-0.35,1.35,0.74,2.07,1.05,3.07
			c0.75,2.36,0.05,4.2-1.95,5.42c-2.17,1.31-4.24,0.86-5.88-1.07c-0.57-0.68-0.92-1.54-1.38-2.31c-3.64-6.15-8.94-9.9-15.79-11.05
			c1.36,6.73,4.64,12.03,10.47,15.64c0.76,0.47,1.59,0.87,2.26,1.46c1.89,1.68,2.36,3.76,0.95,5.89c-1.35,2.06-3.47,3.08-5.68,1.65
			c-2.17-1.4-3.28-1.05-4.74,0.98c-2.06,2.84-5.16,3.88-8.68,3.87c-13.12-0.04-26.24-0.02-39.35-0.02c-1.1,0-2.19,0-3.54,0
			c1.61,4.79,2.11,9.45,0.81,14.23c-2.73,10.05-11.16,16.88-21.63,17.12c-8.31,0.19-16.62,0.12-24.93,0.03
			c-4.22-0.04-7.8,1.09-10.78,4.25c-2.19,2.33-4.58,4.49-7.05,6.53c-6.11,5.03-12.97,6.13-20.16,2.86
			c-7.18-3.27-10.88-9.15-11.25-17.04c-0.45-9.7,0.27-19.18,6-27.61c-14.65-2.3-26.87,3.58-32.18,15.28
			c-1.82,4.01-2.29,8.21-2.28,12.56c0.04,27.14,0.02,54.27,0.02,81.41c0,13.32,0.1,26.64-0.08,39.95c-0.04,2.78,0.8,3.37,3.32,3.16
			c2.59-0.22,5.21-0.17,7.8-0.01c1.83,0.11,2.37-0.41,2.34-2.3c-0.12-7.61,0.24-15.23-0.15-22.83c-0.28-5.53,1.7-8.97,6.61-11.48
			c6.53-3.34,12.27-7.88,17.03-13.55c3.47-4.13,5.95-8.66,6.67-14.14c0.57-4.35,3.9-6.9,8.6-7.26c11.39-0.87,22.21,1.88,32.97,5.04
			c11.56,3.39,22.94,7.4,34.83,9.64c11.94,2.25,23.59,2.21,34.85-3.23c4.52-2.19,9.28,0.51,10.2,5.45c0.22,1.17,0.22,2.39,0.22,3.58
			c0.01,16.02,0.04,32.04-0.03,48.06c-0.01,2.13,0.23,3.12,2.81,3.05c7.48-0.18,7.35-0.05,8.25-7.5
			c2.08-17.16,4.73-34.26,6.27-51.47c0.76-8.55,5.1-14.94,9.44-21.6c1.39-2.14,4.06-2.58,6.07-1.36c2.23,1.36,2.87,3.79,1.55,6.25
			c-0.66,1.23-1.36,2.47-2.25,3.54c-4.23,5.07-5.37,11.12-6.1,17.46c-2.11,18.26-4.43,36.5-6.72,54.75
			c-0.83,6.59-3.6,8.94-10.36,8.96c-2.5,0.01-5.01,0-7.51,0c-7.84-0.01-10.7-2.83-10.7-10.6c0-13.62,0-27.24,0-40.86
			c0-2.6,0-5.2,0-8.12c-4.48,1.58-8.78,2.94-13.29,3.58c-10.9,1.55-21.52-0.14-32.07-2.65c-3.1-0.74-6.23-2.48-9.22-2.22
			c-2.96,0.25-4.26,4.03-6.61,5.96c-4.13,3.38-8.51,6.32-13.44,8.32c-1.59,0.65-2.11,1.45-2,3.09c0.12,1.89,0.13,3.82-0.07,5.7
			c-0.77,7.2-6.4,12.42-13.14,12.27c-7.06-0.15-12.56-5.78-12.88-13.2c-0.03-0.6-0.07-1.21,0-1.8c0.19-1.56-0.25-2.19-2.01-2.42
			c-4.05-0.52-8.03-1.55-11.78-3.24c-1.38-0.62-2.33-0.41-3.45,0.55c-3.57,3.07-7.45,5.73-11.57,8c-1.49,0.82-2.05,1.73-2.03,3.45
			c0.1,8.31,0.06,16.62,0.04,24.93c-0.01,5.93-3.08,9.14-8.93,9.23c-4.61,0.07-9.21,0.08-13.82,0c-5.51-0.09-8.66-3.24-8.92-8.76
			c-0.04-0.8-0.01-1.6-0.01-2.4c0-39.85,0.04-79.71-0.04-119.56c-0.02-7.58,0.83-14.9,4.46-21.73c-3.51,0-6.73-0.33-9.87,0.07
			c-5.64,0.71-9.52,4.86-9.61,10.52c-0.2,11.71-0.07,23.43-0.09,35.15c0,0.85,0.09,1.52,0.96,1.98c7.8,4.15,8.07,11.37,7.19,18.73
			c-0.64,5.38-3.3,10.01-7.3,13.78c-3.36,3.17-7.31,3.2-10.68,0.01c-3.57-3.38-5.9-7.5-7.01-12.3c-0.09-0.4-0.18-0.77-0.61-0.92
			C46.99,177.3,46.99,174.09,46.99,170.89z M167.04,197.91c-7.61-2.1-15.29-3.92-23.27-3.58c-0.85,0.04-2.19-0.64-2.45,0.91
			c-1.02,6.25-4.02,11.59-7.91,16.71c3.58,1.21,6.92,1.99,10.4,2.3c5.25,0.46,7.48,2.93,7.56,8.14c0.02,1.7-0.03,3.41,0.04,5.1
			c0.1,2.24,1.33,3.54,3.58,3.59c2.38,0.06,3.76-1.2,3.86-3.61c0.09-2.3,0.04-4.6,0.04-6.9c0.01-5.45,1.08-6.94,6.13-8.93
			c5.53-2.18,10.55-5.17,14.93-9.94C175.45,200.38,171.26,199.08,167.04,197.91z M341.17,119.03c-1.89-1.28-3.58-2.89-5.24-4.47
			c-1.14-1.09-1.69-0.8-2.44,0.42c-3.97,6.45-5.32,13.45-4.65,20.93c0.14,1.62,0.82,2.28,2.49,1.94c3.61-0.72,7.25-1.33,10.87-2.03
			c2.28-0.44,3.45-1.84,3.41-4.2c-0.02-1,0-2,0-3.72C346.6,124.28,344.65,121.38,341.17,119.03z M63.25,171.78
			c-0.48-1.76-1.6-2.76-3.43-2.69c-1.84,0.06-2.82,1.2-3.26,2.94c-1.31,5.21-0.03,9.78,3.4,14.12
			C63.39,181.74,64.71,177.09,63.25,171.78z M225.98,174.34c8.87-0.28,14.41-6.05,14.48-14.94c0.01-1.5-0.04-3,0.01-4.5
			c0.13-4.26-1.31-7.67-5.35-9.52c-3.71-1.71-7.11-0.76-10.72,2.91c-6.64,6.75-14.64,10.95-23.86,12.9c-4.74,1.01-6.8,3.36-6.4,7.44
			c0.34,3.5,3.09,5.64,7.53,5.72c4,0.07,8.01,0.01,12.01,0.01C217.77,174.36,221.88,174.46,225.98,174.34z"/>
	</g>
</g>
</svg>
