<?xml version="1.0" encoding="utf-8"?>
<!-- Generator: Adobe Illustrator 23.0.5, SVG Export Plug-In . SVG Version: 6.00 Build 0)  -->
<svg version="1.1" id="Capa_1" xmlns="http://www.w3.org/2000/svg" xmlns:xlink="http://www.w3.org/1999/xlink" x="0px" y="0px"
	 viewBox="0 0 400 400" style="enable-background:new 0 0 400 400;" xml:space="preserve">
<style type="text/css">
	.st0{fill:#AF9760;}
	.st1{fill:none;stroke:#AB945E;stroke-width:7.2018;stroke-miterlimit:10;}
	.st2{fill:none;stroke:#AB945E;stroke-width:7.132;stroke-miterlimit:10;}
	.st3{fill:none;stroke:#AB945E;stroke-width:7.2564;stroke-miterlimit:10;}
	.st4{fill:#B49A61;}
	.st5{fill:none;stroke:#AB945E;stroke-width:7.0481;stroke-miterlimit:10;}
	.st6{fill:#B19963;}
	.st7{font-family:'Montserrat-Black';}
	.st8{font-size:37.8494px;}
</style>
<g>
	<path class="st5" d="M368.74,308.47H35.47c-4.96,0-8.99-4.02-8.99-8.99v-36.36c0-4.96,4.02-8.99,8.99-8.99h333.26
		c4.96,0,8.99,4.02,8.99,8.99v36.36C377.72,304.45,373.7,308.47,368.74,308.47z"/>
	<text transform="matrix(1 0 0 1 60.2091 296.056)" class="st0 st7 st8">Plan - Mensual</text>
	<g>
		<path class="st0" d="M107.81,175.94c9.09,0,18.19,0.02,27.28-0.01c4.76-0.01,6.28-1.53,6.28-6.26c0.01-15.39,0.01-30.78,0-46.17
			c0-4.5-1.61-6.15-6.13-6.17c-8.89-0.04-17.79,0.04-26.68-0.04c-2.92-0.02-4.78,1.15-6.23,3.71c-8.81,15.5-17.62,30.99-26.69,46.34
			c-2.8,4.74-0.75,8.93,5.19,8.69C89.82,175.68,98.82,175.94,107.81,175.94z"/>
		<path class="st0" d="M277.5,222.08c-0.06,7.4,6.05,13.62,13.41,13.63c7.33,0.02,13.53-6.23,13.49-13.59
			c-0.04-7.38-5.94-13.29-13.29-13.33C283.49,208.75,277.57,214.53,277.5,222.08z"/>
		<path class="st0" d="M92.3,222.35c0.05,7.27,6.12,13.32,13.38,13.36c7.31,0.04,13.56-6.21,13.56-13.55
			c-0.01-7.41-6.1-13.4-13.6-13.38C98.13,208.81,92.25,214.79,92.3,222.35z"/>
		<path class="st0" d="M291.8,68.53c13.5,0,26.99-0.05,40.49,0.02c9.9,0.05,17.33,6.79,17.35,16.02
			c0.08,42.09,0.07,84.18,0.01,126.27c-0.01,8.87-7.25,15.88-16.07,15.96c-3.2,0.03-6.4,0.11-9.6-0.04
			c-1.93-0.09-2.69,0.47-3.14,2.47c-3.14,13.76-15.45,23.56-29.65,23.81c-13.82,0.24-26.78-9.65-30.03-23.32
			c-0.63-2.64-1.67-2.96-3.95-2.96c-39.29,0.06-78.58,0.07-117.88-0.03c-2.44-0.01-3.3,0.66-3.87,3
			c-3.31,13.62-15.75,23.29-29.71,23.31c-13.84,0.01-26.24-9.45-29.61-22.98c-0.71-2.85-1.9-3.35-4.53-3.32
			c-10.18,0.13-17.05-6.82-17.07-17.04c-0.03-11.5,0.01-22.99-0.02-34.49c-0.01-3.16,0.65-6.14,2.24-8.87
			c11.44-19.63,22.84-39.28,34.38-58.86c3.12-5.29,7.97-7.9,14.2-7.89c13.7,0.03,27.39-0.05,41.09,0.06c2.3,0.02,3.09-0.5,2.93-2.9
			c-0.23-3.48-0.06-6.99-0.06-10.49c0.01-10.97,6.7-17.71,17.72-17.73c27.39-0.03,54.79-0.01,82.18-0.01
			C263.4,68.53,277.6,68.53,291.8,68.53z M249.2,77.98c-27.3,0-54.59,0-81.89,0c-6.38,0-8.62,2.23-8.61,8.67
			c0.04,37.09,0.11,74.19,0.1,111.28c0,2.04,0.4,2.67,2.57,2.67c35.09-0.08,70.19-0.06,105.28-0.02c1.6,0,2.78-0.47,4-1.51
			c12.2-10.36,28.55-10.3,40.7,0.13c1.04,0.9,2.04,1.39,3.45,1.38c7.7-0.06,15.4-0.08,23.1,0.01c1.78,0.02,2.37-0.34,2.36-2.27
			c-0.06-37.69-0.04-75.39-0.07-113.08c0-4.77-2.78-7.24-7.91-7.24C304.59,77.98,276.89,77.98,249.2,77.98z M149.3,162.97
			c0-16.99-0.05-33.98,0.06-50.98c0.01-2.38-0.39-3.21-3.02-3.18c-13.19,0.15-26.39,0.14-39.58,0.02c-3.91-0.04-6.53,1.37-8.52,4.81
			c-10.8,18.72-21.73,37.36-32.65,56.01c-1.1,1.87-1.63,3.76-1.62,5.94c0.06,11.29,0.01,22.59,0.03,33.88
			c0.01,6.09,4.6,9.51,10.47,7.99c1.34-0.35,0.95-1.32,1.16-2.09c3.6-12.74,11.59-20.9,24.77-23.44
			c15.43-2.97,31.1,6.89,34.94,22.07c0.69,2.73,1.66,3.78,4.47,3.44c2.27-0.27,4.6-0.2,6.89-0.01c2.09,0.17,2.65-0.47,2.64-2.59
			c-0.1-14.89-0.05-29.79-0.05-44.68C149.3,167.77,149.3,165.37,149.3,162.97z M291.03,200.8c-11.93-0.07-21.5,9.43-21.51,21.35
			c-0.02,11.72,9.53,21.4,21.17,21.48c11.85,0.08,21.6-9.48,21.72-21.28C312.52,210.54,302.93,200.87,291.03,200.8z M84.45,222.33
			c-0.01,11.81,9.42,21.28,21.19,21.31c11.89,0.02,21.46-9.54,21.46-21.44c0-11.96-9.48-21.38-21.44-21.4
			C92.11,200.75,83.54,212.9,84.45,222.33z M262.46,209.98c-1.17,0-2.17,0-3.16,0c-32.38,0-64.77,0.04-97.15-0.06
			c-2.7-0.01-3.56,0.61-3.39,3.37c0.25,4.15,0.06,4.16,4.34,4.16c31.08,0,62.17-0.04,93.25,0.07c2.88,0.01,4.77-0.31,5.01-3.65
			C261.46,212.62,262.05,211.41,262.46,209.98z M319.47,209.98c0.58,2.19,1.13,4.18,1.63,6.18c0.23,0.89,0.69,1.32,1.67,1.3
			c3.97-0.09,7.96,0.03,11.92-0.22c2.8-0.18,5.18-2.86,5.46-5.49c0.12-1.15,0.02-1.82-1.47-1.8
			C332.33,210.03,325.98,209.98,319.47,209.98z M87.3,166.68c14.42,0,28.61-0.02,42.79,0.03c1.45,0,1.87-0.45,1.86-1.88
			c-0.05-12.1-0.06-24.19,0.01-36.29c0.01-1.68-0.6-1.95-2.08-1.93c-6.1,0.07-12.2,0.07-18.29,0c-1.28-0.02-1.95,0.43-2.56,1.5
			c-7.11,12.45-14.27,24.88-21.41,37.32C87.48,165.67,87.47,165.99,87.3,166.68z M290.86,226.25c2.26,0.04,4.27-1.94,4.23-4.14
			c-0.04-2.16-1.87-3.94-4.08-3.98c-2.32-0.04-4.3,1.88-4.24,4.13C286.81,224.35,288.73,226.21,290.86,226.25z"/>
		<path class="st0" d="M105.78,226.25c2.35-0.03,4.06-1.85,3.97-4.25c-0.08-2.23-1.83-3.9-4.06-3.88c-2.34,0.02-4.07,1.88-3.97,4.27
			C101.81,224.64,103.53,226.28,105.78,226.25z"/>
	</g>
</g>
</svg>
