<?xml version="1.0" encoding="utf-8"?>
<!-- Generator: Adobe Illustrator 23.0.5, SVG Export Plug-In . SVG Version: 6.00 Build 0)  -->
<svg version="1.1" id="Capa_1" xmlns="http://www.w3.org/2000/svg" xmlns:xlink="http://www.w3.org/1999/xlink" x="0px" y="0px"
	 viewBox="0 0 400 400" style="enable-background:new 0 0 400 400;" xml:space="preserve">
<style type="text/css">
	.st0{fill:#AF9760;}
	.st1{fill:none;stroke:#AB945E;stroke-width:7.2018;stroke-miterlimit:10;}
	.st2{fill:none;stroke:#AB945E;stroke-width:7.132;stroke-miterlimit:10;}
	.st3{fill:none;stroke:#AB945E;stroke-width:7.2564;stroke-miterlimit:10;}
	.st4{font-family:'Montserrat-Black';}
	.st5{font-size:41.7244px;}
	.st6{fill:#B49A61;}
	.st7{fill:none;stroke:#AB945E;stroke-width:7.0481;stroke-miterlimit:10;}
	.st8{fill:#B19963;}
</style>
<g>
	<path class="st3" d="M370.99,308.56H27.87c-5.11,0-9.25-4.14-9.25-9.25v-37.43c0-5.11,4.14-9.25,9.25-9.25h343.12
		c5.11,0,9.25,4.14,9.25,9.25v37.43C380.24,304.41,376.1,308.56,370.99,308.56z"/>
	<text transform="matrix(1 0 0 1 69.8957 297.0287)" class="st0 st4 st5">Plan - Sniffs</text>
	<path class="st6" d="M325.61,254.09c-1.48,1.74-3.37,2.12-5.61,2.12c-80.35-0.05-160.69-0.04-241.04-0.04
		c-0.82,0-1.65,0.04-2.46-0.07c-2.08-0.28-3.21-1.53-3.26-3.62c-0.05-2.14,1.2-3.33,3.19-3.74c0.79-0.16,1.64-0.06,2.46-0.06
		c10.57,0,21.14,0,32.42,0c-6.74-3.6-11.91-8.02-15.91-13.72c-17.97-25.61-3.05-61.08,27.84-66.21c4.49-0.75,8.98-0.73,13.48-0.05
		c0.91,0.14,1.83,0.56,2.3-0.92c1.46-4.58,3.09-9.1,4.72-13.82c-7.03,0-13.84-0.03-20.65,0.01c-6.5,0.03-12.72-1.13-18.43-4.33
		c-1.26-0.7-1.91-0.18-2.76,0.5c-9.27,7.47-14.82,17.11-16.83,28.82c-0.47,2.72-2.21,4.35-4.33,4c-2.27-0.37-3.48-2.15-3.05-5.01
		c1.9-12.74,7.83-23.31,17.37-31.91c0.61-0.55,1.24-1.07,1.95-1.69c-5.35-5.17-9.01-11.26-10.68-18.49
		c-0.6-2.57-0.88-5.17-0.83-7.81c0.05-2.53,1.43-3.92,3.99-3.95c4.52-0.05,9.04-0.05,13.56,0c2.38,0.03,3.98,1.66,3.93,3.81
		c-0.05,2.1-1.52,3.54-3.85,3.6c-2.63,0.07-5.27,0.15-7.88-0.02c-1.87-0.12-2,0.67-1.72,2.14c2.05,10.61,11.09,19.75,21.74,22.03
		c2.03,0.43,4.06,0.61,6.11,0.62c6.41,0.05,12.82,0.03,19.22,0.02c0.74,0,1.72,0.35,1.69-1.05c-0.07-4.02,0.3-8.1-0.21-12.06
		c-0.89-6.92-6.48-11.45-13.71-11.64c-3.2-0.08-6.41,0.01-9.61-0.02c-2.8-0.03-4.54-1.52-4.48-3.78c0.06-2.18,1.78-3.71,4.39-3.64
		c4.67,0.12,9.37-0.5,14.01,0.4c9.7,1.89,16.53,9.75,17.03,19.54c0.02,0.49,0.06,0.98,0.07,1.48c0.12,5.22,0.12,5.22,5.46,5.22
		c8.3,0,16.6,0.01,24.89-0.01c1.65,0,3.34-0.11,4.87,0.49c2.22,0.86,3.57-0.04,5.04-1.62c2.62-2.83,5.37-5.56,8.21-8.16
		c9.98-9.15,21.51-12,34.58-8.21c3.1,0.9,6.19,1.87,9.73,2.94c-1.63-4.78-3.12-9.07-4.54-13.38c-0.26-0.81-0.85-1.17-1.44-1.6
		c-1.33-0.96-2.75-1.8-4.01-2.84c-2.14-1.75-4.29-2.52-7.27-2.32c-7.26,0.49-13.83-5.38-14.5-12.29
		c-0.75-7.84,4.08-14.66,11.36-16.07c7.48-1.45,14.71,3.01,16.67,10.39c0.37,1.39,1.06,2.24,2.26,2.98c3.35,2.05,6.66,4.18,9.9,6.41
		c1.16,0.8,2.11,0.87,3.36,0.29c2.52-1.16,5.07-2.27,7.67-3.27c6.13-2.35,12.2,1.42,12.87,7.97c0.28,2.69,0.7,5.39,0.68,8.09
		c-0.01,2.11,0.99,2.9,2.73,3.6c7,2.78,11.98,7.58,14.33,14.86c3.98,12.36-2.82,25.35-15.29,29c-2,0.58-2.36,1.24-1.57,3.13
		c1.04,2.48,1.76,5.1,2.59,7.66c0.33,1.03,0.76,1.54,2.04,1.47c20.22-1.1,38.63,13.48,43,33.45c3.52,16.11-3.13,33.53-17.06,43.47
		c-0.51,0.37-1.03,0.73-2.09,1.48c5.8,0,11,0.09,16.2-0.04c2.26-0.05,3.99,0.53,5.18,2.49
		C325.61,252.12,325.61,253.11,325.61,254.09z M259.02,248.53c-0.25-0.26-0.33-0.39-0.44-0.47c-25.51-16.99-25.51-53.74-0.46-70.66
		c0.79-0.54,1.56-1.09,0.91-2.1c-0.96-1.5-0.12-4.23-2.96-4.45c-2.86-0.22-5.74-0.33-8.59-0.63c-1.54-0.17-2.27,0.32-2.95,1.75
		c-3.98,8.33-8.07,16.61-12.15,24.9c-5.45,11.06-13.81,19.06-25.35,23.45c-6.95,2.64-14.09,4.11-21.62,2.31
		c-4.23-1.01-8.54-2.03-12.95-0.44c-1,0.36-1.71,0.57-2.06,1.64c-3.58,10.97-10.7,18.96-21.11,24.72
		C186.1,248.53,222.48,248.53,259.02,248.53z M200.43,156.43c0.32,2.12,1.22,2.71,3.26,2.65c2.2-0.06,4.42,0.27,6.62,0.51
		c2.88,0.32,4.62,2.12,4.3,4.33c-0.33,2.3-2.33,3.54-5.21,3.27c-1.63-0.15-3.27-0.32-4.9-0.39c-1.02-0.05-1.67,0.69-2.08,1.48
		c-0.28,0.55,0.46,0.77,0.82,1.01c8.17,5.61,16.36,11.19,24.52,16.82c0.8,0.56,1.23,0.58,1.66-0.32c2.63-5.42,5.27-10.84,7.99-16.42
		c-3.4-0.25-6.58-0.42-9.74-0.73c-2.99-0.29-4.63-1.96-4.37-4.24c0.27-2.32,2.23-3.61,5.1-3.38c8.17,0.67,16.35,1.29,24.52,2.01
		c1.55,0.14,2.06,0.07,1.44-1.71c-2.9-8.32-5.69-16.68-8.44-25.05c-0.32-0.98-0.72-1.38-1.74-1.68c-4.47-1.29-8.87-2.83-13.33-4.12
		c-9.35-2.7-18.13-1.44-25.62,4.91c-3.79,3.21-6.87,7.24-10.29,10.93C197.48,148.86,199.8,152.23,200.43,156.43z M283.82,185.16
		c0.37,1.27,1.12,1.69,2.4,1.94c10.44,2,17.49,8.17,20.45,18.27c3.07,10.46,0.21,19.76-8.06,26.85c-8.2,7.04-17.74,8.3-27.56,3.85
		c-16.6-7.52-20.26-28.96-7.41-41.98c0.56-0.57,1.5-0.89,0.99-2.17c-1.01-2.55-1.78-5.2-2.66-7.85
		c-13.52,8.29-18.84,27.56-11.96,42.79c7.27,16.08,25.24,24.28,41.94,19.13c17.01-5.24,27.27-22.02,24.26-39.66
		c-2.78-16.33-18.52-29.37-34.77-28.53C282.27,180.35,283.11,182.74,283.82,185.16z M154.78,223c-1.4-0.06-2.15,0.49-2.92,1.64
		c-4.92,7.37-11.81,11.4-20.72,11.81c-16.53,0.77-29.66-14.38-26.48-30.54c2.27-11.55,10.77-19.42,22.86-21.15
		c5.91,1.48,6.79-2.83,8.04-6.88c0.38-1.25,0.38-1.67-1.05-1.87c-3.2-0.45-6.36-0.34-9.55,0.1c-18.62,2.57-32.23,20.58-29.5,39.14
		c3.29,22.35,25.77,35.85,46.84,28.01c9.82-3.66,16.55-10.56,20.43-20.22C159.86,223.03,157.32,223.1,154.78,223z M149.73,215.77
		c7.05-0.35,14.1-0.76,21.16-1.02c3.96-0.15,6.74-2.02,8.27-5.53c1.49-3.41,1.06-6.75-1.39-9.66c-2.53-3.01-5.81-3.89-9.54-2.97
		c-13.72,3.4-27.42,6.88-41.15,10.25c-1.69,0.41-2.29,0.94-1.74,2.76c0.47,1.55,0.48,3.23,0.66,4.86c0.17,1.55,0.59,2.39,2.56,2.26
		c7.04-0.46,14.11-0.68,21.16-0.99C149.73,215.75,149.73,215.76,149.73,215.77z M291.77,208.72c0.97,2.98,0.13,4.64-2.89,5.67
		c-3.55,1.22-7.12,2.4-10.7,3.53c-3.09,0.98-4.74,0.1-5.82-3.04c-1.55-4.52-3.08-9.05-4.64-13.63c-5.11,4.92-5.68,14.48-1.37,21.22
		c4.76,7.44,14.01,10.44,22.2,7.2c8.26-3.26,13.07-12.02,11.35-20.66c-1.35-6.81-7.53-13.42-12.55-13.44
		C288.83,199.94,290.33,204.32,291.77,208.72z M236.19,100.88c-0.74,0.88,0.35,1.05,0.78,1.38c1.38,1.03,2.74,2.11,4.22,2.98
		c2.17,1.28,3.33,3.11,4.13,5.51c10.69,31.99,21.46,63.95,32.22,95.92c1.08,3.22,1.08,3.16,4.41,2.1c1.32-0.42,1.71-0.85,1.21-2.32
		c-11.22-33.2-22.37-66.41-33.55-99.62c-0.27-0.81-0.46-1.66-1.37-2.22c-3.08-1.88-6.08-3.87-9.11-5.83
		c-0.27-0.18-0.54-0.36-0.86-0.56C237.19,98.83,236.9,100.03,236.19,100.88z M177.84,190.32c9.28,5.4,12.02,13.49,7.68,23.08
		c-0.68,1.5-0.14,1.56,1.05,1.79c9.45,1.84,17.73-1.1,25.59-6.01c1.58-0.98,1.94-1.48,0.07-2.71c-8.68-5.74-17.25-11.63-25.85-17.48
		c-4.72-3.2-4.71-3.21-9.04,0.81C177.51,189.97,177.64,190.2,177.84,190.32z M286.16,134.43c-0.02-0.32-0.11-0.64-0.17-0.97
		c-1.27-7.26-6.36-10.88-12.69-13.36c-1.17-0.46-1.42,0.28-1.78,1.02c-1.64,3.38-3.26,6.77-4.95,10.13
		c-0.37,0.73-0.38,1.36-0.13,2.09c1.91,5.64,3.83,11.27,5.69,16.93c0.31,0.93,0.6,1.16,1.69,0.96c7.02-1.34,12.35-7.74,12.34-15.07
		C286.17,135.58,286.19,135.01,286.16,134.43z M218.64,201.8c0.9,0.61,1.35,0.48,1.97-0.33c1.6-2.08,3.04-4.26,4.31-6.56
		c0.47-0.85,0.46-1.32-0.44-1.93c-9.14-6.22-18.25-12.48-27.35-18.76c-0.71-0.49-1.21-0.59-1.92,0.04c-2.37,2.13-4.8,4.19-7.48,6.52
		C198.2,187.89,208.44,194.82,218.64,201.8z M181.34,148.39c-9.93-0.15-19.87-0.03-29.8-0.08c-1.48-0.01-1.64,0.52-1.24,1.77
		c1.2,3.72,4.84,6.78,9.06,6.83c11.07,0.15,22.14,0.05,33.24,0.05C191.54,152.07,187.03,148.47,181.34,148.39z M124.53,224.45
		c-3.53,0.14-4.75-0.86-5.3-4.33c-0.6-3.8-0.94-7.65-1.66-11.42c-1.52-7.97,0.9-7.67,6.13-8.62c3.81-0.69,5.52-2.47,6.36-6.03
		c0.43-1.8,0.09-1.86-1.46-1.75c-7.06,0.5-13.53,5.3-15.82,12.15c-2.46,7.36-0.88,13.97,4.65,19.39c7.09,6.94,19.05,6.83,25.34-0.27
		C136.5,223.88,130.52,224.21,124.53,224.45z M175.38,178c1.54,1.57,2.57,1.56,4.05,0.03c1.48-1.52,3.21-2.8,4.82-4.2
		c3.48-3.02,6.96-6.05,10.71-9.31c-10.51,0-20.54,0-30.92,0C167.47,169.57,171.31,173.87,175.38,178z M137.11,196.59
		c1.5-0.35,2.51-0.71,3.55-0.79c2.4-0.2,3.34-1.64,4.04-3.78c2.51-7.68,5.2-15.3,7.81-22.95c0.58-1.7,1.83-3.62,1.43-5.07
		c-0.44-1.63-3.09-1.68-4.63-3.03C145.24,172.82,141.23,184.54,137.11,196.59z M218.15,91.96c0.09,3.64,3.18,6.68,6.81,6.7
		c3.69,0.03,6.93-3.19,6.9-6.88c-0.02-3.71-3.23-6.84-6.95-6.79C221.21,85.05,218.06,88.29,218.15,91.96z M267.54,103.85
		c-0.57-2.21-1.13-2.93-3.21-2.11c-2.05,0.8-4.07,1.69-6.12,2.52c-0.85,0.34-1.37,0.67-0.98,1.79c1.83,5.24,3.58,10.5,5.41,15.91
		C265.63,116.15,269.32,110.79,267.54,103.85z M170.65,185.55c0.51-0.44,1.06-0.82,0.27-1.54c-4.11-3.74-7.71-7.96-11.26-12.48
		c-0.6,1.66-1.04,3.07-1.62,4.42c-0.62,1.45-0.46,2.42,0.87,3.55c3.08,2.61,5.51,5.83,7.74,9.5
		C168.04,187.79,169.34,186.67,170.65,185.55z M158.1,191.39c0.83-0.13,0.77-0.68,0.32-1.23c-1.15-1.42-2.11-3.01-3.79-4.12
		c-0.74,2.19-1.43,4.23-2.19,6.49C154.58,192.56,156.29,191.67,158.1,191.39z"/>
</g>
</svg>
