<?xml version="1.0" encoding="utf-8"?>
<!-- Generator: Adobe Illustrator 23.0.5, SVG Export Plug-In . SVG Version: 6.00 Build 0)  -->
<svg version="1.1" id="Capa_1" xmlns="http://www.w3.org/2000/svg" xmlns:xlink="http://www.w3.org/1999/xlink" x="0px" y="0px"
	 viewBox="0 0 400 400" style="enable-background:new 0 0 400 400;" xml:space="preserve">
<style type="text/css">
	.st0{fill:#AF9760;}
	.st1{fill:none;stroke:#AB945E;stroke-width:7.2018;stroke-miterlimit:10;}
	.st2{fill:none;stroke:#AB945E;stroke-width:7.132;stroke-miterlimit:10;}
	.st3{fill:none;stroke:#AB945E;stroke-width:7.2564;stroke-miterlimit:10;}
	.st4{fill:#B49A61;}
	.st5{fill:none;stroke:#AB945E;stroke-width:7.0481;stroke-miterlimit:10;}
	.st6{font-family:'Montserrat-Black';}
	.st7{font-size:36.4976px;}
	.st8{fill:#B19963;}
</style>
<g>
	<g>
		<path class="st4" d="M213.19,253.54c-0.26-0.1-0.32-0.31-0.3-0.55c0.03-0.33,0.24-0.53,0.56-0.53c0.05,0,0.15,0.4,0.14,0.62
			C213.58,253.3,213.52,253.56,213.19,253.54z"/>
		<path class="st4" d="M212.67,250.63c0.31,0.26,0.53,0.56,0.44,0.97c-0.01,0.06-0.38,0.14-0.43,0.09
			C212.43,251.36,212.32,251,212.67,250.63z"/>
		<path class="st4" d="M182.34,122.47c-1.5,0.03-2.79-1.19-2.86-2.72c-0.07-1.65,1.11-2.93,2.75-2.96c1.57-0.03,2.8,1.12,2.87,2.67
			C185.16,121.08,183.92,122.43,182.34,122.47z"/>
		<path class="st4" d="M159.69,122.47c-1.58-0.06-2.8-1.42-2.72-3.04c0.07-1.55,1.31-2.68,2.89-2.64c1.64,0.04,2.82,1.34,2.73,2.99
			C162.5,121.3,161.18,122.52,159.69,122.47z"/>
		<path class="st4" d="M249.87,156.28c3.26,0.01,5.72,2.53,5.58,5.69c-0.05,1.17-0.58,1.98-1.62,2.49c-1.42,0.7-1.73,2.58-0.58,3.71
			c0.96,0.95,2.11,1.65,3.28,2.33c1.7,1,2.2,2.48,1.43,3.96c-0.81,1.54-2.42,1.94-4.22,1.02c-0.05-0.03-0.09-0.07-0.14-0.1
			c-1.27-0.81-2.55-2.26-3.81-2.25c-1.28,0.01-2.5,1.54-3.81,2.29c-1.79,1.01-3.4,0.62-4.25-0.89c-0.84-1.52-0.29-3,1.47-4.1
			c0.99-0.61,1.93-1.32,2.9-1.97c1.29-0.86,0.86-2.17,0.9-3.36c0.02-0.42-0.37-0.32-0.62-0.43c-2.06-0.92-2.63-2.19-1.97-4.36
			C245.19,157.73,247.16,156.27,249.87,156.28z"/>
		<path class="st4" d="M238.56,153.48c0,1.65-1.26,2.85-2.91,2.8c-1.57-0.05-2.72-1.24-2.71-2.82c0-1.65,1.25-2.85,2.91-2.8
			C237.42,150.7,238.57,151.89,238.56,153.48z"/>
		<path class="st4" d="M263.94,156.28c-1.58,0.03-2.8-1.11-2.86-2.67c-0.07-1.66,1.11-2.92,2.75-2.95c1.66-0.03,2.88,1.19,2.87,2.84
			C266.69,155.07,265.52,156.25,263.94,156.28z"/>
		<path class="st4" d="M111.94,246.68c0-1.41,0-2.81,0-4.22c0.41-1.75,1.68-2.25,3.29-2.27c2.93-0.04,5.86-0.03,8.79,0
			c1.21,0.01,1.61-0.39,1.54-1.66c-0.62-10.97,1.82-21.43,5.55-31.64c1.41-3.86,3.07-7.61,5.02-11.23c0.52-0.97,0.59-2,0.61-3.07
			c0.06-3.05-0.23-6.1,0.16-9.14c0.72-5.57,2.7-10.66,6.12-15.15c0.6-0.78,0.76-1.38-0.16-2.04c-4.63-3.28-6.9-8.04-8.06-13.38
			c-0.38-1.74-1.15-2.74-2.78-3.44c-10.08-4.3-14.71-15.96-10.79-26.01c0.47-1.21,1.07-2.34,1.85-3.38
			c4.65-6.26,9.25-12.55,13.98-18.75c1.83-2.4,4.05-4.38,6.72-5.83c2.39-1.31,4.95-1.8,7.64-1.61c1.96,0.14,3.58-0.45,5.22-1.58
			c6.41-4.4,13.54-4.8,20.92-3.41c3.11,0.59,5.91,1.89,8.44,3.78c1.14,0.85,2.34,1.31,3.75,1.2c6.8-0.57,11.68,2.71,15.57,7.86
			c4.1,5.42,8.26,10.81,12.18,16.37c0.88,1.25,1.74,1.79,3.35,1.31c2.23-0.66,4.27,0.13,6.09,1.5c2.44,1.82,4.9,3.63,7.31,5.5
			c1.09,0.85,2.1,0.93,3.41,0.48c8.09-2.79,16.23-2.8,24.32,0c1.4,0.48,2.43,0.3,3.56-0.57c2.5-1.94,5-3.89,7.61-5.68
			c3.7-2.52,8.01-1.54,10.16,2.18c0.7,1.22,0.82,2.54,0.82,3.9c-0.01,7.33-0.01,14.66,0,21.98c0,2.26,0.09,2.32,2.29,1.9
			c0.63-0.12,1.26-0.28,1.9-0.34c2.09-0.21,3.47,0.6,3.81,2.24c0.48,2.3-0.29,3.67-2.47,4.32c-1.35,0.4-2.75,0.6-4.12,0.89
			c-0.95,0.2-1.41,0.73-1.41,1.7c0,1.7,0.01,3.4,0,5.1c-0.01,1,0.48,1.48,1.43,1.67c1.38,0.28,2.78,0.48,4.13,0.89
			c2.17,0.65,2.94,2.03,2.46,4.33c-0.34,1.64-1.73,2.47-3.81,2.23c-1.34-0.16-2.65-0.49-3.97-0.75c-1.03-0.2-1.67,0.13-2.06,1.12
			c-1.49,3.75-3.85,6.83-7.25,9.04c-0.83,0.54-0.86,1.09-0.38,1.9c2.55,4.27,3.92,8.88,3.86,13.88c-0.01,1.04,0.47,1.91,0.95,2.79
			c5.56,10.34,9.16,21.3,10.21,33.03c0.22,2.5,0.17,5.04-0.05,7.55c-0.07,0.77-0.2,1.57,0.36,2.18c2.62,2.87,2.21,6.38,2.19,9.83
			c-0.03,4.77-5.56,9.6-10.47,9.57c-1.93-0.01-3.87,0.01-5.8,0.01c-17.47,0-34.94-0.08-52.41,0.06c-4.57,0.04-7.95-1.47-10.14-5.51
			c-0.6,0.28-0.68,0.86-0.96,1.27c-1.81,2.66-4.27,4.13-7.52,4.17c-3.28,0.04-6.57,0.01-9.85,0.01c-20.99,0-41.97,0-62.96,0
			c-8.81,0-15.87-4.71-19.27-12.8C112.21,249.56,112.39,248.07,111.94,246.68z M199.15,187.44c-0.06-7.44-2.77-13.78-8.25-18.89
			c-0.78-0.72-1.55-1.05-2.64-1.04c-11.49,0.04-22.98,0.04-34.47,0c-1.09,0-1.86,0.32-2.64,1.04c-5.53,5.16-8.24,11.55-8.26,19.06
			c-0.04,17.82-0.01,35.64-0.01,53.46c0,1.69-0.58,3.9,0.26,4.93c0.88,1.07,3.18,0.22,4.86,0.33c0.06,0,0.12,0,0.18,0
			c1.95,0.04,3.11,1.06,3.14,2.76c0.03,1.78-1.15,2.85-3.21,2.86c-3.46,0.02-6.92-0.02-10.37,0.01c-1.93,0.02-3.21,1.12-3.27,2.72
			c-0.06,1.64,1.28,2.89,3.28,2.89c7.15,0.02,14.3,0.02,21.45,0c2.25-0.01,3.34-1.1,3.38-3.33c0.03-1.7-0.01-3.4,0.01-5.1
			c0.02-1.57,0.87-2.5,2.38-2.8c2.57-0.51,3.23-1.25,3.24-3.87c0.01-3.87-0.07-7.74,0.04-11.6c0.04-1.35-0.49-1.61-1.65-1.81
			c-6.08-1.08-10.16-4.47-11.75-10.56c-1.3-4.95-0.79-9.88,0.37-14.76c1.28-5.4,3.32-10.47,7-14.72c2.24-2.59,4.92-4.5,8.54-4.59
			c3.92-0.1,6.88,1.85,9.17,4.73c6.1,7.67,8.58,16.59,7.83,26.24c-0.58,7.53-4.94,12.61-12.82,13.74c-0.85,0.12-1.13,0.49-1.12,1.38
			c0.05,4.1,0,8.21,0.03,12.31c0.02,2.26,0.83,3.14,3.06,3.51c1.7,0.28,2.52,1.22,2.55,2.99c0.03,1.58-0.01,3.17,0.01,4.75
			c0.03,2.45,1.08,3.51,3.56,3.51c6.98,0.01,13.95,0.01,20.93,0c2.28,0,3.7-1.15,3.63-2.9c-0.06-1.7-1.41-2.72-3.63-2.73
			c-3.4-0.01-6.8,0.02-10.2-0.01c-1.91-0.01-3.06-1.14-3.04-2.86c0.02-1.64,1.15-2.72,2.96-2.76c1.29-0.03,2.59-0.1,3.87,0.02
			c1.27,0.11,1.66-0.22,1.65-1.59c-0.07-9.73-0.04-19.46-0.04-29.19C199.17,206.2,199.22,196.82,199.15,187.44z M196.73,160.28
			c1.42-1.35,2.45-2.98,3.16-4.79c2.76-7.04,2.98-14.18,0.16-21.2c-2.65-6.6-5.32-13.18-7.6-19.92c-1.12-3.31-2.53-6.52-4.2-9.6
			c-3.22-5.91-7.82-9.77-14.83-10.29c-7.91-0.59-14.43,1.59-18.68,8.76c-1.28,2.16-2.45,4.38-3.4,6.7
			c-2.94,7.17-4.99,14.68-8.3,21.71c-2.62,5.56-3.5,11.34-2.64,17.41c0.52,3.7,1.62,7.17,3.94,10.16c1.69,2.18,3.3,2.87,5.44,2.47
			c-1.44-3.39-1.73-4.63-0.87-9.58c1.47-8.49,4.98-16.05,11.3-22.07c6.69-6.36,14.88-6.35,21.62-0.03
			c5.17,4.84,8.34,10.91,10.29,17.64c1.36,4.69,2.44,9.42,0.08,14.18C194.06,162.15,195.49,161.46,196.73,160.28z M223.38,150.86
			c-0.53,1.64-0.44,2.38,1.47,2.65c1.84,0.26,2.68,1.6,2.45,3.23c-0.23,1.56-1.64,2.76-3.33,2.28c-2.17-0.61-2.31,0.45-2.25,2.03
			c0.02,0.58,0.03,1.17-0.02,1.76c-0.14,1.64,0,2.66,2.2,2.01c1.69-0.5,3.13,0.67,3.4,2.2c0.28,1.62-0.62,2.88-2.36,3.34
			c-0.4,0.1-0.79,0.28-1.19,0.28c-0.95,0-0.84,0.51-0.59,1.11c0.7,1.69,1.62,3.25,2.96,4.52c2.75,2.6,6.18,3.69,9.79,4.31
			c7.85,1.34,15.75,1.28,23.64,0.61c3.78-0.32,7.54-0.95,10.97-2.76c3.13-1.65,5.25-4.14,6.26-7.61c-0.83-0.18-1.59-0.29-2.31-0.5
			c-1.48-0.43-2.31-1.73-2.1-3.22c0.21-1.44,1.41-2.3,3-2.39c0.84-0.05,1.86,0.96,2.39,0.06c0.42-0.71,0.17-1.82,0.21-2.76
			c0.01-0.35-0.03-0.7-0.02-1.05c0.09-1.56-0.11-2.51-2.17-1.94c-1.7,0.48-3.14-0.67-3.4-2.2c-0.29-1.68,0.64-2.91,2.53-3.36
			c0.62-0.15,1.24-0.31,1.93-0.48c-1.97-7.7-5.72-14.1-12.93-18.48c0,1.84,0.04,3.4-0.01,4.95c-0.05,1.65-1.2,2.75-2.77,2.76
			c-1.58,0.01-2.75-1.07-2.82-2.71c-0.05-1.23-0.01-2.46-0.01-3.69c0-4.2-0.1-4.26-4.39-4.56c-1-0.07-1.28,0.13-1.27,1.16
			c0.06,3.87,0.03,7.73,0.02,11.6c0,2.61-0.87,3.81-2.77,3.83c-1.92,0.03-2.85-1.19-2.86-3.75c0-2.93,0-5.86,0-8.79
			c0-4.72-0.17-4.81-4.77-3.4c-0.74,0.23-0.88,0.52-0.87,1.19c0.03,2.11,0.05,4.22,0,6.33c-0.04,1.67-1.17,2.77-2.74,2.8
			c-1.65,0.03-2.82-1.1-2.86-2.85c-0.04-1.52-0.01-3.03-0.01-4.86C229.24,138.45,225.58,144.07,223.38,150.86z M242.43,240.67
			c1.49,0.1,3.55,0.68,4.34-0.29c0.75-0.93,0.18-2.91,0.25-4.42c0.04-0.82-0.19-1.15-1.06-1.4c-3.53-1.04-5.74-3.44-6.72-6.98
			c-1.33-4.85-0.69-9.64,0.59-14.37c0.95-3.52,2.27-6.89,4.88-9.57c3.11-3.17,7.1-3.15,10.23,0c1.04,1.05,1.89,2.25,2.55,3.56
			c2.73,5.45,4,11.23,3.5,17.3c-0.31,3.8-1.47,7.62-5.28,9.06c-3.08,1.17-3.43,2.95-3.08,5.57c0.02,0.17,0.03,0.36,0,0.53
			c-0.14,0.88,0.28,1.06,1.09,1.05c5.8-0.03,11.61-0.04,17.41,0.01c1.04,0.01,1.23-0.34,1.23-1.29c-0.05-4.51-0.13-9.03,0.03-13.54
			c0.07-1.86-0.52-2.22-2.21-2.12c-2.25,0.14-3.45-0.93-3.47-2.74c-0.02-1.85,1.16-2.96,3.4-2.81c1.79,0.12,2.54-0.35,2.25-2.22
			c-0.17-1.08,0.25-2.42-0.26-3.23c-0.43-0.68-1.85-0.13-2.82-0.23c-1.53-0.16-2.56-1.28-2.56-2.8c0-1.53,1.02-2.67,2.55-2.8
			c0.64-0.05,1.3-0.07,1.93,0c0.94,0.11,1.18-0.26,1.16-1.17c-0.06-2.58,0.04-5.16-0.05-7.74c-0.15-4.2-1.47-8.01-3.96-11.41
			c-0.57-0.77-1.16-0.97-2.08-0.8c-10.93,2.06-21.88,1.98-32.81,0.02c-1.01-0.18-1.65,0.06-2.21,0.87c-1.48,2.13-2.61,4.4-3.27,6.92
			c-0.95,3.64-0.58,7.33-0.64,11.01c-0.04,2.24-0.01,2.25,2.3,2.27c2.11,0.02,3.29,1,3.32,2.76c0.03,1.84-1.16,2.85-3.39,2.87
			c-2.24,0.02-2.25,0.02-2.23,2.34c0.01,1.04-0.29,2.33,0.22,3.06c0.48,0.7,1.85,0.14,2.83,0.24c1.53,0.15,2.57,1.27,2.58,2.79
			c0.01,1.51-1.03,2.69-2.54,2.81c-0.7,0.06-1.41,0.06-2.11,0c-0.77-0.06-0.99,0.21-0.99,0.98c0.03,6.86,0.01,13.72,0.03,20.58
			c0,0.35-0.25,0.87,0.41,0.97c1.52,0.23,2.18,1.33,2.57,2.79C231.63,244.41,235.61,240.23,242.43,240.67z M219.64,203.81
			c1.3-2.39,2.42-4.72,2.12-7.57c-0.11-1.06,0.29-2.19,0.5-3.28c0.69-3.45,2.25-6.53,4.23-9.48c-4.33-2.35-7.3-5.71-8.77-10.25
			c-0.42-1.28-1.08-1.27-2.07-1.05c-1.54,0.34-3.07,0.72-4.63,0.94c-1.77,0.26-3.14-0.73-3.39-2.27c-0.26-1.63,0.64-2.9,2.39-3.3
			c1.65-0.38,3.3-0.78,4.98-1c0.94-0.13,1.13-0.5,1.1-1.36c-0.07-2.11-0.1-4.22-0.03-6.33c0.04-1.09-0.25-1.53-1.41-1.64
			c-1.44-0.14-2.86-0.57-4.28-0.89c-2.12-0.48-3.12-1.78-2.74-3.52c0.37-1.67,1.95-2.46,4.05-2.02c1.41,0.29,2.83,0.58,4.28,0.87
			c0-2.24,0-4.38,0-6.8c-2.05,1.9-4.07,3.55-6.52,4.29c-1.81,0.54-2.26,1.6-2.64,3.26c-1.3,5.71-3.53,10.92-8.93,14.05
			c-1.02,0.59-0.19,0.96,0.1,1.31c2.32,2.9,4.05,6.13,5.29,9.63c1.76,4.97,1.58,10.13,1.5,15.28c-0.02,1.27,0.25,2.38,0.83,3.51
			c3.55,6.8,6.2,13.94,8.19,21.76C215.5,212.8,217.27,208.17,219.64,203.81z M176.09,193.42c-3.39-4.45-6.84-4.46-10.18,0.08
			c-4.47,6.06-6.34,13.01-6.04,20.44c0.26,6.27,2.9,8.85,9.1,9.74c1.76,0.25,3.5,0.09,5.25-0.17c4.13-0.6,6.73-2.87,7.62-6.89
			c0.3-1.36,0.37-2.78,0.5-3.86C181.9,205.55,180.35,199.03,176.09,193.42z M182.78,161.2c4.05-0.63,5.51-2.43,5.05-6.29
			c-0.87-7.27-3.7-13.72-8.51-19.23c-5.43-6.22-11.16-6.22-16.6,0.01c-4.68,5.37-7.45,11.65-8.44,18.71
			c-0.59,4.14,0.88,6.14,5.05,6.82c3.83,0.62,7.69,0.64,11.55,0.7C174.86,161.87,178.84,161.82,182.78,161.2z M213.84,123.55
			c-4.55-6.24-9.16-12.43-13.85-18.56c-1.94-2.54-4.34-4.55-7.91-5.02c1.52,2.62,2.85,5.13,3.91,7.76c2.98,7.4,5.2,15.09,8.53,22.36
			c1.94,4.25,3.11,8.67,3.1,13.52C215.26,140.72,218.55,130.02,213.84,123.55z M137.02,131.34c4.82-10.19,7.08-21.41,12.94-31.38
			c-3.71,0.56-6.12,2.69-8.13,5.35c-4.27,5.65-8.41,11.39-12.72,17c-2.59,3.37-3.56,7.04-2.76,11.17c0.92,4.71,3.6,8.07,8.08,10.3
			C134.43,139.29,135.21,135.17,137.02,131.34z M280.77,257.57c4.03-0.04,6.5-3.45,5.37-7.33c-0.84-2.89-2.85-3.99-6.93-3.94
			c-0.99,0.01-1.35,0.26-1.25,1.26c0.07,0.75,0.13,1.56-0.06,2.27c-0.4,1.47-1.45,2.22-3.01,2.11c-1.53-0.11-2.49-1.25-2.55-2.99
			c-0.08-2.63-0.08-2.63-2.65-2.63c-2.82,0-2.82,0-2.98,2.82c-0.09,1.67-1.17,2.77-2.74,2.8c-1.65,0.04-2.8-1.09-2.88-2.84
			c-0.03-0.58-0.06-1.18,0.01-1.76c0.1-0.89-0.29-1.07-1.1-1.05c-2.11,0.05-4.22,0.06-6.32,0c-0.88-0.03-1.06,0.29-1.05,1.1
			c0.04,2.99,0.06,5.97-0.01,8.96c-0.02,1.02,0.31,1.25,1.28,1.24c4.51-0.05,9.02-0.02,13.53-0.02
			C271.87,257.58,276.32,257.62,280.77,257.57z M251.47,208.36c-1.22-1.8-2.13-1.84-3.28-0.01c-3.31,5.29-4.62,11.06-3.59,17.26
			c0.24,1.48,1.05,2.74,2.54,3.36c3.97,1.66,7.35-0.18,8.06-4.38c0.15-0.86,0.21-1.74,0.29-2.34
			C255.15,217.13,254.25,212.46,251.47,208.36z M131.69,236.47c0.05,3.22,0.57,6.39,1.79,9.41c0.79,1.95,2.1,0.14,3.14,0.42
			c0.87,0.23,0.64-0.6,0.64-1.06c0.01-12.05,0.01-24.11,0.01-36.16C133.72,217.9,131.54,226.97,131.69,236.47z M204.8,226.29
			c0,6.2-0.01,12.41,0.02,18.61c0,0.47-0.45,1.15,0.46,1.44c2.64,0.84,2.95,0.71,3.8-1.96c1.5-4.72,1.51-9.53,1.03-14.4
			c-0.72-7.22-2.52-14.16-5.31-20.89C204.8,214.82,204.8,220.55,204.8,226.29z M220.47,246.42c1.26,0,1.21-0.63,1.21-1.51
			c-0.02-8.03-0.01-16.05-0.01-24.08c0-2.37,0-4.75,0-7.12c-4.15,10.88-7.45,21.84-4.32,33.58
			C218.57,246.92,219.52,246.42,220.47,246.42z M247.02,247.42c0.03-0.8-0.14-1.15-1.04-1.11c-1.64,0.07-3.28-0.03-4.92,0.03
			c-3.12,0.12-5.3,2.43-5.31,5.58c-0.01,3.16,2.13,5.5,5.24,5.64c1.64,0.07,3.28-0.05,4.92,0.04c1.03,0.06,1.13-0.4,1.11-1.23
			c-0.05-1.52-0.01-3.05-0.01-4.57C247.01,250.35,246.97,248.88,247.02,247.42z M277.97,236.7c0,1.28-0.4,2.94,0.24,3.72
			c0.68,0.84,2.43,0.06,3.67,0.31c1.56,0.31,1.73-0.47,1.72-1.71c-0.08-8.81-2.15-17.19-5.63-25.32
			C277.96,221.37,277.96,229.03,277.97,236.7z M129.09,257.19c-0.32-1.16-0.6-2.44-0.19-3.43c1.01-2.41,0.03-4.36-0.97-6.38
			c-0.03-0.05-0.06-0.11-0.07-0.16c-0.09-0.73-0.52-0.91-1.21-0.9c-2.87,0.03-5.74,0.01-8.72,0.01
			C119.39,252.28,123.63,256.38,129.09,257.19z M230.34,131.2c-2.52-1.88-4.86-3.61-7.19-5.37c-0.83-0.63-1.44-0.62-1.45,0.57
			c-0.03,4.58-0.01,9.17-0.01,14.24C224.17,136.73,226.89,133.69,230.34,131.2z M277.96,135.7c0-2.98,0.01-5.96,0-8.94
			c0-0.76-0.01-1.86-1.15-1.09c-2.53,1.71-4.92,3.61-7.5,5.54c3.5,2.55,6.2,5.56,8.66,9.45
			C277.96,138.68,277.96,137.19,277.96,135.7z M230.22,254c-0.16-1.14-0.04-2.31-0.04-3.47c-1.09,1.36-2.47,1.52-3.98,1.45
			c-1.34-0.07-2.69-0.04-4.04-0.01c-1.94,0.04-3.22,1.11-3.29,2.7c-0.06,1.52,1.29,2.86,3.12,2.9c3.04,0.06,6.08,0.02,9.24,0.02
			C230.84,256.22,230.39,255.13,230.22,254z M173.89,252.75c0.16-1.82-1.55-1.6-2.28-2.43c-0.66-0.76-1.08,0.15-1.62,0.31
			c-1.69,0.49-1.95,1.67-1.79,3.21c0.13,1.2,0.07,2.43-0.37,3.67c2.18,0,4.26,0,6.45,0C173.63,255.89,173.75,254.29,173.89,252.75z
			 M182.28,153.52c0.03-1.82-1.04-2.73-3.39-2.89c-1.17-0.08-2.34-0.23-3.39-0.79c-1.12-0.59-1.67-1.5-1.69-2.84
			c-0.02-1.18,0.06-2,1.46-2.41c0.98-0.29,1.38-1.32,1.4-2.42c0.05-2.86-2.19-5.39-4.98-5.58c-3.3-0.22-5.9,1.78-6.26,4.81
			c-0.2,1.71,0.34,3.02,2.09,3.56c0.44,0.13,0.65,0.21,0.72,0.74c0.38,2.66-0.61,4.13-3.28,4.65c-0.86,0.17-1.74,0.22-2.61,0.32
			c-1.55,0.17-2.57,1.27-2.57,2.79c-0.01,1.59,1.08,2.75,2.72,2.82c2.75,0.12,5.37-0.39,7.68-1.95c0.62-0.42,1-0.53,1.66-0.05
			c2.01,1.45,4.34,1.93,5.94,1.99C181.03,156.3,182.25,155.38,182.28,153.52z"/>
	</g>
	<path class="st5" d="M368.74,317.03H35.47c-4.96,0-8.99-4.02-8.99-8.99v-36.36c0-4.96,4.02-8.99,8.99-8.99h333.26
		c4.96,0,8.99,4.02,8.99,8.99v36.36C377.72,313,373.7,317.03,368.74,317.03z"/>
	<text transform="matrix(1 0 0 1 65.2765 304.8488)" class="st0 st6 st7">Plan - Mensual</text>
</g>
</svg>
