<?xml version="1.0" encoding="utf-8"?>
<!-- Generator: Adobe Illustrator 23.0.5, SVG Export Plug-In . SVG Version: 6.00 Build 0)  -->
<svg version="1.1" id="Capa_1" xmlns="http://www.w3.org/2000/svg" xmlns:xlink="http://www.w3.org/1999/xlink" x="0px" y="0px"
	 viewBox="0 0 400 400" style="enable-background:new 0 0 400 400;" xml:space="preserve">
<style type="text/css">
	.st0{fill:#AF9760;}
	.st1{fill:none;stroke:#AB945E;stroke-width:7.2018;stroke-miterlimit:10;}
	.st2{fill:none;stroke:#AB945E;stroke-width:7.132;stroke-miterlimit:10;}
	.st3{font-family:'Montserrat-Black';}
	.st4{font-size:35.5685px;}
</style>
<g>
	<g>
		<path class="st0" d="M195.09,152.67c2.77,0,5.54,0.01,8.3,0c1.92-0.01,2.33,0.42,2.47,2.3c0.15,1.86,0.12,3.71-0.04,5.57
			c-0.01,0.14-0.01,0.29-0.02,0.43c-0.19,2.31-1.19,3.27-3.53,3.52c-3.05,0.32-6.1,0.17-9.15,0.2c-2.72,0.02-5.44,0.02-8.16,0.02
			c-0.48,0-0.96,0.01-1.42-0.07c-1.04-0.19-1.41-0.54-1.54-1.58c-0.32-2.52-0.36-5.04,0.07-7.56c0.22-1.3,1.03-2.14,2.32-2.43
			c0.88-0.2,1.78-0.34,2.69-0.34c2.67,0.02,5.35,0.01,8.02,0.01C195.09,152.71,195.09,152.69,195.09,152.67z"/>
		<path class="st0" d="M317.84,217.45c0.28,9.31-8.1,17.82-17.71,17.85c-9.03,0.02-17.84-7.69-17.88-17.73
			c-0.03-9.85,8.48-17.98,17.84-17.92C310.02,199.7,318.14,208.37,317.84,217.45z"/>
		<path class="st0" d="M99.7,235.24c-8.76,0.23-17.78-7.18-17.83-17.73c-0.05-10.26,8.78-17.91,17.88-17.89
			c8.85,0.02,17.77,7.6,17.77,17.87C117.51,227.59,108.77,235.45,99.7,235.24z"/>
		<path class="st0" d="M23.09,251.7c0.01-2.84,1.78-4.9,4.61-5.3c1.08-0.16,2.17-0.26,3.28-0.25c11.31,0.02,22.63,0.01,33.94,0.01
			c0.48,0,0.96,0.01,1.43-0.06c1.07-0.16,1.29-0.61,0.75-1.58c-0.21-0.37-0.49-0.71-0.76-1.04c-3.39-4.17-5.68-8.91-7.2-14.04
			c-0.23-0.78-0.45-1.56-0.74-2.31c-0.51-1.31-1.49-2.05-2.88-2.27c-0.76-0.12-1.51-0.21-2.28-0.17
			c-6.53,0.29-13.07,0.17-19.61,0.09c-1.89-0.02-3.81,0.07-5.69-0.4c-3.14-0.8-4.84-2.93-4.84-6.19c0-11.93,0-23.87,0-35.8
			c0-0.48-0.06-0.98,0.07-1.42c1.2-4.41,2.02-8.93,3.88-13.15c2.9-6.57,6.67-12.55,11.73-17.67c7.11-7.18,15.74-11.62,25.5-14.01
			c3.99-0.98,8.06-1.46,12.12-2.02c4.48-0.62,8.97-1.25,13.45-1.88c3.77-0.53,7.55-1.05,11.32-1.58c2.12-0.3,4.25-0.57,6.37-0.9
			c1.4-0.22,2.6-0.92,3.73-1.74c3.59-2.61,7.22-5.16,10.93-7.6c14.05-9.25,28.92-16.85,44.9-22.2c9-3.02,18.17-5.41,27.52-7.12
			c5.02-0.92,10.06-1.64,15.13-2.17c3.13-0.33,6.27-0.53,9.41-0.7c4.25-0.24,8.49-0.27,12.74-0.22c5.72,0.07,11.43,0.48,17.13,1.07
			c10.07,1.05,19.99,2.89,29.77,5.51c15.28,4.1,29.8,10.07,43.58,17.83c1.91,1.08,3.79,2.22,5.7,3.3c3.18,1.79,6.58,3.07,10.09,3.98
			c6.83,1.78,13.55,3.91,20.33,5.86c4.26,1.23,8.52,2.44,12.79,3.65c0.97,0.27,1.9,0.63,2.76,1.15c1.23,0.74,1.91,1.85,2.17,3.22
			c0.18,0.98,0.27,1.98,0.27,2.99c-0.01,16.71-0.01,33.41,0.03,50.12c0.01,2.46-0.72,4.57-2.25,6.46
			c-6.64,8.19-13.26,16.39-19.76,24.7c-0.53,0.68-1.06,1.35-1.57,2.04c-1.94,2.6-4.56,3.82-7.77,3.84c-0.76,0-1.53-0.06-2.29-0.06
			c-1.62-0.01-2.09,0.33-2.53,1.93c-0.33,1.19-0.56,2.41-0.89,3.61c-1.7,6.09-4.81,11.39-8.98,16.11c-0.06,0.07-0.14,0.13-0.19,0.21
			c-0.21,0.3-0.73,0.5-0.56,0.91c0.19,0.49,0.73,0.55,1.22,0.55c0.67,0,1.34-0.03,2-0.03c11.69,0,23.39,0,35.08,0
			c1.34,0,2.67,0.03,3.99,0.3c2.54,0.52,3.83,1.96,4.27,4.54 M49.42,158.21c4.44,0.01,8.88,0.02,13.32,0c0.86,0,1.71,0.06,2.56,0.22
			c3.92,0.71,6.03,4.63,4.47,8.28c-0.36,0.84-0.85,1.6-1.4,2.32c-3.76,4.99-7.53,9.98-11.29,14.97c-1.72,2.29-3.45,4.57-5.13,6.88
			c-1.52,2.09-3.56,3.1-6.13,3.07c-0.52-0.01-1.05,0.02-1.57,0.02c-2.48,0-4.96,0-7.45,0.01c-1.3,0.01-1.73,0.37-1.9,1.62
			c-0.05,0.33-0.05,0.67-0.03,1c0.24,3.91,0.26,7.82,0.01,11.73c-0.04,0.67-0.06,1.33,0.13,1.99c0.2,0.68,0.62,1.06,1.32,1.12
			c0.33,0.03,0.67,0.05,1,0.05c6.3,0,12.6,0.01,18.9,0c1.97,0,2.45-0.39,2.99-2.36c0.55-2.02,1.12-4.04,1.88-6
			c3.41-8.71,8.94-15.73,16.89-20.71c9.19-5.75,19.17-7.56,29.78-5.36c11.51,2.39,20.41,8.68,26.78,18.54
			c2.51,3.88,4.14,8.15,5.28,12.61c0.66,2.59,1.57,3.28,4.25,3.3c2.05,0.02,4.1-0.02,6.16-0.02c20.09,0,40.19,0,60.28,0
			c1.38,0,2.77,0.05,4.15,0c1.96-0.07,2.55-0.67,2.62-2.6c0.04-1.1,0.02-2.2,0.02-3.29c0-19.04,0-38.09,0-57.13
			c0-1.67,0.03-3.34-0.05-5.01c-0.07-1.54-0.76-2.24-2.29-2.43c-0.56-0.07-1.14-0.05-1.72-0.05c-9.93,0.01-19.86,0.03-29.78,0.03
			c-22.86,0.01-45.73,0.02-68.59,0.03c-1.48,0-2.95,0.16-4.42,0.35c-3.12,0.41-6.23,0.87-9.34,1.31c-4.39,0.62-8.78,1.23-13.16,1.84
			c-4.43,0.62-8.86,1.3-13.31,1.85c-5.33,0.67-10.51,1.85-15.42,4.06c-4.13,1.86-7.82,4.35-11.21,7.54
			C48.58,158.34,49.01,158.21,49.42,158.21z M264.7,140.99c-10.79,0-21.57,0-32.36,0c-2.44,0-3.03,0.61-3.03,3.06
			c0,0.1,0.01,0.19,0.01,0.29c0.01,18.04,0.02,36.08,0.03,54.12c0,3.44-0.03,6.87-0.02,10.31c0,2.25,0.47,2.71,2.65,2.72
			c0.24,0,0.48,0,0.72,0c4.92-0.02,9.83-0.06,14.75-0.06c2.34,0,4.68-0.02,7.01,0.12c3.31,0.21,4.64-0.65,5.44-3.89
			c2.23-9.08,6.99-16.58,14.3-22.36c9.73-7.71,20.82-10.67,33.04-8.4c13.34,2.47,23.06,10.08,29.33,22.05
			c1.79,3.42,3.34,6.96,3.69,10.9c0.11,1.21,0.57,1.52,1.76,1.64c1.61,0.16,2.73-0.62,3.67-1.8c5.7-7.17,11.36-14.37,17.15-21.47
			c1.51-1.85,1.99-3.79,1.86-6.08c-0.25-4.34-0.22-8.68-0.03-13.02c0.05-1.04,0.17-2.09-0.08-3.13c-0.19-0.8-0.66-1.24-1.49-1.29
			c-0.38-0.02-0.76-0.04-1.14-0.04c-2.62,0.01-5.25,0.05-7.87,0.05c-2.81,0-5.63-0.11-8.43,0.26c-0.91,0.12-1.81-0.04-2.7-0.23
			c-1.02-0.22-1.67-0.85-1.98-1.85c-0.36-1.13-0.3-2.27-0.14-3.4c0.19-1.33,0.24-2.66,0.2-4c-0.07-2.45,0.27-2.8,2.77-2.8
			c0.05,0,0.1,0,0.14,0c5.97,0.02,11.93,0.01,17.9,0.07c1.82,0.02,3.1-0.24,2.87-3.14c-0.01-0.14-0.03-0.28-0.05-0.43
			c-0.23-2.19-0.27-4.38,0.02-6.56c0.29-2.21-0.22-3.06-2.41-3.66c-5.97-1.64-11.92-3.36-17.86-5.12
			c-6.57-1.94-13.37-3.15-19.58-6.24c-0.64-0.32-1.3-0.23-1.9,0.19c-0.59,0.4-1.18,0.81-1.79,1.18c-5.16,3.17-10.35,6.31-15.41,9.64
			c-1.4,0.93-2.91,1.63-4.55,2.04c-1.92,0.48-3.87,0.4-5.82,0.39c-10.21-0.03-20.43-0.01-30.64-0.01
			C264.7,141.02,264.7,141.01,264.7,140.99z M267.94,246.76c0.43,0,0.86,0.01,1.29-0.01c0.28-0.01,0.6,0.04,0.71-0.31
			c0.09-0.3-0.04-0.56-0.25-0.78c-0.33-0.34-0.7-0.65-1-1.02c-4.28-5.13-7.49-10.8-8.82-17.43c-0.6-2.99-1.45-3.65-4.48-3.68
			c-0.24,0-0.48,0-0.72,0c-2.91,0.01-5.82,0.08-8.73,0.1c-10.74,0.07-21.48,0.05-32.22,0.05c-23.87,0-47.73-0.01-71.6-0.01
			c-1.24,0-1.58,0.26-1.88,1.49c-0.18,0.74-0.3,1.5-0.48,2.23c-1.64,6.55-4.75,12.34-9.06,17.51c-0.4,0.48-1.25,0.95-0.95,1.6
			c0.25,0.55,1.13,0.23,1.72,0.23c22.77,0.01,45.54,0.01,68.31,0.01C222.5,246.76,245.22,246.76,267.94,246.76z M311.12,119.95
			c-0.37-0.22-0.74-0.44-1.12-0.63c-15.19-7.55-31.06-13.11-47.75-16.26c-9.95-1.88-19.98-2.91-30.11-3.07
			c-2.4-0.04-2.84,0.41-2.82,2.82c0,0.19,0.01,0.38,0.01,0.57c0.05,2.91,0.09,5.82,0.14,8.72c0.08,4.72-0.13,9.44-0.16,14.16
			c-0.02,2.49,0.44,2.97,2.86,2.97c11.64-0.01,23.28-0.03,34.93-0.03c9.49,0,18.99-0.01,28.48,0.03c1.68,0.01,3.17-0.36,4.58-1.31
			c2.1-1.41,4.27-2.7,6.41-4.04c1.69-1.06,3.37-2.13,5.35-3.37C311.51,120.23,311.32,120.08,311.12,119.95z M299.89,188.32
			c-16.52-0.03-29.22,12.91-29.27,29.14c-0.05,16.71,13.16,29.44,29.32,29.44c16.43,0,29.22-13.42,29.27-29.42
			C329.18,201.69,316.57,188.35,299.89,188.32z M99.67,246.9c16.26-0.03,29.29-12.89,29.27-29.34
			c-0.02-16.26-12.67-29.22-29.17-29.24c-16.65-0.02-29.35,13.23-29.43,29.21C70.44,233.63,83.35,246.92,99.67,246.9z
			 M132.75,129.21c19.85,0.01,39.71,0.01,59.56,0.02c7.59,0,15.18,0.01,22.77,0c1.77,0,2.2-0.44,2.2-2.2
			c0.01-8.21,0.01-16.42,0-24.63c0-1.67-0.57-2.16-2.19-1.98c-2.94,0.32-5.87,0.61-8.81,0.98c-6.67,0.85-13.28,2.04-19.81,3.62
			c-19.51,4.72-37.68,12.56-54.57,23.39c-0.26,0.17-0.63,0.25-0.67,0.81C131.74,129.21,132.25,129.21,132.75,129.21z M41.58,170.52
			c-2.3,0.06-3.78,1.32-4.45,3.56c-0.63,2.15-0.96,4.36-1.43,6.55c-0.22,1.02,0.2,1.48,1.32,1.56c1.44,0.1,2.83-0.23,4.25-0.43
			c2.16-0.31,3.86-1.26,4.95-3.19c0.14-0.25,0.34-0.46,0.51-0.69c1.79-2.39,3.59-4.79,5.53-7.37
			C48.52,170.5,45.05,170.43,41.58,170.52z M305.56,217.53c0.02-3.1-2.28-5.51-5.3-5.56c-3.13-0.05-5.63,2.3-5.69,5.36
			c-0.06,3.12,2.31,5.59,5.41,5.62C303.13,222.99,305.53,220.66,305.56,217.53z M99.67,211.78c-3.19-0.08-5.59,2.37-5.62,5.59
			c-0.03,3.3,2.35,5.76,5.59,5.78c3.31,0.02,5.67-2.33,5.68-5.67C105.43,214.51,103.38,211.87,99.67,211.78z"/>
	</g>
	<path class="st2" d="M368.4,301.57H31.17c-5.02,0-9.1-4.07-9.1-9.1v-36.79c0-5.02,4.07-9.1,9.1-9.1H368.4c5.02,0,9.1,4.07,9.1,9.1
		v36.79C377.5,297.5,373.43,301.57,368.4,301.57z"/>
	<text transform="matrix(1 0 0 1 92.2329 289.649)" class="st0 st3 st4">Plan - Mensual</text>
</g>
</svg>
