<?xml version="1.0" encoding="utf-8"?>
<!-- Generator: Adobe Illustrator 23.0.5, SVG Export Plug-In . SVG Version: 6.00 Build 0)  -->
<svg version="1.1" id="Capa_1" xmlns="http://www.w3.org/2000/svg" xmlns:xlink="http://www.w3.org/1999/xlink" x="0px" y="0px"
	 viewBox="0 0 400 400" style="enable-background:new 0 0 400 400;" xml:space="preserve">
<style type="text/css">
	.st0{fill:#AF9760;}
	.st1{fill:none;stroke:#AB945E;stroke-width:7.2018;stroke-miterlimit:10;}
	.st2{fill:none;stroke:#AB945E;stroke-width:7.132;stroke-miterlimit:10;}
	.st3{fill:none;stroke:#AB945E;stroke-width:7.2564;stroke-miterlimit:10;}
	.st4{fill:#B49A61;}
	.st5{fill:none;stroke:#AB945E;stroke-width:7.0481;stroke-miterlimit:10;}
	.st6{fill:#B19963;}
	.st7{font-family:'Montserrat-Black';}
	.st8{font-size:37.8494px;}
</style>
<g>
	<g>
		<path class="st4" d="M112.48,256.03c-14.63,0-29.26,0-43.9,0c-4.07,0-5-0.94-5-5.04c0-4.67-0.01-9.34,0-14
			c0.01-2.6,1.26-4.08,3.41-4.1c2.1-0.03,3.49,1.45,3.55,4.01c0.08,3.48,0.1,6.97-0.01,10.45c-0.05,1.52,0.48,1.88,1.89,1.82
			c2.5-0.11,5.02-0.12,7.52,0c1.44,0.07,1.72-0.45,1.71-1.78c-0.05-9.55-0.03-19.09-0.03-28.64c0-0.56-0.04-1.12,0.03-1.67
			c0.27-2.22,1.7-3.54,3.68-3.44c1.99,0.1,3.29,1.51,3.3,3.81c0.04,7.8,0.01,15.61,0.01,23.41c0,2.3,0.06,4.6-0.02,6.9
			c-0.04,1.12,0.36,1.39,1.43,1.39c14.91-0.03,29.82-0.04,44.73,0.01c1.4,0.01,1.55-0.53,1.55-1.71
			c-0.04-9.96-0.03-19.93-0.02-29.89c0-2.45,1.27-3.92,3.34-3.92c1.71,0,2.93,0.81,3.34,2.52c0.21,0.87,0.26,1.79,0.26,2.69
			c0.02,9.48,0.04,18.95-0.02,28.43c-0.01,1.43,0.34,1.95,1.84,1.88c2.57-0.12,5.16-0.08,7.73-0.01c1.14,0.03,1.57-0.25,1.56-1.49
			c-0.06-10.94,0.22-21.89-0.17-32.81c-0.27-7.51-4.08-13.43-10.27-17.75c-0.74-0.52-1.55-0.94-2.26-1.49
			c-1.69-1.31-2.02-3.13-0.91-4.77c0.99-1.47,2.9-1.94,4.63-0.99c5.11,2.82,9.13,6.77,12.01,11.87c2.8,4.96,3.99,10.32,3.99,15.99
			c0,11.15,0,22.3,0,33.44c0,3.76-1.09,4.87-4.8,4.87C141.88,256.03,127.18,256.03,112.48,256.03z"/>
		<path class="st4" d="M113.82,224.59c-12.62-0.04-22.16-9.36-22.38-20.44c-0.05-2.34,1.23-3.96,3.24-4.11
			c1.84-0.14,3.33,1.3,3.63,3.51c1.04,7.72,4.49,11.97,11.07,13.66c7.86,2.02,16.24-3.92,16.98-12.02c0.07-0.76,0.2-1.52,0.36-2.27
			c0.36-1.75,1.92-3,3.54-2.88c1.79,0.14,3.17,1.56,3.19,3.49c0.07,5.87-2.15,10.87-6.26,14.95
			C123.12,222.52,118.09,224.48,113.82,224.59z"/>
		<path class="st4" d="M82.35,188.42c-3.31-2.52-6.44-5.13-8.88-8.48c-4.12-5.66-6.47-11.93-6.57-18.95c-0.02-1.45-0.34-2.29-1.83-3
			c-4.82-2.28-7.49-7.55-6.86-12.95c0.57-4.92,4.44-9.44,9.35-10.62c1.23-0.3,1.55-0.8,1.65-1.9c0.48-5.19,1.05-10.35,2.75-15.33
			c5.41-15.85,20.72-27.51,37.4-28.53c6.34-0.39,12.45,0.49,18.64,2.74c-0.42-5.63-2.8-9.9-7.45-12.68c-9-5.38-20.06-0.99-23.1,9.05
			c-0.34,1.13-0.6,2.31-1.61,3.07c-1.23,0.93-2.57,1.04-3.89,0.22c-1.48-0.93-1.93-2.39-1.54-4.01
			c4.14-16.97,23.8-22.64,35.89-12.79c6.09,4.96,9.03,11.3,8.66,19.13c-0.06,1.16,0.36,1.74,1.24,2.34
			c11.26,7.75,17.62,18.42,18.97,32.05c0.02,0.21,0.08,0.41,0.07,0.62c-0.02,3.48,0.73,5.83,4.77,7.28
			c4.7,1.68,6.85,6.21,6.75,11.27c-0.1,5.06-2.59,8.84-7.13,11.17c-0.9,0.46-1.59,0.75-1.6,2.04c-0.12,10.92-4.6,19.77-13.19,26.42
			c-5.66,4.38-11.42,8.68-17.39,12.62c-10.33,6.83-21.39,6.36-31.45-0.94c-1.24-0.9-2.63-1.65-3.69-2.73
			c-2.02-2.07-4.14-1.9-6.59-0.98c-8.38,3.12-14.7,11.72-15.05,20.76c-0.12,3.13-0.06,6.27-0.12,9.4c-0.02,0.83-0.07,1.68-0.28,2.47
			c-0.46,1.81-1.73,2.61-3.55,2.48c-1.77-0.12-3.04-1.2-3.05-2.87c-0.05-7.06-0.79-14.19,1.97-21.03
			c2.97-7.33,7.83-12.87,14.92-16.41C81.13,189.08,81.67,188.78,82.35,188.42z M117.6,171.05c-2.63,0.7-5.39,0.62-8.05,0.02
			c-1.71-0.39-2.52-1.78-2.39-3.46c0.13-1.68,1.18-2.75,2.86-3.16c0.98-0.24,2.35,0.55,2.88-0.45c0.43-0.82,0.11-2.04,0.12-3.09
			c0-0.63,0.01-1.25,0-1.88c-0.01-0.4,0.06-0.77-0.51-0.96c-1.52-0.5-3.09,0.13-3.62,1.55c-2.22,5.86-7.71,9.63-13.84,9.49
			c-6.3-0.14-12.1-4.01-13.57-10.06c-1.01-4.15-4.44-5.39-7.01-8.33c-0.25,2.99-0.56,5.41-0.64,7.84
			c-0.3,8.65,2.65,16.05,9.36,21.52c5.81,4.73,11.94,9.1,18.13,13.35c7.38,5.07,15.57,4.83,22.94-0.39
			c5.27-3.74,10.5-7.55,15.68-11.41c10.39-7.72,12.81-18.6,10.29-30.57c-1.08,0.94-2.09,1.89-3.18,2.73
			c-1.74,1.33-2.86,2.86-3.49,5.13c-1.61,5.83-6.89,9.71-12.89,10.13c-3.92,0.27-7.34-0.94-10.65-3.57
			C120.08,168.04,120.21,170.35,117.6,171.05z M104.97,96.27c-14.23,3.53-23.41,12.31-27.38,26.47c-0.28,0.99-0.67,1.88,1.01,1.93
			c6.68,0.2,13.36,0.3,19.93-1.23c8.6-2,16.26-5.51,21.54-13.04c1.44-2.06,4.13-1.89,5.65,0.2c1.06,1.46,1.92,3.07,3.02,4.49
			c4.67,6.05,10.13,11.05,17.73,13.17c1.27,0.35,1.84,0.41,1.64-1.3c-2.04-16.97-16.35-31.28-35.95-31.55
			C109.91,95.5,107.4,95.67,104.97,96.27z M149.11,142.79c0.42-0.36,0.53-0.75,0.47-1.28c-0.16-1.38-0.28-2.77-0.39-4.15
			c-0.08-1.1-0.45-1.74-1.73-1.86c-1.44-0.14-2.87-0.5-4.25-0.94c-8.11-2.59-14.35-7.78-19.41-14.43c-1.18-1.55-1.7-1.27-2.9-0.14
			c-4.2,3.97-9.22,6.59-14.65,8.5c-8.06,2.85-16.38,3.52-24.84,3.33c-1.65-0.04-3.74-1.01-4.83-0.04c-1.17,1.05-0.54,3.29-0.78,5.01
			c-0.75,5.49-0.68,5.5,3.63,9.17c0.42,0.36,0.89,0.69,1.25,1.1c0.91,1.02,1.37,1.01,2.2-0.29c2.89-4.58,7.23-6.97,12.6-6.82
			c5.79,0.16,10.44,2.87,12.71,8.26c1.12,2.65,2.51,3.2,4.91,2.86c0.14-0.02,0.28-0.02,0.42,0c1.5,0.28,2.11-0.41,2.64-1.82
			c2.32-6.23,8.73-10,15.2-9.19c5.23,0.66,8.93,3.46,11.55,8.11C145.02,146.32,147.06,144.54,149.11,142.79z M95.35,162.21
			c4.2-0.13,7.65-3.72,7.54-7.87c-0.11-4.1-3.61-7.51-7.7-7.5c-4.15,0.01-7.72,3.63-7.66,7.76
			C87.58,158.77,91.25,162.33,95.35,162.21z M129.77,162.22c4.13-0.06,7.51-3.48,7.55-7.63c0.03-4.25-3.4-7.74-7.6-7.75
			c-4.21-0.01-7.64,3.46-7.64,7.7C122.08,158.75,125.62,162.28,129.77,162.22z M156.62,141.95c0.28,3.04,0.57,6.03,0.86,9.14
			C161,149.04,160.17,142.64,156.62,141.95z M68.31,141.67c-3.89,2.4-4.23,6.71-0.88,9.41C67.72,147.94,68.01,144.93,68.31,141.67z"
			/>
		<path class="st4" d="M112.53,184.39c-3.94-0.21-7.19-1.41-9.93-3.89c-1.62-1.47-1.91-3.47-0.71-4.97
			c1.25-1.57,3.11-1.75,4.98-0.48c4.76,3.24,6.45,3.24,11.22-0.02c1.84-1.26,3.72-1.06,4.97,0.53c1.2,1.52,0.97,3.34-0.6,4.82
			C119.58,183.06,116.11,184.26,112.53,184.39z"/>
		<path class="st4" d="M95.76,157.34c-0.76,0-1.53,0.07-2.29-0.01c-1.84-0.21-3.12-1.1-3.33-3.08c-0.21-1.92,0.77-3.32,2.78-3.73
			c1.91-0.4,3.87-0.34,5.79-0.04c1.92,0.3,3.18,1.94,3.04,3.62c-0.16,1.77-1.54,3.09-3.48,3.24
			C97.43,157.39,96.59,157.34,95.76,157.34z"/>
		<path class="st4" d="M129.59,155.97c-0.9,0-1.82,0.12-2.7-0.03c-1.77-0.3-2.92-1.43-3.01-3.22c-0.09-1.77,0.81-3.07,2.63-3.48
			c2.05-0.46,4.14-0.44,6.18-0.05c2,0.38,3.02,1.86,2.77,3.75c-0.26,1.94-1.53,2.87-3.38,3.05c-0.82,0.08-1.66,0.01-2.5,0.01
			C129.59,156,129.59,155.98,129.59,155.97z"/>
		<g>
			<path class="st4" d="M162.69,177.01c0.9-1.77,1.34-3.75,2.65-5.34c1.01-1.22,2.05-2.42,3.45-3.12c1.07-0.54,1.09-1.17,0.87-2.16
				c-2.18-9.45-2.23-19.06-2.06-28.67c0.04-2.13,1.64-3.22,3.7-2.6c2.21,0.66,4.4,1.37,6.58,2.12c0.73,0.25,1.14,0.12,1.59-0.52
				c4.99-7,11.76-11.26,20.27-12.35c9.79-1.25,19.58-1.48,28.52,3.77c11.93,7.01,18.09,17.48,18.36,31.36
				c0.03,1.39,0.04,2.78,0,4.17c-0.09,3.05-0.25,5.96,2.59,8.27c1.71,1.39,2.16,3.83,2.56,6.12c1.24-1.53,1.77-2.98,1.69-5
				c-0.24-6-0.33-12,1.67-17.86c4.72-13.82,17.72-23.47,32.32-23.56c2.22-0.01,4.45,0.03,6.67,0.04
				c10.16,0.03,18.74,3.95,25.63,11.48c0.92,1,1.2,2.1,0.57,3.33c-0.58,1.12-1.58,1.44-2.78,1.3c-0.75-0.09-1.24-0.57-1.71-1.09
				c-4.86-5.33-10.85-8.52-18-9.53c-0.69-0.1-1.38-0.11-2.07-0.19c-1.21-0.14-2.18-0.15-2.54,1.45c-0.22,0.99-1.27,1.42-2.37,1.37
				c-1.18-0.05-2.04-0.61-2.32-1.73c-0.25-1.01-0.78-1.15-1.71-1.13c-13.69,0.2-26.18,11.48-27.87,25.12
				c-0.33,2.67-0.22,5.32-0.29,7.98c-0.01,0.48-0.18,1.09,0.69,1.06c5.9-0.18,11.83,0.5,17.7-0.34c6.3-0.9,10.93-6.33,11.21-12.71
				c0.09-2.06,1.01-3.22,2.6-3.28c1.56-0.06,2.58,1.06,2.8,3.1c0.03,0.23,0.03,0.46,0.05,0.69c0.38,4.52,2.55,7.96,6.33,10.41
				c2.13,1.39,4.52,2.07,7.04,2.1c4.98,0.06,9.97-0.02,14.95,0.05c1.12,0.02,1.32-0.35,1.32-1.38c-0.01-4.35-0.17-8.66-1.59-12.85
				c-0.62-1.83,0.13-3.33,1.7-3.79c1.43-0.42,2.78,0.46,3.36,2.22c1.21,3.65,1.83,7.41,1.74,11.25c-0.07,2.76,0.35,5.55-0.28,8.29
				c-0.11,0.5,0.19,0.75,0.42,1.07c2.56,3.55,3.08,7.4,1.64,11.5c-0.27,0.77-0.09,1.04,0.56,1.44c6.62,4.04,9.93,9.93,9.87,17.72
				c-0.04,4.93,0,9.85-0.01,14.78c-0.01,1.97-0.85,3.02-2.74,3.04c-4.15,0.04-8.34,0.4-12.78-1.35c3.04,4.79,2.42,9.79,2.45,14.69
				c0.03,4.81,0.01,9.62,0.01,14.43c0,3.09-0.72,3.83-3.74,3.83c-21.96,0-43.93,0-65.89,0c-2.84,0-3.59-0.75-3.59-3.58
				c-0.01-6.55,0.03-13.1-0.02-19.65c-0.02-2.94,0.31-5.76,1.69-8.4c0.14-0.27,0.46-0.56,0.11-0.92c-0.22-0.23-0.41-0.04-0.61,0.03
				c-3.24,1.07-6.6,0.96-10.13,0.96c1.56,4.09,1.08,8.21,1.11,12.29c0.05,5.33,0.03,10.66,0,15.99c-0.01,2.33-0.86,3.26-3.06,3.26
				c-18.66,0.02-37.32,0.01-55.98,0c-2.03,0-3.13-1.01-3.09-2.69c0.05-1.61,1.23-2.57,3.25-2.57c17.27-0.01,34.54-0.02,51.81,0.03
				c1.42,0,1.83-0.29,1.8-1.76c-0.1-6.08-0.02-12.17-0.05-18.25c-0.03-6.48-4.81-11.26-11.29-11.33c-2.03-0.02-4.06,0.02-6.08-0.02
				c-0.86-0.02-1.25,0.14-1.5,1.14c-1.82,7.15-7.91,11.83-15.2,11.85c-7.05,0.01-13.08-4.64-15-11.64c-0.26-0.94-0.57-1.42-1.7-1.36
				c-2.43,0.13-4.89-0.14-7.29,0.13c-5.96,0.67-9.92,5.22-10,11.37c-0.08,6.2,0,12.4-0.04,18.6c-0.01,0.97,0.24,1.28,1.25,1.28
				c1.99,0.01,3.19,1.12,3.15,2.68c-0.04,1.57-1.26,2.53-3.27,2.56c-1.27,0.01-2.55,0.02-3.82-0.02c-1.51-0.05-2.52-0.97-2.51-2.36
				c0.08-8.68-0.67-17.4,0.33-26.04c0.86-7.37,7.87-13.22,15.29-13.36c1.85-0.04,3.69-0.01,5.88-0.01
				c-1.55-1.19-2.88-2.13-4.12-3.18c-5.33-4.48-8.92-10.11-10.81-16.8c-0.28-1-0.69-1.42-1.78-1.7c-4.97-1.3-8.19-4.53-9.7-9.45
				c-0.09-0.31,0.05-0.72-0.39-0.87C162.69,180.49,162.69,178.75,162.69,177.01z M179.37,167.51c-0.85,3.75-0.85,3.75-4.74,4.28
				c-0.23,0.03-0.45,0.09-0.67,0.15c-3.76,1.02-6.37,4.61-6.03,8.28c0.38,4.15,3.42,7.04,7.81,7.44c2.42,0.22,2.85,0.6,3.33,2.91
				c3.35,15.95,18.25,25.79,34.18,22.58c11.04-2.23,20.04-11.39,22.12-22.53c0.43-2.28,0.94-2.73,3.31-2.96
				c0.75-0.07,1.51-0.15,2.22-0.36c3.72-1.13,6.12-4.93,5.56-8.75c-0.56-3.86-3.86-6.78-7.81-6.79
				c-11.18-0.02-22.37-0.01-33.55-0.01c-2.39,0-4.74-0.22-7.04-0.87c-6.73-1.91-11.54-6.13-14.67-12.34
				C181.71,160.74,180.09,164.34,179.37,167.51z M174.77,164.14c0.16-0.43,0.32-0.86,0.47-1.29c1.56-4.21,3.8-8.02,6.83-11.36
				c0.79-0.87,1.68-1.48,2.88-1.18c1.23,0.31,1.81,1.2,2.12,2.46c1.5,6.1,5.18,10.33,11.07,12.58c2.93,1.12,6,1.04,9.08,1.06
				c11,0.05,22.01-0.36,33.01,0.17c1.02,0.05,1.12-0.33,1.1-1.15c-0.04-2.2,0-4.4-0.02-6.6c-0.11-13.03-8.75-24.59-21.2-28.46
				c-5.43-1.69-10.94-1.4-16.51-1.08c-9.18,0.52-16.23,4.46-21,12.36c-0.93,1.54-2.12,1.97-3.8,1.41c-1.96-0.65-3.93-1.24-6.02-1.89
				c0,7.84,0.31,15.5,1.8,23.1C174.67,164.2,174.75,164.18,174.77,164.14z M273.68,176.35c-3.59-0.07-7.18-0.07-10.77,0
				c-3.7,0.08-6.57,2.84-6.77,6.36c-0.21,3.87,2.19,6.91,6.09,7.27c3.31,0.3,3.41,1.2,4.04,3.73c2.29,9.33,7.97,15.67,17.15,18.52
				c9.17,2.84,17.49,0.89,24.66-5.49c4.09-3.64,6.63-8.24,7.69-13.63c0.47-2.36,0.95-2.72,3.48-3.03c0.68-0.08,1.38-0.2,2.03-0.43
				c3.14-1.11,5.01-4.3,4.48-7.56c-0.52-3.25-3.36-5.69-6.85-5.75c-4.05-0.06-8.11-0.04-12.16-0.03c-2.59,0-5.02-0.63-7.37-1.69
				c-3.53-1.59-6.21-4.14-8.42-7.46C286.71,173.41,281.07,176.5,273.68,176.35z M320.84,250.78c1.2,0.01,1.54-0.26,1.53-1.5
				c-0.07-5.97,0-11.94-0.05-17.91c-0.04-5.16-3.73-9.36-8.82-10.28c-2.31-0.42-4.63-0.1-6.93-0.26c-1.06-0.08-1.27,0.27-1.4,1.31
				c-0.9,7.17-6.07,12.05-13.36,12.76c-6.03,0.58-12.24-3.65-14.34-9.65c-0.51-1.45,0.05-3.62-1.34-4.25
				c-1.39-0.63-3.3-0.14-4.98-0.14c-0.35,0-0.7,0-1.04,0.02c-6.1,0.39-10.39,4.93-10.4,11.04c-0.01,5.8,0.04,11.59-0.04,17.39
				c-0.02,1.26,0.37,1.49,1.54,1.49c9.91-0.05,19.82-0.03,29.73-0.03C300.9,250.75,310.87,250.73,320.84,250.78z M335.5,211.58
				c0-1.97,0.07-3.93-0.01-5.9c-0.2-4.79-2.22-8.64-6.08-11.5c-1.49-1.1-2.67-1.23-4.7-0.47c-3.32,1.23-4.52,3.4-5.68,6.38
				c-1.17,3.01-1.18,5.84-0.35,8.75c1.96,6.94,8.63,11.13,16.04,10.31c0.94-0.1,0.79-0.6,0.79-1.15
				C335.51,215.86,335.51,213.72,335.5,211.58C335.51,211.58,335.5,211.58,335.5,211.58z M246.44,218.04
				c-0.01,0.78,0.13,1.15,1.03,1.11c1.9-0.07,3.81,0.01,5.69-0.42c7.28-1.69,13.42-10.99,9.5-18.88c-0.41-0.82-0.77-1.7-0.92-2.6
				c-0.26-1.51-1.05-2.26-2.54-2.5c-1.15-0.18-2.2-0.77-3.09-1.49c-0.74-0.59-1.29-0.46-2-0.07c-3.85,2.13-6.32,5.29-7.32,9.6
				c-0.65,2.81-0.15,5.65-0.33,7.97C246.46,213.52,246.48,215.78,246.44,218.04z M241.67,192.55c-1.12,0.26-1.51,0.75-1.77,1.7
				c-2,7.19-5.99,13.06-11.85,17.67c-0.92,0.72-1.89,1.39-3.02,2.21c3.03,0.25,5.81-0.17,8.55,0.4c2.74,0.57,5.11,1.89,7.55,3.67
				c0-0.85,0-1.41,0-1.97c0.03-3.93-0.09-7.88,0.12-11.8c0.31-5.88,2.98-10.67,7.7-14.1c2-1.45,3.62-2.56,1.74-5.19
				C248.8,188.94,245.84,191.57,241.67,192.55z M286.37,228.31c3.13,1.89,6.4,1.84,9.48-0.15c3.91-2.53,4.44-6.42,4.05-10.74
				c-5.97,1.76-11.89,1.73-17.82,0.04C281.67,221.9,282.29,225.85,286.37,228.31z M198.54,217.9c-1.65-0.39-1.62,0.08-1.3,1.32
				c1.29,5.03,5.7,8.2,10.99,7.87c4.8-0.3,8.72-4.26,9.27-9.53C208.12,219.99,203.59,219.11,198.54,217.9z M265.21,216.43
				c3.86-1.29,7.67-0.62,11.77-0.9c-1.65-1.09-3.05-1.93-4.36-2.91c-1.32-1-2.54-2.13-3.98-3.35
				C267.92,211.92,267.03,214.25,265.21,216.43z M305.29,215.4c3.71,0.39,7.34-0.18,11.12,0.85c-1.56-2.23-2.47-4.46-3.21-7.07
				C310.75,211.73,308.09,213.64,305.29,215.4z"/>
			<path class="st4" d="M207.23,203.99c-4.85,0-8.95-3.85-9.3-8.77c-0.12-1.62,0.85-2.97,2.3-3.19c1.46-0.23,2.73,0.88,3.05,2.66
				c0.46,2.59,1.69,3.87,3.79,3.93c2.1,0.06,3.6-1.14,4.05-3.25c0.55-2.6,1.64-3.69,3.3-3.3c1.79,0.43,2.44,2,1.87,4.52
				C215.31,200.95,211.59,203.99,207.23,203.99z"/>
			<path class="st4" d="M225.2,181.94c0,0.98,0.07,1.97-0.02,2.95c-0.14,1.63-1.2,2.61-2.7,2.58c-1.61-0.03-2.5-0.97-2.59-2.47
				c-0.12-2.01-0.12-4.05,0.01-6.06c0.09-1.53,1.11-2.45,2.64-2.44c1.53,0.02,2.44,0.99,2.62,2.49c0.11,0.97,0.02,1.96,0.02,2.95
				C225.19,181.94,225.2,181.94,225.2,181.94z"/>
			<path class="st4" d="M194.63,182.05c0,0.92,0.05,1.85-0.01,2.77c-0.11,1.62-1.15,2.63-2.62,2.65c-1.54,0.02-2.57-0.89-2.65-2.58
				c-0.09-1.96-0.07-3.93,0.01-5.89c0.06-1.57,1.05-2.41,2.56-2.52c1.4-0.1,2.58,1.06,2.69,2.61
				C194.69,180.08,194.63,181.06,194.63,182.05z"/>
			<path class="st4" d="M290.89,205.17c-4.38-0.02-8.09-3.39-8.53-7.76c-0.18-1.81,0.7-3.16,2.2-3.37c1.67-0.23,2.68,0.59,3.05,2.5
				c0.43,2.17,1.6,3.37,3.31,3.38c1.73,0.02,2.9-1.17,3.28-3.33c0.33-1.86,1.41-2.76,3.06-2.56c1.54,0.18,2.44,1.51,2.23,3.31
				C298.97,201.95,295.41,205.19,290.89,205.17z"/>
			<path class="st4" d="M279.87,185.39c0,0.93,0.07,1.86-0.02,2.77c-0.13,1.48-1.06,2.27-2.5,2.38c-1.38,0.11-2.55-0.96-2.68-2.39
				c-0.05-0.57-0.03-1.16-0.01-1.73c0.02-0.66-0.02-1.14-0.8-1.49c-1.15-0.51-1.73-1.53-1.45-2.83c0.29-1.36,1.24-2.04,2.59-2.15
				c0.69-0.06,1.39-0.07,2.08-0.01c1.91,0.15,2.76,1.08,2.79,3.01c0.01,0.81,0,1.62,0,2.43
				C279.88,185.39,279.87,185.39,279.87,185.39z"/>
			<path class="st4" d="M301.97,185.25c0-0.35,0.02-0.69,0-1.04c-0.29-3.67,1.04-4.8,5.55-4.11c1.07,0.16,1.72,0.89,1.92,1.96
				c0.21,1.12-0.03,2.2-1.08,2.69c-1,0.47-1.13,1.12-1.08,2.04c0.04,0.68,0.08,1.37-0.21,2.04c-0.52,1.21-1.41,1.84-2.7,1.71
				c-1.27-0.13-2.16-0.86-2.3-2.18c-0.11-1.02-0.02-2.07-0.02-3.11C302.03,185.25,302,185.25,301.97,185.25z"/>
		</g>
		<path class="st5" d="M366.06,308.47H32.8c-4.96,0-8.99-4.02-8.99-8.99v-36.36c0-4.96,4.02-8.99,8.99-8.99h333.26
			c4.96,0,8.99,4.02,8.99,8.99v36.36C375.05,304.45,371.02,308.47,366.06,308.47z"/>
	</g>
	<text transform="matrix(1 0 0 1 57.5316 296.0562)" class="st0 st7 st8">Plan - Mensual</text>
</g>
</svg>
